G04 (created by PCBNEW-RS274X (20100406 SVN-R2508)-final) date 07/03/2016 07:58:10*
G01*
G70*
G90*
%MOIN*%
G04 Gerber Fmt 3.4, Leading zero omitted, Abs format*
%FSLAX34Y34*%
G04 APERTURE LIST*
%ADD10C,0.006000*%
%ADD11C,0.015000*%
%ADD12C,0.012000*%
%ADD13C,0.005000*%
%ADD14C,0.006700*%
%ADD15C,0.008300*%
%ADD16C,0.010000*%
G04 APERTURE END LIST*
G54D10*
G54D11*
X12000Y-45500D02*
X11000Y-45500D01*
X11000Y-15500D02*
X12000Y-15500D01*
X53000Y-45500D02*
X53000Y-15500D01*
X12000Y-45500D02*
X53000Y-45500D01*
X11000Y-15500D02*
X11000Y-45500D01*
X53000Y-15500D02*
X12000Y-15500D01*
X51500Y-21750D02*
X51500Y-18000D01*
X52500Y-21750D02*
X52500Y-18000D01*
X46500Y-21750D02*
X46500Y-18000D01*
X46500Y-21750D02*
X52500Y-21750D01*
X52500Y-18000D02*
X46500Y-18000D01*
X52500Y-18000D02*
X46500Y-18000D01*
G54D12*
X32900Y-41100D02*
X32900Y-43900D01*
X32900Y-43900D02*
X32100Y-43900D01*
X32100Y-43900D02*
X32100Y-41100D01*
X32100Y-41100D02*
X32900Y-41100D01*
X32700Y-41100D02*
X32900Y-41300D01*
X44900Y-17400D02*
X42100Y-17400D01*
X42100Y-17400D02*
X42100Y-16600D01*
X42100Y-16600D02*
X44900Y-16600D01*
X44900Y-16600D02*
X44900Y-17400D01*
X44900Y-17200D02*
X44700Y-17400D01*
X43350Y-30650D02*
X43350Y-27850D01*
X43350Y-27850D02*
X44150Y-27850D01*
X44150Y-27850D02*
X44150Y-30650D01*
X44150Y-30650D02*
X43350Y-30650D01*
X43550Y-30650D02*
X43350Y-30450D01*
X39900Y-17400D02*
X37100Y-17400D01*
X37100Y-17400D02*
X37100Y-16600D01*
X37100Y-16600D02*
X39900Y-16600D01*
X39900Y-16600D02*
X39900Y-17400D01*
X39900Y-17200D02*
X39700Y-17400D01*
X44850Y-27850D02*
X47650Y-27850D01*
X47650Y-27850D02*
X47650Y-28650D01*
X47650Y-28650D02*
X44850Y-28650D01*
X44850Y-28650D02*
X44850Y-27850D01*
X44850Y-28050D02*
X45050Y-27850D01*
X44850Y-29850D02*
X47650Y-29850D01*
X47650Y-29850D02*
X47650Y-30650D01*
X47650Y-30650D02*
X44850Y-30650D01*
X44850Y-30650D02*
X44850Y-29850D01*
X44850Y-30050D02*
X45050Y-29850D01*
X40695Y-42000D02*
X40653Y-42426D01*
X40529Y-42836D01*
X40328Y-43214D01*
X40057Y-43546D01*
X39727Y-43819D01*
X39350Y-44023D01*
X38941Y-44150D01*
X38515Y-44194D01*
X38089Y-44156D01*
X37678Y-44035D01*
X37299Y-43836D01*
X36965Y-43568D01*
X36689Y-43240D01*
X36483Y-42864D01*
X36353Y-42456D01*
X36306Y-42030D01*
X36342Y-41604D01*
X36460Y-41192D01*
X36655Y-40811D01*
X36922Y-40476D01*
X37248Y-40198D01*
X37622Y-39989D01*
X38029Y-39857D01*
X38455Y-39806D01*
X38881Y-39839D01*
X39293Y-39954D01*
X39676Y-40147D01*
X40013Y-40411D01*
X40293Y-40735D01*
X40505Y-41108D01*
X40640Y-41514D01*
X40694Y-41939D01*
X40695Y-42000D01*
X40695Y-21000D02*
X40653Y-21426D01*
X40529Y-21836D01*
X40328Y-22214D01*
X40057Y-22546D01*
X39727Y-22819D01*
X39350Y-23023D01*
X38941Y-23150D01*
X38515Y-23194D01*
X38089Y-23156D01*
X37678Y-23035D01*
X37299Y-22836D01*
X36965Y-22568D01*
X36689Y-22240D01*
X36483Y-21864D01*
X36353Y-21456D01*
X36306Y-21030D01*
X36342Y-20604D01*
X36460Y-20192D01*
X36655Y-19811D01*
X36922Y-19476D01*
X37248Y-19198D01*
X37622Y-18989D01*
X38029Y-18857D01*
X38455Y-18806D01*
X38881Y-18839D01*
X39293Y-18954D01*
X39676Y-19147D01*
X40013Y-19411D01*
X40293Y-19735D01*
X40505Y-20108D01*
X40640Y-20514D01*
X40694Y-20939D01*
X40695Y-21000D01*
X45695Y-21000D02*
X45653Y-21426D01*
X45529Y-21836D01*
X45328Y-22214D01*
X45057Y-22546D01*
X44727Y-22819D01*
X44350Y-23023D01*
X43941Y-23150D01*
X43515Y-23194D01*
X43089Y-23156D01*
X42678Y-23035D01*
X42299Y-22836D01*
X41965Y-22568D01*
X41689Y-22240D01*
X41483Y-21864D01*
X41353Y-21456D01*
X41306Y-21030D01*
X41342Y-20604D01*
X41460Y-20192D01*
X41655Y-19811D01*
X41922Y-19476D01*
X42248Y-19198D01*
X42622Y-18989D01*
X43029Y-18857D01*
X43455Y-18806D01*
X43881Y-18839D01*
X44293Y-18954D01*
X44676Y-19147D01*
X45013Y-19411D01*
X45293Y-19735D01*
X45505Y-20108D01*
X45640Y-20514D01*
X45694Y-20939D01*
X45695Y-21000D01*
X36195Y-29500D02*
X36153Y-29926D01*
X36029Y-30336D01*
X35828Y-30714D01*
X35557Y-31046D01*
X35227Y-31319D01*
X34850Y-31523D01*
X34441Y-31650D01*
X34015Y-31694D01*
X33589Y-31656D01*
X33178Y-31535D01*
X32799Y-31336D01*
X32465Y-31068D01*
X32189Y-30740D01*
X31983Y-30364D01*
X31853Y-29956D01*
X31806Y-29530D01*
X31842Y-29104D01*
X31960Y-28692D01*
X32155Y-28311D01*
X32422Y-27976D01*
X32748Y-27698D01*
X33122Y-27489D01*
X33529Y-27357D01*
X33955Y-27306D01*
X34381Y-27339D01*
X34793Y-27454D01*
X35176Y-27647D01*
X35513Y-27911D01*
X35793Y-28235D01*
X36005Y-28608D01*
X36140Y-29014D01*
X36194Y-29439D01*
X36195Y-29500D01*
G54D11*
X37500Y-39000D02*
X37500Y-24000D01*
X37500Y-24000D02*
X39500Y-24000D01*
X39500Y-24000D02*
X39500Y-39000D01*
X39500Y-39000D02*
X37500Y-39000D01*
X38000Y-39000D02*
X38000Y-38500D01*
X38000Y-38500D02*
X39000Y-38500D01*
X39000Y-38500D02*
X39000Y-39000D01*
G54D12*
X43000Y-32500D02*
X42980Y-32694D01*
X42924Y-32881D01*
X42832Y-33053D01*
X42709Y-33204D01*
X42559Y-33329D01*
X42387Y-33421D01*
X42201Y-33479D01*
X42006Y-33499D01*
X41813Y-33482D01*
X41626Y-33427D01*
X41453Y-33336D01*
X41301Y-33214D01*
X41175Y-33064D01*
X41081Y-32893D01*
X41022Y-32707D01*
X41001Y-32513D01*
X41017Y-32320D01*
X41071Y-32132D01*
X41160Y-31959D01*
X41281Y-31806D01*
X41430Y-31679D01*
X41600Y-31584D01*
X41786Y-31524D01*
X41980Y-31501D01*
X42173Y-31516D01*
X42361Y-31568D01*
X42535Y-31656D01*
X42689Y-31776D01*
X42817Y-31924D01*
X42913Y-32094D01*
X42975Y-32279D01*
X42999Y-32473D01*
X43000Y-32500D01*
X41000Y-32750D02*
X41250Y-32750D01*
X41250Y-32750D02*
X41250Y-32250D01*
X41250Y-32250D02*
X41000Y-32250D01*
X48500Y-24500D02*
X48480Y-24694D01*
X48424Y-24881D01*
X48332Y-25053D01*
X48209Y-25204D01*
X48059Y-25329D01*
X47887Y-25421D01*
X47701Y-25479D01*
X47506Y-25499D01*
X47313Y-25482D01*
X47126Y-25427D01*
X46953Y-25336D01*
X46801Y-25214D01*
X46675Y-25064D01*
X46581Y-24893D01*
X46522Y-24707D01*
X46501Y-24513D01*
X46517Y-24320D01*
X46571Y-24132D01*
X46660Y-23959D01*
X46781Y-23806D01*
X46930Y-23679D01*
X47100Y-23584D01*
X47286Y-23524D01*
X47480Y-23501D01*
X47673Y-23516D01*
X47861Y-23568D01*
X48035Y-23656D01*
X48189Y-23776D01*
X48317Y-23924D01*
X48413Y-24094D01*
X48475Y-24279D01*
X48499Y-24473D01*
X48500Y-24500D01*
X47250Y-23500D02*
X47250Y-23750D01*
X47250Y-23750D02*
X47750Y-23750D01*
X47750Y-23750D02*
X47750Y-23500D01*
G54D11*
X30500Y-19000D02*
X28000Y-19000D01*
X30500Y-20000D02*
X28000Y-20000D01*
X30500Y-21000D02*
X28000Y-21000D01*
X30500Y-22000D02*
X28000Y-22000D01*
X28000Y-21500D02*
X28500Y-21500D01*
X28000Y-20500D02*
X28500Y-20500D01*
X28000Y-19500D02*
X28500Y-19500D01*
X28000Y-25000D02*
X26250Y-25000D01*
X28000Y-16250D02*
X26250Y-16250D01*
X28000Y-18500D02*
X28500Y-18500D01*
X30500Y-18000D02*
X28000Y-18000D01*
X28500Y-17500D02*
X28000Y-17500D01*
X28000Y-17000D02*
X30500Y-17000D01*
X28500Y-22500D02*
X28000Y-22500D01*
X28000Y-24000D02*
X30500Y-24000D01*
X28000Y-23000D02*
X30500Y-23000D01*
X28000Y-23500D02*
X28500Y-23500D01*
X28000Y-16250D02*
X28000Y-25000D01*
X27250Y-16250D02*
X27250Y-25000D01*
X26250Y-25000D02*
X26250Y-16250D01*
X26999Y-20999D02*
X27041Y-20954D01*
X27079Y-20905D01*
X27112Y-20853D01*
X27140Y-20798D01*
X27164Y-20741D01*
X27182Y-20682D01*
X27196Y-20622D01*
X27204Y-20561D01*
X27207Y-20500D01*
X27204Y-20439D01*
X27196Y-20378D01*
X27182Y-20318D01*
X27164Y-20259D01*
X27140Y-20202D01*
X27112Y-20147D01*
X27079Y-20095D01*
X27041Y-20046D01*
X26999Y-20001D01*
X26501Y-20001D02*
X26459Y-20046D01*
X26421Y-20095D01*
X26388Y-20147D01*
X26360Y-20202D01*
X26336Y-20259D01*
X26318Y-20318D01*
X26304Y-20378D01*
X26296Y-20439D01*
X26293Y-20500D01*
X26296Y-20561D01*
X26304Y-20622D01*
X26318Y-20682D01*
X26336Y-20741D01*
X26360Y-20798D01*
X26388Y-20853D01*
X26421Y-20905D01*
X26459Y-20954D01*
X26501Y-20999D01*
X27000Y-38000D02*
X27000Y-35500D01*
X26000Y-38000D02*
X26000Y-35500D01*
X25000Y-38000D02*
X25000Y-35500D01*
X24000Y-38000D02*
X24000Y-35500D01*
X24500Y-35500D02*
X24500Y-36000D01*
X25500Y-35500D02*
X25500Y-36000D01*
X26500Y-35500D02*
X26500Y-36000D01*
X21000Y-35500D02*
X21000Y-33750D01*
X29750Y-35500D02*
X29750Y-33750D01*
X27500Y-35500D02*
X27500Y-36000D01*
X28000Y-38000D02*
X28000Y-35500D01*
X28500Y-36000D02*
X28500Y-35500D01*
X29000Y-35500D02*
X29000Y-38000D01*
X23500Y-36000D02*
X23500Y-35500D01*
X22000Y-35500D02*
X22000Y-38000D01*
X23000Y-35500D02*
X23000Y-38000D01*
X22500Y-35500D02*
X22500Y-36000D01*
X29750Y-35500D02*
X21000Y-35500D01*
X29750Y-34750D02*
X21000Y-34750D01*
X21000Y-33750D02*
X29750Y-33750D01*
X25001Y-34499D02*
X25046Y-34541D01*
X25095Y-34579D01*
X25147Y-34612D01*
X25202Y-34640D01*
X25259Y-34664D01*
X25318Y-34682D01*
X25378Y-34696D01*
X25439Y-34704D01*
X25500Y-34707D01*
X25561Y-34704D01*
X25622Y-34696D01*
X25682Y-34682D01*
X25741Y-34664D01*
X25798Y-34640D01*
X25853Y-34612D01*
X25905Y-34579D01*
X25954Y-34541D01*
X25999Y-34499D01*
X25999Y-34001D02*
X25954Y-33959D01*
X25905Y-33921D01*
X25853Y-33888D01*
X25798Y-33860D01*
X25741Y-33836D01*
X25682Y-33818D01*
X25622Y-33804D01*
X25561Y-33796D01*
X25500Y-33793D01*
X25439Y-33796D01*
X25378Y-33804D01*
X25318Y-33818D01*
X25259Y-33836D01*
X25202Y-33860D01*
X25147Y-33888D01*
X25095Y-33921D01*
X25046Y-33959D01*
X25001Y-34001D01*
G54D13*
X18750Y-43500D02*
X19500Y-43500D01*
X19500Y-43500D02*
X19500Y-40500D01*
X19500Y-40500D02*
X18500Y-40500D01*
X18500Y-40500D02*
X18500Y-43500D01*
X18500Y-43500D02*
X18750Y-43500D01*
X19000Y-43750D02*
X19000Y-43500D01*
X19000Y-40500D02*
X19000Y-40250D01*
X18750Y-43500D02*
X18500Y-43250D01*
X18750Y-39000D02*
X19500Y-39000D01*
X19500Y-39000D02*
X19500Y-36000D01*
X19500Y-36000D02*
X18500Y-36000D01*
X18500Y-36000D02*
X18500Y-39000D01*
X18500Y-39000D02*
X18750Y-39000D01*
X19000Y-39250D02*
X19000Y-39000D01*
X19000Y-36000D02*
X19000Y-35750D01*
X18750Y-39000D02*
X18500Y-38750D01*
X19250Y-18000D02*
X18500Y-18000D01*
X18500Y-18000D02*
X18500Y-21000D01*
X18500Y-21000D02*
X19500Y-21000D01*
X19500Y-21000D02*
X19500Y-18000D01*
X19500Y-18000D02*
X19250Y-18000D01*
X19000Y-17750D02*
X19000Y-18000D01*
X19000Y-21000D02*
X19000Y-21250D01*
X19250Y-18000D02*
X19500Y-18250D01*
X19250Y-23000D02*
X18500Y-23000D01*
X18500Y-23000D02*
X18500Y-26000D01*
X18500Y-26000D02*
X19500Y-26000D01*
X19500Y-26000D02*
X19500Y-23000D01*
X19500Y-23000D02*
X19250Y-23000D01*
X19000Y-22750D02*
X19000Y-23000D01*
X19000Y-26000D02*
X19000Y-26250D01*
X19250Y-23000D02*
X19500Y-23250D01*
X16750Y-43500D02*
X17500Y-43500D01*
X17500Y-43500D02*
X17500Y-40500D01*
X17500Y-40500D02*
X16500Y-40500D01*
X16500Y-40500D02*
X16500Y-43500D01*
X16500Y-43500D02*
X16750Y-43500D01*
X17000Y-43750D02*
X17000Y-43500D01*
X17000Y-40500D02*
X17000Y-40250D01*
X16750Y-43500D02*
X16500Y-43250D01*
X16750Y-39000D02*
X17500Y-39000D01*
X17500Y-39000D02*
X17500Y-36000D01*
X17500Y-36000D02*
X16500Y-36000D01*
X16500Y-36000D02*
X16500Y-39000D01*
X16500Y-39000D02*
X16750Y-39000D01*
X17000Y-39250D02*
X17000Y-39000D01*
X17000Y-36000D02*
X17000Y-35750D01*
X16750Y-39000D02*
X16500Y-38750D01*
X17250Y-18000D02*
X16500Y-18000D01*
X16500Y-18000D02*
X16500Y-21000D01*
X16500Y-21000D02*
X17500Y-21000D01*
X17500Y-21000D02*
X17500Y-18000D01*
X17500Y-18000D02*
X17250Y-18000D01*
X17000Y-17750D02*
X17000Y-18000D01*
X17000Y-21000D02*
X17000Y-21250D01*
X17250Y-18000D02*
X17500Y-18250D01*
X17250Y-23000D02*
X16500Y-23000D01*
X16500Y-23000D02*
X16500Y-26000D01*
X16500Y-26000D02*
X17500Y-26000D01*
X17500Y-26000D02*
X17500Y-23000D01*
X17500Y-23000D02*
X17250Y-23000D01*
X17000Y-22750D02*
X17000Y-23000D01*
X17000Y-26000D02*
X17000Y-26250D01*
X17250Y-23000D02*
X17500Y-23250D01*
X42250Y-27500D02*
X41500Y-27500D01*
X41500Y-27500D02*
X41500Y-30500D01*
X41500Y-30500D02*
X42500Y-30500D01*
X42500Y-30500D02*
X42500Y-27500D01*
X42500Y-27500D02*
X42250Y-27500D01*
X42000Y-27250D02*
X42000Y-27500D01*
X42000Y-30500D02*
X42000Y-30750D01*
X42250Y-27500D02*
X42500Y-27750D01*
X44500Y-26250D02*
X44500Y-27000D01*
X44500Y-27000D02*
X47500Y-27000D01*
X47500Y-27000D02*
X47500Y-26000D01*
X47500Y-26000D02*
X44500Y-26000D01*
X44500Y-26000D02*
X44500Y-26250D01*
X44250Y-26500D02*
X44500Y-26500D01*
X47500Y-26500D02*
X47750Y-26500D01*
X44500Y-26250D02*
X44750Y-26000D01*
X45500Y-38250D02*
X45500Y-37500D01*
X45500Y-37500D02*
X42500Y-37500D01*
X42500Y-37500D02*
X42500Y-38500D01*
X42500Y-38500D02*
X45500Y-38500D01*
X45500Y-38500D02*
X45500Y-38250D01*
X45750Y-38000D02*
X45500Y-38000D01*
X42500Y-38000D02*
X42250Y-38000D01*
X45500Y-38250D02*
X45250Y-38500D01*
G54D11*
X46000Y-31900D02*
X46000Y-37100D01*
X43500Y-31900D02*
X51500Y-31900D01*
X43500Y-31900D02*
X43500Y-37100D01*
X43500Y-37100D02*
X51500Y-37100D01*
X51500Y-37100D02*
X51500Y-31900D01*
X51500Y-33250D02*
X50500Y-33250D01*
X50500Y-33250D02*
X50500Y-35750D01*
X50500Y-35750D02*
X51500Y-35750D01*
X49500Y-32500D02*
X47500Y-32500D01*
X49500Y-36500D02*
X47500Y-36500D01*
X47500Y-35750D02*
X48000Y-35750D01*
X47500Y-33250D02*
X48000Y-33250D01*
X47500Y-33750D02*
X48000Y-33750D01*
X47500Y-34250D02*
X48000Y-34250D01*
X47500Y-35250D02*
X48000Y-35250D01*
X47500Y-34750D02*
X48000Y-34750D01*
X51500Y-32500D02*
X49500Y-32500D01*
X47500Y-32500D02*
X47500Y-36000D01*
X47500Y-36000D02*
X47500Y-36500D01*
X49500Y-36500D02*
X51500Y-36500D01*
X51500Y-34000D02*
X51000Y-34000D01*
X51000Y-34000D02*
X51000Y-35000D01*
X51000Y-35000D02*
X51500Y-35000D01*
G54D12*
X15500Y-22500D02*
X14500Y-22500D01*
X14500Y-22500D02*
X14500Y-20500D01*
X14500Y-20500D02*
X15500Y-20500D01*
X15500Y-20500D02*
X15500Y-22500D01*
X14500Y-23000D02*
X15500Y-23000D01*
X15500Y-23000D02*
X15500Y-25000D01*
X15500Y-25000D02*
X14500Y-25000D01*
X14500Y-25000D02*
X14500Y-23000D01*
X15500Y-38500D02*
X14500Y-38500D01*
X14500Y-38500D02*
X14500Y-36500D01*
X14500Y-36500D02*
X15500Y-36500D01*
X15500Y-36500D02*
X15500Y-38500D01*
X50500Y-26000D02*
X49500Y-26000D01*
X49500Y-26000D02*
X49500Y-24000D01*
X49500Y-24000D02*
X50500Y-24000D01*
X50500Y-24000D02*
X50500Y-26000D01*
X32500Y-17000D02*
X33500Y-17000D01*
X33500Y-17000D02*
X33500Y-19000D01*
X33500Y-19000D02*
X32500Y-19000D01*
X32500Y-19000D02*
X32500Y-17000D01*
X14500Y-39000D02*
X15500Y-39000D01*
X15500Y-39000D02*
X15500Y-41000D01*
X15500Y-41000D02*
X14500Y-41000D01*
X14500Y-41000D02*
X14500Y-39000D01*
X14500Y-25500D02*
X15500Y-25500D01*
X15500Y-25500D02*
X15500Y-30500D01*
X15500Y-30500D02*
X14500Y-30500D01*
X14500Y-30500D02*
X14500Y-25500D01*
X14500Y-26500D02*
X15500Y-26500D01*
X15500Y-36000D02*
X14500Y-36000D01*
X14500Y-36000D02*
X14500Y-31000D01*
X14500Y-31000D02*
X15500Y-31000D01*
X15500Y-31000D02*
X15500Y-36000D01*
X15500Y-35000D02*
X14500Y-35000D01*
G54D11*
X41500Y-24250D02*
X41500Y-24000D01*
X41500Y-24000D02*
X45500Y-24000D01*
X45500Y-24000D02*
X45500Y-24250D01*
X41500Y-25750D02*
X41500Y-24250D01*
X41500Y-24250D02*
X45500Y-24250D01*
X45500Y-24250D02*
X45500Y-25750D01*
X45500Y-25750D02*
X41500Y-25750D01*
X52469Y-43000D02*
X52431Y-43382D01*
X52320Y-43750D01*
X52140Y-44089D01*
X51897Y-44387D01*
X51601Y-44632D01*
X51263Y-44815D01*
X50895Y-44928D01*
X50513Y-44968D01*
X50132Y-44934D01*
X49763Y-44825D01*
X49422Y-44647D01*
X49123Y-44406D01*
X48876Y-44112D01*
X48691Y-43775D01*
X48575Y-43409D01*
X48532Y-43027D01*
X48564Y-42645D01*
X48670Y-42276D01*
X48845Y-41934D01*
X49084Y-41633D01*
X49377Y-41384D01*
X49712Y-41196D01*
X50078Y-41077D01*
X50459Y-41032D01*
X50841Y-41061D01*
X51212Y-41165D01*
X51555Y-41338D01*
X51857Y-41575D01*
X52108Y-41866D01*
X52298Y-42200D01*
X52420Y-42564D01*
X52468Y-42946D01*
X52469Y-43000D01*
X26469Y-42000D02*
X26431Y-42382D01*
X26320Y-42750D01*
X26140Y-43089D01*
X25897Y-43387D01*
X25601Y-43632D01*
X25263Y-43815D01*
X24895Y-43928D01*
X24513Y-43968D01*
X24132Y-43934D01*
X23763Y-43825D01*
X23422Y-43647D01*
X23123Y-43406D01*
X22876Y-43112D01*
X22691Y-42775D01*
X22575Y-42409D01*
X22532Y-42027D01*
X22564Y-41645D01*
X22670Y-41276D01*
X22845Y-40934D01*
X23084Y-40633D01*
X23377Y-40384D01*
X23712Y-40196D01*
X24078Y-40077D01*
X24459Y-40032D01*
X24841Y-40061D01*
X25212Y-40165D01*
X25555Y-40338D01*
X25857Y-40575D01*
X26108Y-40866D01*
X26298Y-41200D01*
X26420Y-41564D01*
X26468Y-41946D01*
X26469Y-42000D01*
X15469Y-18000D02*
X15431Y-18382D01*
X15320Y-18750D01*
X15140Y-19089D01*
X14897Y-19387D01*
X14601Y-19632D01*
X14263Y-19815D01*
X13895Y-19928D01*
X13513Y-19968D01*
X13132Y-19934D01*
X12763Y-19825D01*
X12422Y-19647D01*
X12123Y-19406D01*
X11876Y-19112D01*
X11691Y-18775D01*
X11575Y-18409D01*
X11532Y-18027D01*
X11564Y-17645D01*
X11670Y-17276D01*
X11845Y-16934D01*
X12084Y-16633D01*
X12377Y-16384D01*
X12712Y-16196D01*
X13078Y-16077D01*
X13459Y-16032D01*
X13841Y-16061D01*
X14212Y-16165D01*
X14555Y-16338D01*
X14857Y-16575D01*
X15108Y-16866D01*
X15298Y-17200D01*
X15420Y-17564D01*
X15468Y-17946D01*
X15469Y-18000D01*
G54D14*
X32624Y-42757D02*
X32643Y-42776D01*
X32662Y-42833D01*
X32662Y-42871D01*
X32643Y-42929D01*
X32605Y-42967D01*
X32567Y-42986D01*
X32490Y-43005D01*
X32433Y-43005D01*
X32357Y-42986D01*
X32319Y-42967D01*
X32281Y-42929D01*
X32262Y-42871D01*
X32262Y-42833D01*
X32281Y-42776D01*
X32300Y-42757D01*
X32662Y-42376D02*
X32662Y-42605D01*
X32662Y-42491D02*
X32262Y-42491D01*
X32319Y-42529D01*
X32357Y-42567D01*
X32376Y-42605D01*
X32300Y-42224D02*
X32281Y-42205D01*
X32262Y-42167D01*
X32262Y-42071D01*
X32281Y-42033D01*
X32300Y-42014D01*
X32338Y-41995D01*
X32376Y-41995D01*
X32433Y-42014D01*
X32662Y-42243D01*
X32662Y-41995D01*
X43434Y-17124D02*
X43415Y-17143D01*
X43358Y-17162D01*
X43320Y-17162D01*
X43262Y-17143D01*
X43224Y-17105D01*
X43205Y-17067D01*
X43186Y-16990D01*
X43186Y-16933D01*
X43205Y-16857D01*
X43224Y-16819D01*
X43262Y-16781D01*
X43320Y-16762D01*
X43358Y-16762D01*
X43415Y-16781D01*
X43434Y-16800D01*
X43662Y-16933D02*
X43624Y-16914D01*
X43605Y-16895D01*
X43586Y-16857D01*
X43586Y-16838D01*
X43605Y-16800D01*
X43624Y-16781D01*
X43662Y-16762D01*
X43739Y-16762D01*
X43777Y-16781D01*
X43796Y-16800D01*
X43815Y-16838D01*
X43815Y-16857D01*
X43796Y-16895D01*
X43777Y-16914D01*
X43739Y-16933D01*
X43662Y-16933D01*
X43624Y-16952D01*
X43605Y-16971D01*
X43586Y-17010D01*
X43586Y-17086D01*
X43605Y-17124D01*
X43624Y-17143D01*
X43662Y-17162D01*
X43739Y-17162D01*
X43777Y-17143D01*
X43796Y-17124D01*
X43815Y-17086D01*
X43815Y-17010D01*
X43796Y-16971D01*
X43777Y-16952D01*
X43739Y-16933D01*
X43512Y-29574D02*
X43912Y-29307D01*
X43512Y-29307D02*
X43912Y-29574D01*
X43912Y-28945D02*
X43912Y-29174D01*
X43912Y-29060D02*
X43512Y-29060D01*
X43569Y-29098D01*
X43607Y-29136D01*
X43626Y-29174D01*
X38434Y-17124D02*
X38415Y-17143D01*
X38358Y-17162D01*
X38320Y-17162D01*
X38262Y-17143D01*
X38224Y-17105D01*
X38205Y-17067D01*
X38186Y-16990D01*
X38186Y-16933D01*
X38205Y-16857D01*
X38224Y-16819D01*
X38262Y-16781D01*
X38320Y-16762D01*
X38358Y-16762D01*
X38415Y-16781D01*
X38434Y-16800D01*
X38567Y-16762D02*
X38834Y-16762D01*
X38662Y-17162D01*
X46184Y-28374D02*
X46165Y-28393D01*
X46108Y-28412D01*
X46070Y-28412D01*
X46012Y-28393D01*
X45974Y-28355D01*
X45955Y-28317D01*
X45936Y-28240D01*
X45936Y-28183D01*
X45955Y-28107D01*
X45974Y-28069D01*
X46012Y-28031D01*
X46070Y-28012D01*
X46108Y-28012D01*
X46165Y-28031D01*
X46184Y-28050D01*
X46336Y-28050D02*
X46355Y-28031D01*
X46393Y-28012D01*
X46489Y-28012D01*
X46527Y-28031D01*
X46546Y-28050D01*
X46565Y-28088D01*
X46565Y-28126D01*
X46546Y-28183D01*
X46317Y-28412D01*
X46565Y-28412D01*
X46184Y-30374D02*
X46165Y-30393D01*
X46108Y-30412D01*
X46070Y-30412D01*
X46012Y-30393D01*
X45974Y-30355D01*
X45955Y-30317D01*
X45936Y-30240D01*
X45936Y-30183D01*
X45955Y-30107D01*
X45974Y-30069D01*
X46012Y-30031D01*
X46070Y-30012D01*
X46108Y-30012D01*
X46165Y-30031D01*
X46184Y-30050D01*
X46565Y-30412D02*
X46336Y-30412D01*
X46450Y-30412D02*
X46450Y-30012D01*
X46412Y-30069D01*
X46374Y-30107D01*
X46336Y-30126D01*
G54D15*
X38179Y-43155D02*
X38155Y-43179D01*
X38084Y-43202D01*
X38036Y-43202D01*
X37964Y-43179D01*
X37917Y-43131D01*
X37893Y-43083D01*
X37869Y-42988D01*
X37869Y-42917D01*
X37893Y-42821D01*
X37917Y-42774D01*
X37964Y-42726D01*
X38036Y-42702D01*
X38084Y-42702D01*
X38155Y-42726D01*
X38179Y-42750D01*
X38655Y-43202D02*
X38369Y-43202D01*
X38512Y-43202D02*
X38512Y-42702D01*
X38464Y-42774D01*
X38417Y-42821D01*
X38369Y-42845D01*
X38821Y-42702D02*
X39131Y-42702D01*
X38964Y-42893D01*
X39036Y-42893D01*
X39083Y-42917D01*
X39107Y-42940D01*
X39131Y-42988D01*
X39131Y-43107D01*
X39107Y-43155D01*
X39083Y-43179D01*
X39036Y-43202D01*
X38893Y-43202D01*
X38845Y-43179D01*
X38821Y-43155D01*
X38417Y-20155D02*
X38393Y-20179D01*
X38322Y-20202D01*
X38274Y-20202D01*
X38202Y-20179D01*
X38155Y-20131D01*
X38131Y-20083D01*
X38107Y-19988D01*
X38107Y-19917D01*
X38131Y-19821D01*
X38155Y-19774D01*
X38202Y-19726D01*
X38274Y-19702D01*
X38322Y-19702D01*
X38393Y-19726D01*
X38417Y-19750D01*
X38655Y-20202D02*
X38750Y-20202D01*
X38798Y-20179D01*
X38822Y-20155D01*
X38869Y-20083D01*
X38893Y-19988D01*
X38893Y-19798D01*
X38869Y-19750D01*
X38845Y-19726D01*
X38798Y-19702D01*
X38702Y-19702D01*
X38655Y-19726D01*
X38631Y-19750D01*
X38607Y-19798D01*
X38607Y-19917D01*
X38631Y-19964D01*
X38655Y-19988D01*
X38702Y-20012D01*
X38798Y-20012D01*
X38845Y-19988D01*
X38869Y-19964D01*
X38893Y-19917D01*
X43179Y-20155D02*
X43155Y-20179D01*
X43084Y-20202D01*
X43036Y-20202D01*
X42964Y-20179D01*
X42917Y-20131D01*
X42893Y-20083D01*
X42869Y-19988D01*
X42869Y-19917D01*
X42893Y-19821D01*
X42917Y-19774D01*
X42964Y-19726D01*
X43036Y-19702D01*
X43084Y-19702D01*
X43155Y-19726D01*
X43179Y-19750D01*
X43655Y-20202D02*
X43369Y-20202D01*
X43512Y-20202D02*
X43512Y-19702D01*
X43464Y-19774D01*
X43417Y-19821D01*
X43369Y-19845D01*
X43964Y-19702D02*
X44012Y-19702D01*
X44060Y-19726D01*
X44083Y-19750D01*
X44107Y-19798D01*
X44131Y-19893D01*
X44131Y-20012D01*
X44107Y-20107D01*
X44083Y-20155D01*
X44060Y-20179D01*
X44012Y-20202D01*
X43964Y-20202D01*
X43917Y-20179D01*
X43893Y-20155D01*
X43869Y-20107D01*
X43845Y-20012D01*
X43845Y-19893D01*
X43869Y-19798D01*
X43893Y-19750D01*
X43917Y-19726D01*
X43964Y-19702D01*
X34679Y-29655D02*
X34655Y-29679D01*
X34584Y-29702D01*
X34536Y-29702D01*
X34464Y-29679D01*
X34417Y-29631D01*
X34393Y-29583D01*
X34369Y-29488D01*
X34369Y-29417D01*
X34393Y-29321D01*
X34417Y-29274D01*
X34464Y-29226D01*
X34536Y-29202D01*
X34584Y-29202D01*
X34655Y-29226D01*
X34679Y-29250D01*
X35155Y-29702D02*
X34869Y-29702D01*
X35012Y-29702D02*
X35012Y-29202D01*
X34964Y-29274D01*
X34917Y-29321D01*
X34869Y-29345D01*
X35631Y-29702D02*
X35345Y-29702D01*
X35488Y-29702D02*
X35488Y-29202D01*
X35440Y-29274D01*
X35393Y-29321D01*
X35345Y-29345D01*
G54D16*
X41558Y-34243D02*
X41558Y-33643D01*
X41701Y-33643D01*
X41786Y-33671D01*
X41844Y-33729D01*
X41872Y-33786D01*
X41901Y-33900D01*
X41901Y-33986D01*
X41872Y-34100D01*
X41844Y-34157D01*
X41786Y-34214D01*
X41701Y-34243D01*
X41558Y-34243D01*
X42129Y-33700D02*
X42158Y-33671D01*
X42215Y-33643D01*
X42358Y-33643D01*
X42415Y-33671D01*
X42444Y-33700D01*
X42472Y-33757D01*
X42472Y-33814D01*
X42444Y-33900D01*
X42101Y-34243D01*
X42472Y-34243D01*
X48058Y-23743D02*
X48058Y-23143D01*
X48201Y-23143D01*
X48286Y-23171D01*
X48344Y-23229D01*
X48372Y-23286D01*
X48401Y-23400D01*
X48401Y-23486D01*
X48372Y-23600D01*
X48344Y-23657D01*
X48286Y-23714D01*
X48201Y-23743D01*
X48058Y-23743D01*
X48972Y-23743D02*
X48629Y-23743D01*
X48801Y-23743D02*
X48801Y-23143D01*
X48744Y-23229D01*
X48686Y-23286D01*
X48629Y-23314D01*
G54D10*
X19202Y-42486D02*
X18702Y-42486D01*
X18702Y-42391D01*
X18726Y-42333D01*
X18774Y-42295D01*
X18821Y-42276D01*
X18917Y-42257D01*
X18988Y-42257D01*
X19083Y-42276D01*
X19131Y-42295D01*
X19179Y-42333D01*
X19202Y-42391D01*
X19202Y-42486D01*
X19202Y-41876D02*
X19202Y-42105D01*
X19202Y-41991D02*
X18702Y-41991D01*
X18774Y-42029D01*
X18821Y-42067D01*
X18845Y-42105D01*
X18702Y-41629D02*
X18702Y-41590D01*
X18726Y-41552D01*
X18750Y-41533D01*
X18798Y-41514D01*
X18893Y-41495D01*
X19012Y-41495D01*
X19107Y-41514D01*
X19155Y-41533D01*
X19179Y-41552D01*
X19202Y-41590D01*
X19202Y-41629D01*
X19179Y-41667D01*
X19155Y-41686D01*
X19107Y-41705D01*
X19012Y-41724D01*
X18893Y-41724D01*
X18798Y-41705D01*
X18750Y-41686D01*
X18726Y-41667D01*
X18702Y-41629D01*
X19202Y-37795D02*
X18702Y-37795D01*
X18702Y-37700D01*
X18726Y-37642D01*
X18774Y-37604D01*
X18821Y-37585D01*
X18917Y-37566D01*
X18988Y-37566D01*
X19083Y-37585D01*
X19131Y-37604D01*
X19179Y-37642D01*
X19202Y-37700D01*
X19202Y-37795D01*
X19202Y-37376D02*
X19202Y-37300D01*
X19179Y-37261D01*
X19155Y-37242D01*
X19083Y-37204D01*
X18988Y-37185D01*
X18798Y-37185D01*
X18750Y-37204D01*
X18726Y-37223D01*
X18702Y-37261D01*
X18702Y-37338D01*
X18726Y-37376D01*
X18750Y-37395D01*
X18798Y-37414D01*
X18917Y-37414D01*
X18964Y-37395D01*
X18988Y-37376D01*
X19012Y-37338D01*
X19012Y-37261D01*
X18988Y-37223D01*
X18964Y-37204D01*
X18917Y-37185D01*
X19202Y-20295D02*
X18702Y-20295D01*
X18702Y-20200D01*
X18726Y-20142D01*
X18774Y-20104D01*
X18821Y-20085D01*
X18917Y-20066D01*
X18988Y-20066D01*
X19083Y-20085D01*
X19131Y-20104D01*
X19179Y-20142D01*
X19202Y-20200D01*
X19202Y-20295D01*
X18917Y-19838D02*
X18893Y-19876D01*
X18869Y-19895D01*
X18821Y-19914D01*
X18798Y-19914D01*
X18750Y-19895D01*
X18726Y-19876D01*
X18702Y-19838D01*
X18702Y-19761D01*
X18726Y-19723D01*
X18750Y-19704D01*
X18798Y-19685D01*
X18821Y-19685D01*
X18869Y-19704D01*
X18893Y-19723D01*
X18917Y-19761D01*
X18917Y-19838D01*
X18940Y-19876D01*
X18964Y-19895D01*
X19012Y-19914D01*
X19107Y-19914D01*
X19155Y-19895D01*
X19179Y-19876D01*
X19202Y-19838D01*
X19202Y-19761D01*
X19179Y-19723D01*
X19155Y-19704D01*
X19107Y-19685D01*
X19012Y-19685D01*
X18964Y-19704D01*
X18940Y-19723D01*
X18917Y-19761D01*
X19202Y-24795D02*
X18702Y-24795D01*
X18702Y-24700D01*
X18726Y-24642D01*
X18774Y-24604D01*
X18821Y-24585D01*
X18917Y-24566D01*
X18988Y-24566D01*
X19083Y-24585D01*
X19131Y-24604D01*
X19179Y-24642D01*
X19202Y-24700D01*
X19202Y-24795D01*
X18702Y-24433D02*
X18702Y-24166D01*
X19202Y-24338D01*
X17202Y-42295D02*
X16702Y-42295D01*
X16702Y-42200D01*
X16726Y-42142D01*
X16774Y-42104D01*
X16821Y-42085D01*
X16917Y-42066D01*
X16988Y-42066D01*
X17083Y-42085D01*
X17131Y-42104D01*
X17179Y-42142D01*
X17202Y-42200D01*
X17202Y-42295D01*
X16702Y-41723D02*
X16702Y-41800D01*
X16726Y-41838D01*
X16750Y-41857D01*
X16821Y-41895D01*
X16917Y-41914D01*
X17107Y-41914D01*
X17155Y-41895D01*
X17179Y-41876D01*
X17202Y-41838D01*
X17202Y-41761D01*
X17179Y-41723D01*
X17155Y-41704D01*
X17107Y-41685D01*
X16988Y-41685D01*
X16940Y-41704D01*
X16917Y-41723D01*
X16893Y-41761D01*
X16893Y-41838D01*
X16917Y-41876D01*
X16940Y-41895D01*
X16988Y-41914D01*
X17202Y-37795D02*
X16702Y-37795D01*
X16702Y-37700D01*
X16726Y-37642D01*
X16774Y-37604D01*
X16821Y-37585D01*
X16917Y-37566D01*
X16988Y-37566D01*
X17083Y-37585D01*
X17131Y-37604D01*
X17179Y-37642D01*
X17202Y-37700D01*
X17202Y-37795D01*
X16702Y-37204D02*
X16702Y-37395D01*
X16940Y-37414D01*
X16917Y-37395D01*
X16893Y-37357D01*
X16893Y-37261D01*
X16917Y-37223D01*
X16940Y-37204D01*
X16988Y-37185D01*
X17107Y-37185D01*
X17155Y-37204D01*
X17179Y-37223D01*
X17202Y-37261D01*
X17202Y-37357D01*
X17179Y-37395D01*
X17155Y-37414D01*
X17202Y-20295D02*
X16702Y-20295D01*
X16702Y-20200D01*
X16726Y-20142D01*
X16774Y-20104D01*
X16821Y-20085D01*
X16917Y-20066D01*
X16988Y-20066D01*
X17083Y-20085D01*
X17131Y-20104D01*
X17179Y-20142D01*
X17202Y-20200D01*
X17202Y-20295D01*
X16869Y-19723D02*
X17202Y-19723D01*
X16679Y-19819D02*
X17036Y-19914D01*
X17036Y-19666D01*
X17202Y-24795D02*
X16702Y-24795D01*
X16702Y-24700D01*
X16726Y-24642D01*
X16774Y-24604D01*
X16821Y-24585D01*
X16917Y-24566D01*
X16988Y-24566D01*
X17083Y-24585D01*
X17131Y-24604D01*
X17179Y-24642D01*
X17202Y-24700D01*
X17202Y-24795D01*
X16702Y-24433D02*
X16702Y-24185D01*
X16893Y-24319D01*
X16893Y-24261D01*
X16917Y-24223D01*
X16940Y-24204D01*
X16988Y-24185D01*
X17107Y-24185D01*
X17155Y-24204D01*
X17179Y-24223D01*
X17202Y-24261D01*
X17202Y-24376D01*
X17179Y-24414D01*
X17155Y-24433D01*
X42202Y-29066D02*
X41964Y-29200D01*
X42202Y-29295D02*
X41702Y-29295D01*
X41702Y-29142D01*
X41726Y-29104D01*
X41750Y-29085D01*
X41798Y-29066D01*
X41869Y-29066D01*
X41917Y-29085D01*
X41940Y-29104D01*
X41964Y-29142D01*
X41964Y-29295D01*
X41702Y-28933D02*
X41702Y-28685D01*
X41893Y-28819D01*
X41893Y-28761D01*
X41917Y-28723D01*
X41940Y-28704D01*
X41988Y-28685D01*
X42107Y-28685D01*
X42155Y-28704D01*
X42179Y-28723D01*
X42202Y-28761D01*
X42202Y-28876D01*
X42179Y-28914D01*
X42155Y-28933D01*
X45934Y-26702D02*
X45800Y-26464D01*
X45705Y-26702D02*
X45705Y-26202D01*
X45858Y-26202D01*
X45896Y-26226D01*
X45915Y-26250D01*
X45934Y-26298D01*
X45934Y-26369D01*
X45915Y-26417D01*
X45896Y-26440D01*
X45858Y-26464D01*
X45705Y-26464D01*
X46086Y-26250D02*
X46105Y-26226D01*
X46143Y-26202D01*
X46239Y-26202D01*
X46277Y-26226D01*
X46296Y-26250D01*
X46315Y-26298D01*
X46315Y-26345D01*
X46296Y-26417D01*
X46067Y-26702D01*
X46315Y-26702D01*
X43934Y-38202D02*
X43800Y-37964D01*
X43705Y-38202D02*
X43705Y-37702D01*
X43858Y-37702D01*
X43896Y-37726D01*
X43915Y-37750D01*
X43934Y-37798D01*
X43934Y-37869D01*
X43915Y-37917D01*
X43896Y-37940D01*
X43858Y-37964D01*
X43705Y-37964D01*
X44315Y-38202D02*
X44086Y-38202D01*
X44200Y-38202D02*
X44200Y-37702D01*
X44162Y-37774D01*
X44124Y-37821D01*
X44086Y-37845D01*
M02*
