G04 (created by PCBNEW (20100406 SVN-R2508)-final) date 07/03/2016 07:58:36*
G01*
G70*
G90*
%MOIN*%
G04 Gerber Fmt 3.4, Leading zero omitted, Abs format*
%FSLAX34Y34*%
G04 APERTURE LIST*
%ADD10C,0.001000*%
%ADD11C,0.015000*%
%ADD12C,0.008000*%
G04 APERTURE END LIST*
G54D10*
G54D11*
X12000Y-45500D02*
X11000Y-45500D01*
X11000Y-15500D02*
X12000Y-15500D01*
X53000Y-45500D02*
X53000Y-15500D01*
X12000Y-45500D02*
X53000Y-45500D01*
X11000Y-15500D02*
X11000Y-45500D01*
X53000Y-15500D02*
X12000Y-15500D01*
G54D10*
X32382Y-41382D02*
X32618Y-41618D01*
X32618Y-41382D02*
X32382Y-41618D01*
X32382Y-43382D02*
X32618Y-43618D01*
X32618Y-43382D02*
X32382Y-43618D01*
X33882Y-28382D02*
X34118Y-28618D01*
X34118Y-28382D02*
X33882Y-28618D01*
X33882Y-30382D02*
X34118Y-30618D01*
X34118Y-30382D02*
X33882Y-30618D01*
X37382Y-16882D02*
X37618Y-17118D01*
X37618Y-16882D02*
X37382Y-17118D01*
X37382Y-20882D02*
X37618Y-21118D01*
X37618Y-20882D02*
X37382Y-21118D01*
X37382Y-41882D02*
X37618Y-42118D01*
X37618Y-41882D02*
X37382Y-42118D01*
X39382Y-16882D02*
X39618Y-17118D01*
X39618Y-16882D02*
X39382Y-17118D01*
X39382Y-20882D02*
X39618Y-21118D01*
X39618Y-20882D02*
X39382Y-21118D01*
X39382Y-41882D02*
X39618Y-42118D01*
X39618Y-41882D02*
X39382Y-42118D01*
X41382Y-32382D02*
X41618Y-32618D01*
X41618Y-32382D02*
X41382Y-32618D01*
X41882Y-27132D02*
X42118Y-27368D01*
X42118Y-27132D02*
X41882Y-27368D01*
X41882Y-30632D02*
X42118Y-30868D01*
X42118Y-30632D02*
X41882Y-30868D01*
X42132Y-37882D02*
X42368Y-38118D01*
X42368Y-37882D02*
X42132Y-38118D01*
X42382Y-16882D02*
X42618Y-17118D01*
X42618Y-16882D02*
X42382Y-17118D01*
X42382Y-20882D02*
X42618Y-21118D01*
X42618Y-20882D02*
X42382Y-21118D01*
X42382Y-32382D02*
X42618Y-32618D01*
X42618Y-32382D02*
X42382Y-32618D01*
X43632Y-28132D02*
X43868Y-28368D01*
X43868Y-28132D02*
X43632Y-28368D01*
X43632Y-30132D02*
X43868Y-30368D01*
X43868Y-30132D02*
X43632Y-30368D01*
X44132Y-26382D02*
X44368Y-26618D01*
X44368Y-26382D02*
X44132Y-26618D01*
X44382Y-16882D02*
X44618Y-17118D01*
X44618Y-16882D02*
X44382Y-17118D01*
X44382Y-20882D02*
X44618Y-21118D01*
X44618Y-20882D02*
X44382Y-21118D01*
X45132Y-28132D02*
X45368Y-28368D01*
X45368Y-28132D02*
X45132Y-28368D01*
X45132Y-30132D02*
X45368Y-30368D01*
X45368Y-30132D02*
X45132Y-30368D01*
X45632Y-37882D02*
X45868Y-38118D01*
X45868Y-37882D02*
X45632Y-38118D01*
X46382Y-19782D02*
X46618Y-20018D01*
X46618Y-19782D02*
X46382Y-20018D01*
X46613Y-20412D02*
X46613Y-19388D01*
X46387Y-20412D02*
X46387Y-19388D01*
X46613Y-19388D02*
X46612Y-19379D01*
X46611Y-19369D01*
X46609Y-19359D01*
X46606Y-19350D01*
X46602Y-19341D01*
X46597Y-19332D01*
X46592Y-19324D01*
X46586Y-19316D01*
X46579Y-19309D01*
X46572Y-19302D01*
X46564Y-19296D01*
X46556Y-19291D01*
X46547Y-19286D01*
X46538Y-19282D01*
X46529Y-19279D01*
X46519Y-19277D01*
X46509Y-19276D01*
X46500Y-19275D01*
X46491Y-19276D01*
X46481Y-19277D01*
X46471Y-19279D01*
X46462Y-19282D01*
X46453Y-19286D01*
X46444Y-19291D01*
X46436Y-19296D01*
X46428Y-19302D01*
X46421Y-19309D01*
X46414Y-19316D01*
X46408Y-19324D01*
X46403Y-19332D01*
X46398Y-19341D01*
X46394Y-19350D01*
X46391Y-19359D01*
X46389Y-19369D01*
X46388Y-19379D01*
X46387Y-19388D01*
X46387Y-20412D02*
X46388Y-20421D01*
X46389Y-20431D01*
X46391Y-20441D01*
X46394Y-20450D01*
X46398Y-20459D01*
X46403Y-20468D01*
X46408Y-20476D01*
X46414Y-20484D01*
X46421Y-20491D01*
X46428Y-20498D01*
X46436Y-20504D01*
X46444Y-20509D01*
X46453Y-20514D01*
X46462Y-20518D01*
X46471Y-20521D01*
X46481Y-20523D01*
X46491Y-20524D01*
X46500Y-20525D01*
X46509Y-20524D01*
X46519Y-20523D01*
X46529Y-20521D01*
X46538Y-20518D01*
X46547Y-20514D01*
X46556Y-20509D01*
X46564Y-20504D01*
X46572Y-20498D01*
X46579Y-20491D01*
X46586Y-20484D01*
X46592Y-20476D01*
X46597Y-20468D01*
X46602Y-20459D01*
X46606Y-20450D01*
X46609Y-20441D01*
X46611Y-20431D01*
X46612Y-20421D01*
X46613Y-20412D01*
X47132Y-28132D02*
X47368Y-28368D01*
X47368Y-28132D02*
X47132Y-28368D01*
X47132Y-30132D02*
X47368Y-30368D01*
X47368Y-30132D02*
X47132Y-30368D01*
X47382Y-23882D02*
X47618Y-24118D01*
X47618Y-23882D02*
X47382Y-24118D01*
X47382Y-24882D02*
X47618Y-25118D01*
X47618Y-24882D02*
X47382Y-25118D01*
X47632Y-17882D02*
X47868Y-18118D01*
X47868Y-17882D02*
X47632Y-18118D01*
X48262Y-17887D02*
X47238Y-17887D01*
X48262Y-18113D02*
X47238Y-18113D01*
X47238Y-17887D02*
X47229Y-17888D01*
X47219Y-17889D01*
X47209Y-17891D01*
X47200Y-17894D01*
X47191Y-17898D01*
X47182Y-17903D01*
X47174Y-17908D01*
X47166Y-17914D01*
X47159Y-17921D01*
X47152Y-17928D01*
X47146Y-17936D01*
X47141Y-17944D01*
X47136Y-17953D01*
X47132Y-17962D01*
X47129Y-17971D01*
X47127Y-17981D01*
X47126Y-17991D01*
X47125Y-18000D01*
X47126Y-18009D01*
X47127Y-18019D01*
X47129Y-18029D01*
X47132Y-18038D01*
X47136Y-18047D01*
X47141Y-18056D01*
X47146Y-18064D01*
X47152Y-18072D01*
X47159Y-18079D01*
X47166Y-18086D01*
X47174Y-18092D01*
X47182Y-18097D01*
X47191Y-18102D01*
X47200Y-18106D01*
X47209Y-18109D01*
X47219Y-18111D01*
X47229Y-18112D01*
X47238Y-18113D01*
X48262Y-18113D02*
X48271Y-18112D01*
X48281Y-18111D01*
X48291Y-18109D01*
X48300Y-18106D01*
X48309Y-18102D01*
X48318Y-18097D01*
X48326Y-18092D01*
X48334Y-18086D01*
X48341Y-18079D01*
X48348Y-18072D01*
X48354Y-18064D01*
X48359Y-18056D01*
X48364Y-18047D01*
X48368Y-18038D01*
X48371Y-18029D01*
X48373Y-18019D01*
X48374Y-18009D01*
X48375Y-18000D01*
X48374Y-17991D01*
X48373Y-17981D01*
X48371Y-17971D01*
X48368Y-17962D01*
X48364Y-17953D01*
X48359Y-17944D01*
X48354Y-17936D01*
X48348Y-17928D01*
X48341Y-17921D01*
X48334Y-17914D01*
X48326Y-17908D01*
X48318Y-17903D01*
X48309Y-17898D01*
X48300Y-17894D01*
X48291Y-17891D01*
X48281Y-17889D01*
X48271Y-17888D01*
X48262Y-17887D01*
X47632Y-26382D02*
X47868Y-26618D01*
X47868Y-26382D02*
X47632Y-26618D01*
X49182Y-19782D02*
X49418Y-20018D01*
X49418Y-19782D02*
X49182Y-20018D01*
X49413Y-20412D02*
X49413Y-19388D01*
X49187Y-20412D02*
X49187Y-19388D01*
X49413Y-19388D02*
X49412Y-19379D01*
X49411Y-19369D01*
X49409Y-19359D01*
X49406Y-19350D01*
X49402Y-19341D01*
X49397Y-19332D01*
X49392Y-19324D01*
X49386Y-19316D01*
X49379Y-19309D01*
X49372Y-19302D01*
X49364Y-19296D01*
X49356Y-19291D01*
X49347Y-19286D01*
X49338Y-19282D01*
X49329Y-19279D01*
X49319Y-19277D01*
X49309Y-19276D01*
X49300Y-19275D01*
X49291Y-19276D01*
X49281Y-19277D01*
X49271Y-19279D01*
X49262Y-19282D01*
X49253Y-19286D01*
X49244Y-19291D01*
X49236Y-19296D01*
X49228Y-19302D01*
X49221Y-19309D01*
X49214Y-19316D01*
X49208Y-19324D01*
X49203Y-19332D01*
X49198Y-19341D01*
X49194Y-19350D01*
X49191Y-19359D01*
X49189Y-19369D01*
X49188Y-19379D01*
X49187Y-19388D01*
X49187Y-20412D02*
X49188Y-20421D01*
X49189Y-20431D01*
X49191Y-20441D01*
X49194Y-20450D01*
X49198Y-20459D01*
X49203Y-20468D01*
X49208Y-20476D01*
X49214Y-20484D01*
X49221Y-20491D01*
X49228Y-20498D01*
X49236Y-20504D01*
X49244Y-20509D01*
X49253Y-20514D01*
X49262Y-20518D01*
X49271Y-20521D01*
X49281Y-20523D01*
X49291Y-20524D01*
X49300Y-20525D01*
X49309Y-20524D01*
X49319Y-20523D01*
X49329Y-20521D01*
X49338Y-20518D01*
X49347Y-20514D01*
X49356Y-20509D01*
X49364Y-20504D01*
X49372Y-20498D01*
X49379Y-20491D01*
X49386Y-20484D01*
X49392Y-20476D01*
X49397Y-20468D01*
X49402Y-20459D01*
X49406Y-20450D01*
X49409Y-20441D01*
X49411Y-20431D01*
X49412Y-20421D01*
X49413Y-20412D01*
X49882Y-38882D02*
X50118Y-39118D01*
X50118Y-38882D02*
X49882Y-39118D01*
X50382Y-27382D02*
X50618Y-27618D01*
X50618Y-27382D02*
X50382Y-27618D01*
X50382Y-28882D02*
X50618Y-29118D01*
X50618Y-28882D02*
X50382Y-29118D01*
X50382Y-30382D02*
X50618Y-30618D01*
X50618Y-30382D02*
X50382Y-30618D01*
X14157Y-42500D02*
X14154Y-42530D01*
X14145Y-42559D01*
X14130Y-42586D01*
X14111Y-42610D01*
X14087Y-42630D01*
X14060Y-42644D01*
X14031Y-42653D01*
X14001Y-42656D01*
X13971Y-42654D01*
X13942Y-42645D01*
X13915Y-42631D01*
X13891Y-42612D01*
X13871Y-42588D01*
X13856Y-42561D01*
X13847Y-42532D01*
X13844Y-42502D01*
X13846Y-42472D01*
X13855Y-42443D01*
X13869Y-42415D01*
X13888Y-42391D01*
X13911Y-42372D01*
X13938Y-42357D01*
X13967Y-42347D01*
X13997Y-42344D01*
X14027Y-42346D01*
X14056Y-42354D01*
X14084Y-42368D01*
X14108Y-42387D01*
X14128Y-42410D01*
X14143Y-42437D01*
X14153Y-42466D01*
X14156Y-42496D01*
X14157Y-42500D01*
X17157Y-17750D02*
X17154Y-17780D01*
X17145Y-17809D01*
X17130Y-17836D01*
X17111Y-17860D01*
X17087Y-17880D01*
X17060Y-17894D01*
X17031Y-17903D01*
X17001Y-17906D01*
X16971Y-17904D01*
X16942Y-17895D01*
X16915Y-17881D01*
X16891Y-17862D01*
X16871Y-17838D01*
X16856Y-17811D01*
X16847Y-17782D01*
X16844Y-17752D01*
X16846Y-17722D01*
X16855Y-17693D01*
X16869Y-17665D01*
X16888Y-17641D01*
X16911Y-17622D01*
X16938Y-17607D01*
X16967Y-17597D01*
X16997Y-17594D01*
X17027Y-17596D01*
X17056Y-17604D01*
X17084Y-17618D01*
X17108Y-17637D01*
X17128Y-17660D01*
X17143Y-17687D01*
X17153Y-17716D01*
X17156Y-17746D01*
X17157Y-17750D01*
X17157Y-19000D02*
X17154Y-19030D01*
X17145Y-19059D01*
X17130Y-19086D01*
X17111Y-19110D01*
X17087Y-19130D01*
X17060Y-19144D01*
X17031Y-19153D01*
X17001Y-19156D01*
X16971Y-19154D01*
X16942Y-19145D01*
X16915Y-19131D01*
X16891Y-19112D01*
X16871Y-19088D01*
X16856Y-19061D01*
X16847Y-19032D01*
X16844Y-19002D01*
X16846Y-18972D01*
X16855Y-18943D01*
X16869Y-18915D01*
X16888Y-18891D01*
X16911Y-18872D01*
X16938Y-18857D01*
X16967Y-18847D01*
X16997Y-18844D01*
X17027Y-18846D01*
X17056Y-18854D01*
X17084Y-18868D01*
X17108Y-18887D01*
X17128Y-18910D01*
X17143Y-18937D01*
X17153Y-18966D01*
X17156Y-18996D01*
X17157Y-19000D01*
X17157Y-21250D02*
X17154Y-21280D01*
X17145Y-21309D01*
X17130Y-21336D01*
X17111Y-21360D01*
X17087Y-21380D01*
X17060Y-21394D01*
X17031Y-21403D01*
X17001Y-21406D01*
X16971Y-21404D01*
X16942Y-21395D01*
X16915Y-21381D01*
X16891Y-21362D01*
X16871Y-21338D01*
X16856Y-21311D01*
X16847Y-21282D01*
X16844Y-21252D01*
X16846Y-21222D01*
X16855Y-21193D01*
X16869Y-21165D01*
X16888Y-21141D01*
X16911Y-21122D01*
X16938Y-21107D01*
X16967Y-21097D01*
X16997Y-21094D01*
X17027Y-21096D01*
X17056Y-21104D01*
X17084Y-21118D01*
X17108Y-21137D01*
X17128Y-21160D01*
X17143Y-21187D01*
X17153Y-21216D01*
X17156Y-21246D01*
X17157Y-21250D01*
X17157Y-22750D02*
X17154Y-22780D01*
X17145Y-22809D01*
X17130Y-22836D01*
X17111Y-22860D01*
X17087Y-22880D01*
X17060Y-22894D01*
X17031Y-22903D01*
X17001Y-22906D01*
X16971Y-22904D01*
X16942Y-22895D01*
X16915Y-22881D01*
X16891Y-22862D01*
X16871Y-22838D01*
X16856Y-22811D01*
X16847Y-22782D01*
X16844Y-22752D01*
X16846Y-22722D01*
X16855Y-22693D01*
X16869Y-22665D01*
X16888Y-22641D01*
X16911Y-22622D01*
X16938Y-22607D01*
X16967Y-22597D01*
X16997Y-22594D01*
X17027Y-22596D01*
X17056Y-22604D01*
X17084Y-22618D01*
X17108Y-22637D01*
X17128Y-22660D01*
X17143Y-22687D01*
X17153Y-22716D01*
X17156Y-22746D01*
X17157Y-22750D01*
X17157Y-26250D02*
X17154Y-26280D01*
X17145Y-26309D01*
X17130Y-26336D01*
X17111Y-26360D01*
X17087Y-26380D01*
X17060Y-26394D01*
X17031Y-26403D01*
X17001Y-26406D01*
X16971Y-26404D01*
X16942Y-26395D01*
X16915Y-26381D01*
X16891Y-26362D01*
X16871Y-26338D01*
X16856Y-26311D01*
X16847Y-26282D01*
X16844Y-26252D01*
X16846Y-26222D01*
X16855Y-26193D01*
X16869Y-26165D01*
X16888Y-26141D01*
X16911Y-26122D01*
X16938Y-26107D01*
X16967Y-26097D01*
X16997Y-26094D01*
X17027Y-26096D01*
X17056Y-26104D01*
X17084Y-26118D01*
X17108Y-26137D01*
X17128Y-26160D01*
X17143Y-26187D01*
X17153Y-26216D01*
X17156Y-26246D01*
X17157Y-26250D01*
X17157Y-35750D02*
X17154Y-35780D01*
X17145Y-35809D01*
X17130Y-35836D01*
X17111Y-35860D01*
X17087Y-35880D01*
X17060Y-35894D01*
X17031Y-35903D01*
X17001Y-35906D01*
X16971Y-35904D01*
X16942Y-35895D01*
X16915Y-35881D01*
X16891Y-35862D01*
X16871Y-35838D01*
X16856Y-35811D01*
X16847Y-35782D01*
X16844Y-35752D01*
X16846Y-35722D01*
X16855Y-35693D01*
X16869Y-35665D01*
X16888Y-35641D01*
X16911Y-35622D01*
X16938Y-35607D01*
X16967Y-35597D01*
X16997Y-35594D01*
X17027Y-35596D01*
X17056Y-35604D01*
X17084Y-35618D01*
X17108Y-35637D01*
X17128Y-35660D01*
X17143Y-35687D01*
X17153Y-35716D01*
X17156Y-35746D01*
X17157Y-35750D01*
X17157Y-39250D02*
X17154Y-39280D01*
X17145Y-39309D01*
X17130Y-39336D01*
X17111Y-39360D01*
X17087Y-39380D01*
X17060Y-39394D01*
X17031Y-39403D01*
X17001Y-39406D01*
X16971Y-39404D01*
X16942Y-39395D01*
X16915Y-39381D01*
X16891Y-39362D01*
X16871Y-39338D01*
X16856Y-39311D01*
X16847Y-39282D01*
X16844Y-39252D01*
X16846Y-39222D01*
X16855Y-39193D01*
X16869Y-39165D01*
X16888Y-39141D01*
X16911Y-39122D01*
X16938Y-39107D01*
X16967Y-39097D01*
X16997Y-39094D01*
X17027Y-39096D01*
X17056Y-39104D01*
X17084Y-39118D01*
X17108Y-39137D01*
X17128Y-39160D01*
X17143Y-39187D01*
X17153Y-39216D01*
X17156Y-39246D01*
X17157Y-39250D01*
X17157Y-40250D02*
X17154Y-40280D01*
X17145Y-40309D01*
X17130Y-40336D01*
X17111Y-40360D01*
X17087Y-40380D01*
X17060Y-40394D01*
X17031Y-40403D01*
X17001Y-40406D01*
X16971Y-40404D01*
X16942Y-40395D01*
X16915Y-40381D01*
X16891Y-40362D01*
X16871Y-40338D01*
X16856Y-40311D01*
X16847Y-40282D01*
X16844Y-40252D01*
X16846Y-40222D01*
X16855Y-40193D01*
X16869Y-40165D01*
X16888Y-40141D01*
X16911Y-40122D01*
X16938Y-40107D01*
X16967Y-40097D01*
X16997Y-40094D01*
X17027Y-40096D01*
X17056Y-40104D01*
X17084Y-40118D01*
X17108Y-40137D01*
X17128Y-40160D01*
X17143Y-40187D01*
X17153Y-40216D01*
X17156Y-40246D01*
X17157Y-40250D01*
X17157Y-43750D02*
X17154Y-43780D01*
X17145Y-43809D01*
X17130Y-43836D01*
X17111Y-43860D01*
X17087Y-43880D01*
X17060Y-43894D01*
X17031Y-43903D01*
X17001Y-43906D01*
X16971Y-43904D01*
X16942Y-43895D01*
X16915Y-43881D01*
X16891Y-43862D01*
X16871Y-43838D01*
X16856Y-43811D01*
X16847Y-43782D01*
X16844Y-43752D01*
X16846Y-43722D01*
X16855Y-43693D01*
X16869Y-43665D01*
X16888Y-43641D01*
X16911Y-43622D01*
X16938Y-43607D01*
X16967Y-43597D01*
X16997Y-43594D01*
X17027Y-43596D01*
X17056Y-43604D01*
X17084Y-43618D01*
X17108Y-43637D01*
X17128Y-43660D01*
X17143Y-43687D01*
X17153Y-43716D01*
X17156Y-43746D01*
X17157Y-43750D01*
X19157Y-17750D02*
X19154Y-17780D01*
X19145Y-17809D01*
X19130Y-17836D01*
X19111Y-17860D01*
X19087Y-17880D01*
X19060Y-17894D01*
X19031Y-17903D01*
X19001Y-17906D01*
X18971Y-17904D01*
X18942Y-17895D01*
X18915Y-17881D01*
X18891Y-17862D01*
X18871Y-17838D01*
X18856Y-17811D01*
X18847Y-17782D01*
X18844Y-17752D01*
X18846Y-17722D01*
X18855Y-17693D01*
X18869Y-17665D01*
X18888Y-17641D01*
X18911Y-17622D01*
X18938Y-17607D01*
X18967Y-17597D01*
X18997Y-17594D01*
X19027Y-17596D01*
X19056Y-17604D01*
X19084Y-17618D01*
X19108Y-17637D01*
X19128Y-17660D01*
X19143Y-17687D01*
X19153Y-17716D01*
X19156Y-17746D01*
X19157Y-17750D01*
X19157Y-21250D02*
X19154Y-21280D01*
X19145Y-21309D01*
X19130Y-21336D01*
X19111Y-21360D01*
X19087Y-21380D01*
X19060Y-21394D01*
X19031Y-21403D01*
X19001Y-21406D01*
X18971Y-21404D01*
X18942Y-21395D01*
X18915Y-21381D01*
X18891Y-21362D01*
X18871Y-21338D01*
X18856Y-21311D01*
X18847Y-21282D01*
X18844Y-21252D01*
X18846Y-21222D01*
X18855Y-21193D01*
X18869Y-21165D01*
X18888Y-21141D01*
X18911Y-21122D01*
X18938Y-21107D01*
X18967Y-21097D01*
X18997Y-21094D01*
X19027Y-21096D01*
X19056Y-21104D01*
X19084Y-21118D01*
X19108Y-21137D01*
X19128Y-21160D01*
X19143Y-21187D01*
X19153Y-21216D01*
X19156Y-21246D01*
X19157Y-21250D01*
X19157Y-22750D02*
X19154Y-22780D01*
X19145Y-22809D01*
X19130Y-22836D01*
X19111Y-22860D01*
X19087Y-22880D01*
X19060Y-22894D01*
X19031Y-22903D01*
X19001Y-22906D01*
X18971Y-22904D01*
X18942Y-22895D01*
X18915Y-22881D01*
X18891Y-22862D01*
X18871Y-22838D01*
X18856Y-22811D01*
X18847Y-22782D01*
X18844Y-22752D01*
X18846Y-22722D01*
X18855Y-22693D01*
X18869Y-22665D01*
X18888Y-22641D01*
X18911Y-22622D01*
X18938Y-22607D01*
X18967Y-22597D01*
X18997Y-22594D01*
X19027Y-22596D01*
X19056Y-22604D01*
X19084Y-22618D01*
X19108Y-22637D01*
X19128Y-22660D01*
X19143Y-22687D01*
X19153Y-22716D01*
X19156Y-22746D01*
X19157Y-22750D01*
X19157Y-26250D02*
X19154Y-26280D01*
X19145Y-26309D01*
X19130Y-26336D01*
X19111Y-26360D01*
X19087Y-26380D01*
X19060Y-26394D01*
X19031Y-26403D01*
X19001Y-26406D01*
X18971Y-26404D01*
X18942Y-26395D01*
X18915Y-26381D01*
X18891Y-26362D01*
X18871Y-26338D01*
X18856Y-26311D01*
X18847Y-26282D01*
X18844Y-26252D01*
X18846Y-26222D01*
X18855Y-26193D01*
X18869Y-26165D01*
X18888Y-26141D01*
X18911Y-26122D01*
X18938Y-26107D01*
X18967Y-26097D01*
X18997Y-26094D01*
X19027Y-26096D01*
X19056Y-26104D01*
X19084Y-26118D01*
X19108Y-26137D01*
X19128Y-26160D01*
X19143Y-26187D01*
X19153Y-26216D01*
X19156Y-26246D01*
X19157Y-26250D01*
X19157Y-35750D02*
X19154Y-35780D01*
X19145Y-35809D01*
X19130Y-35836D01*
X19111Y-35860D01*
X19087Y-35880D01*
X19060Y-35894D01*
X19031Y-35903D01*
X19001Y-35906D01*
X18971Y-35904D01*
X18942Y-35895D01*
X18915Y-35881D01*
X18891Y-35862D01*
X18871Y-35838D01*
X18856Y-35811D01*
X18847Y-35782D01*
X18844Y-35752D01*
X18846Y-35722D01*
X18855Y-35693D01*
X18869Y-35665D01*
X18888Y-35641D01*
X18911Y-35622D01*
X18938Y-35607D01*
X18967Y-35597D01*
X18997Y-35594D01*
X19027Y-35596D01*
X19056Y-35604D01*
X19084Y-35618D01*
X19108Y-35637D01*
X19128Y-35660D01*
X19143Y-35687D01*
X19153Y-35716D01*
X19156Y-35746D01*
X19157Y-35750D01*
X19157Y-39250D02*
X19154Y-39280D01*
X19145Y-39309D01*
X19130Y-39336D01*
X19111Y-39360D01*
X19087Y-39380D01*
X19060Y-39394D01*
X19031Y-39403D01*
X19001Y-39406D01*
X18971Y-39404D01*
X18942Y-39395D01*
X18915Y-39381D01*
X18891Y-39362D01*
X18871Y-39338D01*
X18856Y-39311D01*
X18847Y-39282D01*
X18844Y-39252D01*
X18846Y-39222D01*
X18855Y-39193D01*
X18869Y-39165D01*
X18888Y-39141D01*
X18911Y-39122D01*
X18938Y-39107D01*
X18967Y-39097D01*
X18997Y-39094D01*
X19027Y-39096D01*
X19056Y-39104D01*
X19084Y-39118D01*
X19108Y-39137D01*
X19128Y-39160D01*
X19143Y-39187D01*
X19153Y-39216D01*
X19156Y-39246D01*
X19157Y-39250D01*
X19157Y-40250D02*
X19154Y-40280D01*
X19145Y-40309D01*
X19130Y-40336D01*
X19111Y-40360D01*
X19087Y-40380D01*
X19060Y-40394D01*
X19031Y-40403D01*
X19001Y-40406D01*
X18971Y-40404D01*
X18942Y-40395D01*
X18915Y-40381D01*
X18891Y-40362D01*
X18871Y-40338D01*
X18856Y-40311D01*
X18847Y-40282D01*
X18844Y-40252D01*
X18846Y-40222D01*
X18855Y-40193D01*
X18869Y-40165D01*
X18888Y-40141D01*
X18911Y-40122D01*
X18938Y-40107D01*
X18967Y-40097D01*
X18997Y-40094D01*
X19027Y-40096D01*
X19056Y-40104D01*
X19084Y-40118D01*
X19108Y-40137D01*
X19128Y-40160D01*
X19143Y-40187D01*
X19153Y-40216D01*
X19156Y-40246D01*
X19157Y-40250D01*
X19157Y-43750D02*
X19154Y-43780D01*
X19145Y-43809D01*
X19130Y-43836D01*
X19111Y-43860D01*
X19087Y-43880D01*
X19060Y-43894D01*
X19031Y-43903D01*
X19001Y-43906D01*
X18971Y-43904D01*
X18942Y-43895D01*
X18915Y-43881D01*
X18891Y-43862D01*
X18871Y-43838D01*
X18856Y-43811D01*
X18847Y-43782D01*
X18844Y-43752D01*
X18846Y-43722D01*
X18855Y-43693D01*
X18869Y-43665D01*
X18888Y-43641D01*
X18911Y-43622D01*
X18938Y-43607D01*
X18967Y-43597D01*
X18997Y-43594D01*
X19027Y-43596D01*
X19056Y-43604D01*
X19084Y-43618D01*
X19108Y-43637D01*
X19128Y-43660D01*
X19143Y-43687D01*
X19153Y-43716D01*
X19156Y-43746D01*
X19157Y-43750D01*
X19657Y-19000D02*
X19654Y-19030D01*
X19645Y-19059D01*
X19630Y-19086D01*
X19611Y-19110D01*
X19587Y-19130D01*
X19560Y-19144D01*
X19531Y-19153D01*
X19501Y-19156D01*
X19471Y-19154D01*
X19442Y-19145D01*
X19415Y-19131D01*
X19391Y-19112D01*
X19371Y-19088D01*
X19356Y-19061D01*
X19347Y-19032D01*
X19344Y-19002D01*
X19346Y-18972D01*
X19355Y-18943D01*
X19369Y-18915D01*
X19388Y-18891D01*
X19411Y-18872D01*
X19438Y-18857D01*
X19467Y-18847D01*
X19497Y-18844D01*
X19527Y-18846D01*
X19556Y-18854D01*
X19584Y-18868D01*
X19608Y-18887D01*
X19628Y-18910D01*
X19643Y-18937D01*
X19653Y-18966D01*
X19656Y-18996D01*
X19657Y-19000D01*
X20657Y-42500D02*
X20654Y-42530D01*
X20645Y-42559D01*
X20630Y-42586D01*
X20611Y-42610D01*
X20587Y-42630D01*
X20560Y-42644D01*
X20531Y-42653D01*
X20501Y-42656D01*
X20471Y-42654D01*
X20442Y-42645D01*
X20415Y-42631D01*
X20391Y-42612D01*
X20371Y-42588D01*
X20356Y-42561D01*
X20347Y-42532D01*
X20344Y-42502D01*
X20346Y-42472D01*
X20355Y-42443D01*
X20369Y-42415D01*
X20388Y-42391D01*
X20411Y-42372D01*
X20438Y-42357D01*
X20467Y-42347D01*
X20497Y-42344D01*
X20527Y-42346D01*
X20556Y-42354D01*
X20584Y-42368D01*
X20608Y-42387D01*
X20628Y-42410D01*
X20643Y-42437D01*
X20653Y-42466D01*
X20656Y-42496D01*
X20657Y-42500D01*
X30657Y-27000D02*
X30654Y-27030D01*
X30645Y-27059D01*
X30630Y-27086D01*
X30611Y-27110D01*
X30587Y-27130D01*
X30560Y-27144D01*
X30531Y-27153D01*
X30501Y-27156D01*
X30471Y-27154D01*
X30442Y-27145D01*
X30415Y-27131D01*
X30391Y-27112D01*
X30371Y-27088D01*
X30356Y-27061D01*
X30347Y-27032D01*
X30344Y-27002D01*
X30346Y-26972D01*
X30355Y-26943D01*
X30369Y-26915D01*
X30388Y-26891D01*
X30411Y-26872D01*
X30438Y-26857D01*
X30467Y-26847D01*
X30497Y-26844D01*
X30527Y-26846D01*
X30556Y-26854D01*
X30584Y-26868D01*
X30608Y-26887D01*
X30628Y-26910D01*
X30643Y-26937D01*
X30653Y-26966D01*
X30656Y-26996D01*
X30657Y-27000D01*
X31157Y-38000D02*
X31154Y-38030D01*
X31145Y-38059D01*
X31130Y-38086D01*
X31111Y-38110D01*
X31087Y-38130D01*
X31060Y-38144D01*
X31031Y-38153D01*
X31001Y-38156D01*
X30971Y-38154D01*
X30942Y-38145D01*
X30915Y-38131D01*
X30891Y-38112D01*
X30871Y-38088D01*
X30856Y-38061D01*
X30847Y-38032D01*
X30844Y-38002D01*
X30846Y-37972D01*
X30855Y-37943D01*
X30869Y-37915D01*
X30888Y-37891D01*
X30911Y-37872D01*
X30938Y-37857D01*
X30967Y-37847D01*
X30997Y-37844D01*
X31027Y-37846D01*
X31056Y-37854D01*
X31084Y-37868D01*
X31108Y-37887D01*
X31128Y-37910D01*
X31143Y-37937D01*
X31153Y-37966D01*
X31156Y-37996D01*
X31157Y-38000D01*
X32657Y-20000D02*
X32654Y-20030D01*
X32645Y-20059D01*
X32630Y-20086D01*
X32611Y-20110D01*
X32587Y-20130D01*
X32560Y-20144D01*
X32531Y-20153D01*
X32501Y-20156D01*
X32471Y-20154D01*
X32442Y-20145D01*
X32415Y-20131D01*
X32391Y-20112D01*
X32371Y-20088D01*
X32356Y-20061D01*
X32347Y-20032D01*
X32344Y-20002D01*
X32346Y-19972D01*
X32355Y-19943D01*
X32369Y-19915D01*
X32388Y-19891D01*
X32411Y-19872D01*
X32438Y-19857D01*
X32467Y-19847D01*
X32497Y-19844D01*
X32527Y-19846D01*
X32556Y-19854D01*
X32584Y-19868D01*
X32608Y-19887D01*
X32628Y-19910D01*
X32643Y-19937D01*
X32653Y-19966D01*
X32656Y-19996D01*
X32657Y-20000D01*
X32657Y-29500D02*
X32654Y-29530D01*
X32645Y-29559D01*
X32630Y-29586D01*
X32611Y-29610D01*
X32587Y-29630D01*
X32560Y-29644D01*
X32531Y-29653D01*
X32501Y-29656D01*
X32471Y-29654D01*
X32442Y-29645D01*
X32415Y-29631D01*
X32391Y-29612D01*
X32371Y-29588D01*
X32356Y-29561D01*
X32347Y-29532D01*
X32344Y-29502D01*
X32346Y-29472D01*
X32355Y-29443D01*
X32369Y-29415D01*
X32388Y-29391D01*
X32411Y-29372D01*
X32438Y-29357D01*
X32467Y-29347D01*
X32497Y-29344D01*
X32527Y-29346D01*
X32556Y-29354D01*
X32584Y-29368D01*
X32608Y-29387D01*
X32628Y-29410D01*
X32643Y-29437D01*
X32653Y-29466D01*
X32656Y-29496D01*
X32657Y-29500D01*
X33157Y-23000D02*
X33154Y-23030D01*
X33145Y-23059D01*
X33130Y-23086D01*
X33111Y-23110D01*
X33087Y-23130D01*
X33060Y-23144D01*
X33031Y-23153D01*
X33001Y-23156D01*
X32971Y-23154D01*
X32942Y-23145D01*
X32915Y-23131D01*
X32891Y-23112D01*
X32871Y-23088D01*
X32856Y-23061D01*
X32847Y-23032D01*
X32844Y-23002D01*
X32846Y-22972D01*
X32855Y-22943D01*
X32869Y-22915D01*
X32888Y-22891D01*
X32911Y-22872D01*
X32938Y-22857D01*
X32967Y-22847D01*
X32997Y-22844D01*
X33027Y-22846D01*
X33056Y-22854D01*
X33084Y-22868D01*
X33108Y-22887D01*
X33128Y-22910D01*
X33143Y-22937D01*
X33153Y-22966D01*
X33156Y-22996D01*
X33157Y-23000D01*
X34157Y-22000D02*
X34154Y-22030D01*
X34145Y-22059D01*
X34130Y-22086D01*
X34111Y-22110D01*
X34087Y-22130D01*
X34060Y-22144D01*
X34031Y-22153D01*
X34001Y-22156D01*
X33971Y-22154D01*
X33942Y-22145D01*
X33915Y-22131D01*
X33891Y-22112D01*
X33871Y-22088D01*
X33856Y-22061D01*
X33847Y-22032D01*
X33844Y-22002D01*
X33846Y-21972D01*
X33855Y-21943D01*
X33869Y-21915D01*
X33888Y-21891D01*
X33911Y-21872D01*
X33938Y-21857D01*
X33967Y-21847D01*
X33997Y-21844D01*
X34027Y-21846D01*
X34056Y-21854D01*
X34084Y-21868D01*
X34108Y-21887D01*
X34128Y-21910D01*
X34143Y-21937D01*
X34153Y-21966D01*
X34156Y-21996D01*
X34157Y-22000D01*
X36657Y-39500D02*
X36654Y-39530D01*
X36645Y-39559D01*
X36630Y-39586D01*
X36611Y-39610D01*
X36587Y-39630D01*
X36560Y-39644D01*
X36531Y-39653D01*
X36501Y-39656D01*
X36471Y-39654D01*
X36442Y-39645D01*
X36415Y-39631D01*
X36391Y-39612D01*
X36371Y-39588D01*
X36356Y-39561D01*
X36347Y-39532D01*
X36344Y-39502D01*
X36346Y-39472D01*
X36355Y-39443D01*
X36369Y-39415D01*
X36388Y-39391D01*
X36411Y-39372D01*
X36438Y-39357D01*
X36467Y-39347D01*
X36497Y-39344D01*
X36527Y-39346D01*
X36556Y-39354D01*
X36584Y-39368D01*
X36608Y-39387D01*
X36628Y-39410D01*
X36643Y-39437D01*
X36653Y-39466D01*
X36656Y-39496D01*
X36657Y-39500D01*
X37157Y-25000D02*
X37154Y-25030D01*
X37145Y-25059D01*
X37130Y-25086D01*
X37111Y-25110D01*
X37087Y-25130D01*
X37060Y-25144D01*
X37031Y-25153D01*
X37001Y-25156D01*
X36971Y-25154D01*
X36942Y-25145D01*
X36915Y-25131D01*
X36891Y-25112D01*
X36871Y-25088D01*
X36856Y-25061D01*
X36847Y-25032D01*
X36844Y-25002D01*
X36846Y-24972D01*
X36855Y-24943D01*
X36869Y-24915D01*
X36888Y-24891D01*
X36911Y-24872D01*
X36938Y-24857D01*
X36967Y-24847D01*
X36997Y-24844D01*
X37027Y-24846D01*
X37056Y-24854D01*
X37084Y-24868D01*
X37108Y-24887D01*
X37128Y-24910D01*
X37143Y-24937D01*
X37153Y-24966D01*
X37156Y-24996D01*
X37157Y-25000D01*
X37157Y-26000D02*
X37154Y-26030D01*
X37145Y-26059D01*
X37130Y-26086D01*
X37111Y-26110D01*
X37087Y-26130D01*
X37060Y-26144D01*
X37031Y-26153D01*
X37001Y-26156D01*
X36971Y-26154D01*
X36942Y-26145D01*
X36915Y-26131D01*
X36891Y-26112D01*
X36871Y-26088D01*
X36856Y-26061D01*
X36847Y-26032D01*
X36844Y-26002D01*
X36846Y-25972D01*
X36855Y-25943D01*
X36869Y-25915D01*
X36888Y-25891D01*
X36911Y-25872D01*
X36938Y-25857D01*
X36967Y-25847D01*
X36997Y-25844D01*
X37027Y-25846D01*
X37056Y-25854D01*
X37084Y-25868D01*
X37108Y-25887D01*
X37128Y-25910D01*
X37143Y-25937D01*
X37153Y-25966D01*
X37156Y-25996D01*
X37157Y-26000D01*
X37157Y-27000D02*
X37154Y-27030D01*
X37145Y-27059D01*
X37130Y-27086D01*
X37111Y-27110D01*
X37087Y-27130D01*
X37060Y-27144D01*
X37031Y-27153D01*
X37001Y-27156D01*
X36971Y-27154D01*
X36942Y-27145D01*
X36915Y-27131D01*
X36891Y-27112D01*
X36871Y-27088D01*
X36856Y-27061D01*
X36847Y-27032D01*
X36844Y-27002D01*
X36846Y-26972D01*
X36855Y-26943D01*
X36869Y-26915D01*
X36888Y-26891D01*
X36911Y-26872D01*
X36938Y-26857D01*
X36967Y-26847D01*
X36997Y-26844D01*
X37027Y-26846D01*
X37056Y-26854D01*
X37084Y-26868D01*
X37108Y-26887D01*
X37128Y-26910D01*
X37143Y-26937D01*
X37153Y-26966D01*
X37156Y-26996D01*
X37157Y-27000D01*
X37157Y-28000D02*
X37154Y-28030D01*
X37145Y-28059D01*
X37130Y-28086D01*
X37111Y-28110D01*
X37087Y-28130D01*
X37060Y-28144D01*
X37031Y-28153D01*
X37001Y-28156D01*
X36971Y-28154D01*
X36942Y-28145D01*
X36915Y-28131D01*
X36891Y-28112D01*
X36871Y-28088D01*
X36856Y-28061D01*
X36847Y-28032D01*
X36844Y-28002D01*
X36846Y-27972D01*
X36855Y-27943D01*
X36869Y-27915D01*
X36888Y-27891D01*
X36911Y-27872D01*
X36938Y-27857D01*
X36967Y-27847D01*
X36997Y-27844D01*
X37027Y-27846D01*
X37056Y-27854D01*
X37084Y-27868D01*
X37108Y-27887D01*
X37128Y-27910D01*
X37143Y-27937D01*
X37153Y-27966D01*
X37156Y-27996D01*
X37157Y-28000D01*
X37157Y-29000D02*
X37154Y-29030D01*
X37145Y-29059D01*
X37130Y-29086D01*
X37111Y-29110D01*
X37087Y-29130D01*
X37060Y-29144D01*
X37031Y-29153D01*
X37001Y-29156D01*
X36971Y-29154D01*
X36942Y-29145D01*
X36915Y-29131D01*
X36891Y-29112D01*
X36871Y-29088D01*
X36856Y-29061D01*
X36847Y-29032D01*
X36844Y-29002D01*
X36846Y-28972D01*
X36855Y-28943D01*
X36869Y-28915D01*
X36888Y-28891D01*
X36911Y-28872D01*
X36938Y-28857D01*
X36967Y-28847D01*
X36997Y-28844D01*
X37027Y-28846D01*
X37056Y-28854D01*
X37084Y-28868D01*
X37108Y-28887D01*
X37128Y-28910D01*
X37143Y-28937D01*
X37153Y-28966D01*
X37156Y-28996D01*
X37157Y-29000D01*
X37157Y-30000D02*
X37154Y-30030D01*
X37145Y-30059D01*
X37130Y-30086D01*
X37111Y-30110D01*
X37087Y-30130D01*
X37060Y-30144D01*
X37031Y-30153D01*
X37001Y-30156D01*
X36971Y-30154D01*
X36942Y-30145D01*
X36915Y-30131D01*
X36891Y-30112D01*
X36871Y-30088D01*
X36856Y-30061D01*
X36847Y-30032D01*
X36844Y-30002D01*
X36846Y-29972D01*
X36855Y-29943D01*
X36869Y-29915D01*
X36888Y-29891D01*
X36911Y-29872D01*
X36938Y-29857D01*
X36967Y-29847D01*
X36997Y-29844D01*
X37027Y-29846D01*
X37056Y-29854D01*
X37084Y-29868D01*
X37108Y-29887D01*
X37128Y-29910D01*
X37143Y-29937D01*
X37153Y-29966D01*
X37156Y-29996D01*
X37157Y-30000D01*
X37157Y-31000D02*
X37154Y-31030D01*
X37145Y-31059D01*
X37130Y-31086D01*
X37111Y-31110D01*
X37087Y-31130D01*
X37060Y-31144D01*
X37031Y-31153D01*
X37001Y-31156D01*
X36971Y-31154D01*
X36942Y-31145D01*
X36915Y-31131D01*
X36891Y-31112D01*
X36871Y-31088D01*
X36856Y-31061D01*
X36847Y-31032D01*
X36844Y-31002D01*
X36846Y-30972D01*
X36855Y-30943D01*
X36869Y-30915D01*
X36888Y-30891D01*
X36911Y-30872D01*
X36938Y-30857D01*
X36967Y-30847D01*
X36997Y-30844D01*
X37027Y-30846D01*
X37056Y-30854D01*
X37084Y-30868D01*
X37108Y-30887D01*
X37128Y-30910D01*
X37143Y-30937D01*
X37153Y-30966D01*
X37156Y-30996D01*
X37157Y-31000D01*
X37157Y-32000D02*
X37154Y-32030D01*
X37145Y-32059D01*
X37130Y-32086D01*
X37111Y-32110D01*
X37087Y-32130D01*
X37060Y-32144D01*
X37031Y-32153D01*
X37001Y-32156D01*
X36971Y-32154D01*
X36942Y-32145D01*
X36915Y-32131D01*
X36891Y-32112D01*
X36871Y-32088D01*
X36856Y-32061D01*
X36847Y-32032D01*
X36844Y-32002D01*
X36846Y-31972D01*
X36855Y-31943D01*
X36869Y-31915D01*
X36888Y-31891D01*
X36911Y-31872D01*
X36938Y-31857D01*
X36967Y-31847D01*
X36997Y-31844D01*
X37027Y-31846D01*
X37056Y-31854D01*
X37084Y-31868D01*
X37108Y-31887D01*
X37128Y-31910D01*
X37143Y-31937D01*
X37153Y-31966D01*
X37156Y-31996D01*
X37157Y-32000D01*
X37157Y-33000D02*
X37154Y-33030D01*
X37145Y-33059D01*
X37130Y-33086D01*
X37111Y-33110D01*
X37087Y-33130D01*
X37060Y-33144D01*
X37031Y-33153D01*
X37001Y-33156D01*
X36971Y-33154D01*
X36942Y-33145D01*
X36915Y-33131D01*
X36891Y-33112D01*
X36871Y-33088D01*
X36856Y-33061D01*
X36847Y-33032D01*
X36844Y-33002D01*
X36846Y-32972D01*
X36855Y-32943D01*
X36869Y-32915D01*
X36888Y-32891D01*
X36911Y-32872D01*
X36938Y-32857D01*
X36967Y-32847D01*
X36997Y-32844D01*
X37027Y-32846D01*
X37056Y-32854D01*
X37084Y-32868D01*
X37108Y-32887D01*
X37128Y-32910D01*
X37143Y-32937D01*
X37153Y-32966D01*
X37156Y-32996D01*
X37157Y-33000D01*
X37157Y-34000D02*
X37154Y-34030D01*
X37145Y-34059D01*
X37130Y-34086D01*
X37111Y-34110D01*
X37087Y-34130D01*
X37060Y-34144D01*
X37031Y-34153D01*
X37001Y-34156D01*
X36971Y-34154D01*
X36942Y-34145D01*
X36915Y-34131D01*
X36891Y-34112D01*
X36871Y-34088D01*
X36856Y-34061D01*
X36847Y-34032D01*
X36844Y-34002D01*
X36846Y-33972D01*
X36855Y-33943D01*
X36869Y-33915D01*
X36888Y-33891D01*
X36911Y-33872D01*
X36938Y-33857D01*
X36967Y-33847D01*
X36997Y-33844D01*
X37027Y-33846D01*
X37056Y-33854D01*
X37084Y-33868D01*
X37108Y-33887D01*
X37128Y-33910D01*
X37143Y-33937D01*
X37153Y-33966D01*
X37156Y-33996D01*
X37157Y-34000D01*
X37157Y-35000D02*
X37154Y-35030D01*
X37145Y-35059D01*
X37130Y-35086D01*
X37111Y-35110D01*
X37087Y-35130D01*
X37060Y-35144D01*
X37031Y-35153D01*
X37001Y-35156D01*
X36971Y-35154D01*
X36942Y-35145D01*
X36915Y-35131D01*
X36891Y-35112D01*
X36871Y-35088D01*
X36856Y-35061D01*
X36847Y-35032D01*
X36844Y-35002D01*
X36846Y-34972D01*
X36855Y-34943D01*
X36869Y-34915D01*
X36888Y-34891D01*
X36911Y-34872D01*
X36938Y-34857D01*
X36967Y-34847D01*
X36997Y-34844D01*
X37027Y-34846D01*
X37056Y-34854D01*
X37084Y-34868D01*
X37108Y-34887D01*
X37128Y-34910D01*
X37143Y-34937D01*
X37153Y-34966D01*
X37156Y-34996D01*
X37157Y-35000D01*
X37157Y-36000D02*
X37154Y-36030D01*
X37145Y-36059D01*
X37130Y-36086D01*
X37111Y-36110D01*
X37087Y-36130D01*
X37060Y-36144D01*
X37031Y-36153D01*
X37001Y-36156D01*
X36971Y-36154D01*
X36942Y-36145D01*
X36915Y-36131D01*
X36891Y-36112D01*
X36871Y-36088D01*
X36856Y-36061D01*
X36847Y-36032D01*
X36844Y-36002D01*
X36846Y-35972D01*
X36855Y-35943D01*
X36869Y-35915D01*
X36888Y-35891D01*
X36911Y-35872D01*
X36938Y-35857D01*
X36967Y-35847D01*
X36997Y-35844D01*
X37027Y-35846D01*
X37056Y-35854D01*
X37084Y-35868D01*
X37108Y-35887D01*
X37128Y-35910D01*
X37143Y-35937D01*
X37153Y-35966D01*
X37156Y-35996D01*
X37157Y-36000D01*
X37157Y-37000D02*
X37154Y-37030D01*
X37145Y-37059D01*
X37130Y-37086D01*
X37111Y-37110D01*
X37087Y-37130D01*
X37060Y-37144D01*
X37031Y-37153D01*
X37001Y-37156D01*
X36971Y-37154D01*
X36942Y-37145D01*
X36915Y-37131D01*
X36891Y-37112D01*
X36871Y-37088D01*
X36856Y-37061D01*
X36847Y-37032D01*
X36844Y-37002D01*
X36846Y-36972D01*
X36855Y-36943D01*
X36869Y-36915D01*
X36888Y-36891D01*
X36911Y-36872D01*
X36938Y-36857D01*
X36967Y-36847D01*
X36997Y-36844D01*
X37027Y-36846D01*
X37056Y-36854D01*
X37084Y-36868D01*
X37108Y-36887D01*
X37128Y-36910D01*
X37143Y-36937D01*
X37153Y-36966D01*
X37156Y-36996D01*
X37157Y-37000D01*
X37157Y-38000D02*
X37154Y-38030D01*
X37145Y-38059D01*
X37130Y-38086D01*
X37111Y-38110D01*
X37087Y-38130D01*
X37060Y-38144D01*
X37031Y-38153D01*
X37001Y-38156D01*
X36971Y-38154D01*
X36942Y-38145D01*
X36915Y-38131D01*
X36891Y-38112D01*
X36871Y-38088D01*
X36856Y-38061D01*
X36847Y-38032D01*
X36844Y-38002D01*
X36846Y-37972D01*
X36855Y-37943D01*
X36869Y-37915D01*
X36888Y-37891D01*
X36911Y-37872D01*
X36938Y-37857D01*
X36967Y-37847D01*
X36997Y-37844D01*
X37027Y-37846D01*
X37056Y-37854D01*
X37084Y-37868D01*
X37108Y-37887D01*
X37128Y-37910D01*
X37143Y-37937D01*
X37153Y-37966D01*
X37156Y-37996D01*
X37157Y-38000D01*
X40157Y-25000D02*
X40154Y-25030D01*
X40145Y-25059D01*
X40130Y-25086D01*
X40111Y-25110D01*
X40087Y-25130D01*
X40060Y-25144D01*
X40031Y-25153D01*
X40001Y-25156D01*
X39971Y-25154D01*
X39942Y-25145D01*
X39915Y-25131D01*
X39891Y-25112D01*
X39871Y-25088D01*
X39856Y-25061D01*
X39847Y-25032D01*
X39844Y-25002D01*
X39846Y-24972D01*
X39855Y-24943D01*
X39869Y-24915D01*
X39888Y-24891D01*
X39911Y-24872D01*
X39938Y-24857D01*
X39967Y-24847D01*
X39997Y-24844D01*
X40027Y-24846D01*
X40056Y-24854D01*
X40084Y-24868D01*
X40108Y-24887D01*
X40128Y-24910D01*
X40143Y-24937D01*
X40153Y-24966D01*
X40156Y-24996D01*
X40157Y-25000D01*
X40157Y-26000D02*
X40154Y-26030D01*
X40145Y-26059D01*
X40130Y-26086D01*
X40111Y-26110D01*
X40087Y-26130D01*
X40060Y-26144D01*
X40031Y-26153D01*
X40001Y-26156D01*
X39971Y-26154D01*
X39942Y-26145D01*
X39915Y-26131D01*
X39891Y-26112D01*
X39871Y-26088D01*
X39856Y-26061D01*
X39847Y-26032D01*
X39844Y-26002D01*
X39846Y-25972D01*
X39855Y-25943D01*
X39869Y-25915D01*
X39888Y-25891D01*
X39911Y-25872D01*
X39938Y-25857D01*
X39967Y-25847D01*
X39997Y-25844D01*
X40027Y-25846D01*
X40056Y-25854D01*
X40084Y-25868D01*
X40108Y-25887D01*
X40128Y-25910D01*
X40143Y-25937D01*
X40153Y-25966D01*
X40156Y-25996D01*
X40157Y-26000D01*
X40157Y-27000D02*
X40154Y-27030D01*
X40145Y-27059D01*
X40130Y-27086D01*
X40111Y-27110D01*
X40087Y-27130D01*
X40060Y-27144D01*
X40031Y-27153D01*
X40001Y-27156D01*
X39971Y-27154D01*
X39942Y-27145D01*
X39915Y-27131D01*
X39891Y-27112D01*
X39871Y-27088D01*
X39856Y-27061D01*
X39847Y-27032D01*
X39844Y-27002D01*
X39846Y-26972D01*
X39855Y-26943D01*
X39869Y-26915D01*
X39888Y-26891D01*
X39911Y-26872D01*
X39938Y-26857D01*
X39967Y-26847D01*
X39997Y-26844D01*
X40027Y-26846D01*
X40056Y-26854D01*
X40084Y-26868D01*
X40108Y-26887D01*
X40128Y-26910D01*
X40143Y-26937D01*
X40153Y-26966D01*
X40156Y-26996D01*
X40157Y-27000D01*
X40157Y-28000D02*
X40154Y-28030D01*
X40145Y-28059D01*
X40130Y-28086D01*
X40111Y-28110D01*
X40087Y-28130D01*
X40060Y-28144D01*
X40031Y-28153D01*
X40001Y-28156D01*
X39971Y-28154D01*
X39942Y-28145D01*
X39915Y-28131D01*
X39891Y-28112D01*
X39871Y-28088D01*
X39856Y-28061D01*
X39847Y-28032D01*
X39844Y-28002D01*
X39846Y-27972D01*
X39855Y-27943D01*
X39869Y-27915D01*
X39888Y-27891D01*
X39911Y-27872D01*
X39938Y-27857D01*
X39967Y-27847D01*
X39997Y-27844D01*
X40027Y-27846D01*
X40056Y-27854D01*
X40084Y-27868D01*
X40108Y-27887D01*
X40128Y-27910D01*
X40143Y-27937D01*
X40153Y-27966D01*
X40156Y-27996D01*
X40157Y-28000D01*
X40157Y-29000D02*
X40154Y-29030D01*
X40145Y-29059D01*
X40130Y-29086D01*
X40111Y-29110D01*
X40087Y-29130D01*
X40060Y-29144D01*
X40031Y-29153D01*
X40001Y-29156D01*
X39971Y-29154D01*
X39942Y-29145D01*
X39915Y-29131D01*
X39891Y-29112D01*
X39871Y-29088D01*
X39856Y-29061D01*
X39847Y-29032D01*
X39844Y-29002D01*
X39846Y-28972D01*
X39855Y-28943D01*
X39869Y-28915D01*
X39888Y-28891D01*
X39911Y-28872D01*
X39938Y-28857D01*
X39967Y-28847D01*
X39997Y-28844D01*
X40027Y-28846D01*
X40056Y-28854D01*
X40084Y-28868D01*
X40108Y-28887D01*
X40128Y-28910D01*
X40143Y-28937D01*
X40153Y-28966D01*
X40156Y-28996D01*
X40157Y-29000D01*
X40157Y-30000D02*
X40154Y-30030D01*
X40145Y-30059D01*
X40130Y-30086D01*
X40111Y-30110D01*
X40087Y-30130D01*
X40060Y-30144D01*
X40031Y-30153D01*
X40001Y-30156D01*
X39971Y-30154D01*
X39942Y-30145D01*
X39915Y-30131D01*
X39891Y-30112D01*
X39871Y-30088D01*
X39856Y-30061D01*
X39847Y-30032D01*
X39844Y-30002D01*
X39846Y-29972D01*
X39855Y-29943D01*
X39869Y-29915D01*
X39888Y-29891D01*
X39911Y-29872D01*
X39938Y-29857D01*
X39967Y-29847D01*
X39997Y-29844D01*
X40027Y-29846D01*
X40056Y-29854D01*
X40084Y-29868D01*
X40108Y-29887D01*
X40128Y-29910D01*
X40143Y-29937D01*
X40153Y-29966D01*
X40156Y-29996D01*
X40157Y-30000D01*
X40157Y-31000D02*
X40154Y-31030D01*
X40145Y-31059D01*
X40130Y-31086D01*
X40111Y-31110D01*
X40087Y-31130D01*
X40060Y-31144D01*
X40031Y-31153D01*
X40001Y-31156D01*
X39971Y-31154D01*
X39942Y-31145D01*
X39915Y-31131D01*
X39891Y-31112D01*
X39871Y-31088D01*
X39856Y-31061D01*
X39847Y-31032D01*
X39844Y-31002D01*
X39846Y-30972D01*
X39855Y-30943D01*
X39869Y-30915D01*
X39888Y-30891D01*
X39911Y-30872D01*
X39938Y-30857D01*
X39967Y-30847D01*
X39997Y-30844D01*
X40027Y-30846D01*
X40056Y-30854D01*
X40084Y-30868D01*
X40108Y-30887D01*
X40128Y-30910D01*
X40143Y-30937D01*
X40153Y-30966D01*
X40156Y-30996D01*
X40157Y-31000D01*
X40157Y-32000D02*
X40154Y-32030D01*
X40145Y-32059D01*
X40130Y-32086D01*
X40111Y-32110D01*
X40087Y-32130D01*
X40060Y-32144D01*
X40031Y-32153D01*
X40001Y-32156D01*
X39971Y-32154D01*
X39942Y-32145D01*
X39915Y-32131D01*
X39891Y-32112D01*
X39871Y-32088D01*
X39856Y-32061D01*
X39847Y-32032D01*
X39844Y-32002D01*
X39846Y-31972D01*
X39855Y-31943D01*
X39869Y-31915D01*
X39888Y-31891D01*
X39911Y-31872D01*
X39938Y-31857D01*
X39967Y-31847D01*
X39997Y-31844D01*
X40027Y-31846D01*
X40056Y-31854D01*
X40084Y-31868D01*
X40108Y-31887D01*
X40128Y-31910D01*
X40143Y-31937D01*
X40153Y-31966D01*
X40156Y-31996D01*
X40157Y-32000D01*
X40157Y-33000D02*
X40154Y-33030D01*
X40145Y-33059D01*
X40130Y-33086D01*
X40111Y-33110D01*
X40087Y-33130D01*
X40060Y-33144D01*
X40031Y-33153D01*
X40001Y-33156D01*
X39971Y-33154D01*
X39942Y-33145D01*
X39915Y-33131D01*
X39891Y-33112D01*
X39871Y-33088D01*
X39856Y-33061D01*
X39847Y-33032D01*
X39844Y-33002D01*
X39846Y-32972D01*
X39855Y-32943D01*
X39869Y-32915D01*
X39888Y-32891D01*
X39911Y-32872D01*
X39938Y-32857D01*
X39967Y-32847D01*
X39997Y-32844D01*
X40027Y-32846D01*
X40056Y-32854D01*
X40084Y-32868D01*
X40108Y-32887D01*
X40128Y-32910D01*
X40143Y-32937D01*
X40153Y-32966D01*
X40156Y-32996D01*
X40157Y-33000D01*
X40157Y-34000D02*
X40154Y-34030D01*
X40145Y-34059D01*
X40130Y-34086D01*
X40111Y-34110D01*
X40087Y-34130D01*
X40060Y-34144D01*
X40031Y-34153D01*
X40001Y-34156D01*
X39971Y-34154D01*
X39942Y-34145D01*
X39915Y-34131D01*
X39891Y-34112D01*
X39871Y-34088D01*
X39856Y-34061D01*
X39847Y-34032D01*
X39844Y-34002D01*
X39846Y-33972D01*
X39855Y-33943D01*
X39869Y-33915D01*
X39888Y-33891D01*
X39911Y-33872D01*
X39938Y-33857D01*
X39967Y-33847D01*
X39997Y-33844D01*
X40027Y-33846D01*
X40056Y-33854D01*
X40084Y-33868D01*
X40108Y-33887D01*
X40128Y-33910D01*
X40143Y-33937D01*
X40153Y-33966D01*
X40156Y-33996D01*
X40157Y-34000D01*
X40157Y-35000D02*
X40154Y-35030D01*
X40145Y-35059D01*
X40130Y-35086D01*
X40111Y-35110D01*
X40087Y-35130D01*
X40060Y-35144D01*
X40031Y-35153D01*
X40001Y-35156D01*
X39971Y-35154D01*
X39942Y-35145D01*
X39915Y-35131D01*
X39891Y-35112D01*
X39871Y-35088D01*
X39856Y-35061D01*
X39847Y-35032D01*
X39844Y-35002D01*
X39846Y-34972D01*
X39855Y-34943D01*
X39869Y-34915D01*
X39888Y-34891D01*
X39911Y-34872D01*
X39938Y-34857D01*
X39967Y-34847D01*
X39997Y-34844D01*
X40027Y-34846D01*
X40056Y-34854D01*
X40084Y-34868D01*
X40108Y-34887D01*
X40128Y-34910D01*
X40143Y-34937D01*
X40153Y-34966D01*
X40156Y-34996D01*
X40157Y-35000D01*
X40157Y-36000D02*
X40154Y-36030D01*
X40145Y-36059D01*
X40130Y-36086D01*
X40111Y-36110D01*
X40087Y-36130D01*
X40060Y-36144D01*
X40031Y-36153D01*
X40001Y-36156D01*
X39971Y-36154D01*
X39942Y-36145D01*
X39915Y-36131D01*
X39891Y-36112D01*
X39871Y-36088D01*
X39856Y-36061D01*
X39847Y-36032D01*
X39844Y-36002D01*
X39846Y-35972D01*
X39855Y-35943D01*
X39869Y-35915D01*
X39888Y-35891D01*
X39911Y-35872D01*
X39938Y-35857D01*
X39967Y-35847D01*
X39997Y-35844D01*
X40027Y-35846D01*
X40056Y-35854D01*
X40084Y-35868D01*
X40108Y-35887D01*
X40128Y-35910D01*
X40143Y-35937D01*
X40153Y-35966D01*
X40156Y-35996D01*
X40157Y-36000D01*
X40157Y-37000D02*
X40154Y-37030D01*
X40145Y-37059D01*
X40130Y-37086D01*
X40111Y-37110D01*
X40087Y-37130D01*
X40060Y-37144D01*
X40031Y-37153D01*
X40001Y-37156D01*
X39971Y-37154D01*
X39942Y-37145D01*
X39915Y-37131D01*
X39891Y-37112D01*
X39871Y-37088D01*
X39856Y-37061D01*
X39847Y-37032D01*
X39844Y-37002D01*
X39846Y-36972D01*
X39855Y-36943D01*
X39869Y-36915D01*
X39888Y-36891D01*
X39911Y-36872D01*
X39938Y-36857D01*
X39967Y-36847D01*
X39997Y-36844D01*
X40027Y-36846D01*
X40056Y-36854D01*
X40084Y-36868D01*
X40108Y-36887D01*
X40128Y-36910D01*
X40143Y-36937D01*
X40153Y-36966D01*
X40156Y-36996D01*
X40157Y-37000D01*
X40157Y-38000D02*
X40154Y-38030D01*
X40145Y-38059D01*
X40130Y-38086D01*
X40111Y-38110D01*
X40087Y-38130D01*
X40060Y-38144D01*
X40031Y-38153D01*
X40001Y-38156D01*
X39971Y-38154D01*
X39942Y-38145D01*
X39915Y-38131D01*
X39891Y-38112D01*
X39871Y-38088D01*
X39856Y-38061D01*
X39847Y-38032D01*
X39844Y-38002D01*
X39846Y-37972D01*
X39855Y-37943D01*
X39869Y-37915D01*
X39888Y-37891D01*
X39911Y-37872D01*
X39938Y-37857D01*
X39967Y-37847D01*
X39997Y-37844D01*
X40027Y-37846D01*
X40056Y-37854D01*
X40084Y-37868D01*
X40108Y-37887D01*
X40128Y-37910D01*
X40143Y-37937D01*
X40153Y-37966D01*
X40156Y-37996D01*
X40157Y-38000D01*
X46157Y-33500D02*
X46154Y-33530D01*
X46145Y-33559D01*
X46130Y-33586D01*
X46111Y-33610D01*
X46087Y-33630D01*
X46060Y-33644D01*
X46031Y-33653D01*
X46001Y-33656D01*
X45971Y-33654D01*
X45942Y-33645D01*
X45915Y-33631D01*
X45891Y-33612D01*
X45871Y-33588D01*
X45856Y-33561D01*
X45847Y-33532D01*
X45844Y-33502D01*
X45846Y-33472D01*
X45855Y-33443D01*
X45869Y-33415D01*
X45888Y-33391D01*
X45911Y-33372D01*
X45938Y-33357D01*
X45967Y-33347D01*
X45997Y-33344D01*
X46027Y-33346D01*
X46056Y-33354D01*
X46084Y-33368D01*
X46108Y-33387D01*
X46128Y-33410D01*
X46143Y-33437D01*
X46153Y-33466D01*
X46156Y-33496D01*
X46157Y-33500D01*
X44000Y-33573D02*
X44000Y-33927D01*
X44177Y-33750D02*
X43823Y-33750D01*
X44000Y-34573D02*
X44000Y-34927D01*
X44177Y-34750D02*
X43823Y-34750D01*
X44000Y-35573D02*
X44000Y-35927D01*
X44177Y-35750D02*
X43823Y-35750D01*
X45000Y-33073D02*
X45000Y-33427D01*
X45177Y-33250D02*
X44823Y-33250D01*
X45000Y-34073D02*
X45000Y-34427D01*
X45177Y-34250D02*
X44823Y-34250D01*
X45000Y-35073D02*
X45000Y-35427D01*
X45177Y-35250D02*
X44823Y-35250D01*
X15197Y-21000D02*
X15193Y-21038D01*
X15182Y-21075D01*
X15164Y-21109D01*
X15139Y-21138D01*
X15110Y-21163D01*
X15076Y-21181D01*
X15039Y-21192D01*
X15001Y-21196D01*
X14964Y-21193D01*
X14927Y-21182D01*
X14893Y-21164D01*
X14863Y-21140D01*
X14838Y-21111D01*
X14819Y-21077D01*
X14808Y-21040D01*
X14804Y-21002D01*
X14807Y-20965D01*
X14817Y-20928D01*
X14835Y-20894D01*
X14859Y-20864D01*
X14888Y-20839D01*
X14922Y-20820D01*
X14958Y-20808D01*
X14996Y-20804D01*
X15034Y-20806D01*
X15071Y-20817D01*
X15105Y-20834D01*
X15135Y-20858D01*
X15160Y-20887D01*
X15179Y-20920D01*
X15192Y-20957D01*
X15196Y-20995D01*
X15197Y-21000D01*
X14803Y-20803D02*
X15197Y-21197D01*
X15197Y-20803D02*
X14803Y-21197D01*
X15197Y-22000D02*
X15193Y-22038D01*
X15182Y-22075D01*
X15164Y-22109D01*
X15139Y-22138D01*
X15110Y-22163D01*
X15076Y-22181D01*
X15039Y-22192D01*
X15001Y-22196D01*
X14964Y-22193D01*
X14927Y-22182D01*
X14893Y-22164D01*
X14863Y-22140D01*
X14838Y-22111D01*
X14819Y-22077D01*
X14808Y-22040D01*
X14804Y-22002D01*
X14807Y-21965D01*
X14817Y-21928D01*
X14835Y-21894D01*
X14859Y-21864D01*
X14888Y-21839D01*
X14922Y-21820D01*
X14958Y-21808D01*
X14996Y-21804D01*
X15034Y-21806D01*
X15071Y-21817D01*
X15105Y-21834D01*
X15135Y-21858D01*
X15160Y-21887D01*
X15179Y-21920D01*
X15192Y-21957D01*
X15196Y-21995D01*
X15197Y-22000D01*
X14803Y-21803D02*
X15197Y-22197D01*
X15197Y-21803D02*
X14803Y-22197D01*
X15197Y-23500D02*
X15193Y-23538D01*
X15182Y-23575D01*
X15164Y-23609D01*
X15139Y-23638D01*
X15110Y-23663D01*
X15076Y-23681D01*
X15039Y-23692D01*
X15001Y-23696D01*
X14964Y-23693D01*
X14927Y-23682D01*
X14893Y-23664D01*
X14863Y-23640D01*
X14838Y-23611D01*
X14819Y-23577D01*
X14808Y-23540D01*
X14804Y-23502D01*
X14807Y-23465D01*
X14817Y-23428D01*
X14835Y-23394D01*
X14859Y-23364D01*
X14888Y-23339D01*
X14922Y-23320D01*
X14958Y-23308D01*
X14996Y-23304D01*
X15034Y-23306D01*
X15071Y-23317D01*
X15105Y-23334D01*
X15135Y-23358D01*
X15160Y-23387D01*
X15179Y-23420D01*
X15192Y-23457D01*
X15196Y-23495D01*
X15197Y-23500D01*
X14803Y-23303D02*
X15197Y-23697D01*
X15197Y-23303D02*
X14803Y-23697D01*
X15197Y-24500D02*
X15193Y-24538D01*
X15182Y-24575D01*
X15164Y-24609D01*
X15139Y-24638D01*
X15110Y-24663D01*
X15076Y-24681D01*
X15039Y-24692D01*
X15001Y-24696D01*
X14964Y-24693D01*
X14927Y-24682D01*
X14893Y-24664D01*
X14863Y-24640D01*
X14838Y-24611D01*
X14819Y-24577D01*
X14808Y-24540D01*
X14804Y-24502D01*
X14807Y-24465D01*
X14817Y-24428D01*
X14835Y-24394D01*
X14859Y-24364D01*
X14888Y-24339D01*
X14922Y-24320D01*
X14958Y-24308D01*
X14996Y-24304D01*
X15034Y-24306D01*
X15071Y-24317D01*
X15105Y-24334D01*
X15135Y-24358D01*
X15160Y-24387D01*
X15179Y-24420D01*
X15192Y-24457D01*
X15196Y-24495D01*
X15197Y-24500D01*
X14803Y-24303D02*
X15197Y-24697D01*
X15197Y-24303D02*
X14803Y-24697D01*
X15197Y-26000D02*
X15193Y-26038D01*
X15182Y-26075D01*
X15164Y-26109D01*
X15139Y-26138D01*
X15110Y-26163D01*
X15076Y-26181D01*
X15039Y-26192D01*
X15001Y-26196D01*
X14964Y-26193D01*
X14927Y-26182D01*
X14893Y-26164D01*
X14863Y-26140D01*
X14838Y-26111D01*
X14819Y-26077D01*
X14808Y-26040D01*
X14804Y-26002D01*
X14807Y-25965D01*
X14817Y-25928D01*
X14835Y-25894D01*
X14859Y-25864D01*
X14888Y-25839D01*
X14922Y-25820D01*
X14958Y-25808D01*
X14996Y-25804D01*
X15034Y-25806D01*
X15071Y-25817D01*
X15105Y-25834D01*
X15135Y-25858D01*
X15160Y-25887D01*
X15179Y-25920D01*
X15192Y-25957D01*
X15196Y-25995D01*
X15197Y-26000D01*
X14803Y-25803D02*
X15197Y-26197D01*
X15197Y-25803D02*
X14803Y-26197D01*
X15197Y-27000D02*
X15193Y-27038D01*
X15182Y-27075D01*
X15164Y-27109D01*
X15139Y-27138D01*
X15110Y-27163D01*
X15076Y-27181D01*
X15039Y-27192D01*
X15001Y-27196D01*
X14964Y-27193D01*
X14927Y-27182D01*
X14893Y-27164D01*
X14863Y-27140D01*
X14838Y-27111D01*
X14819Y-27077D01*
X14808Y-27040D01*
X14804Y-27002D01*
X14807Y-26965D01*
X14817Y-26928D01*
X14835Y-26894D01*
X14859Y-26864D01*
X14888Y-26839D01*
X14922Y-26820D01*
X14958Y-26808D01*
X14996Y-26804D01*
X15034Y-26806D01*
X15071Y-26817D01*
X15105Y-26834D01*
X15135Y-26858D01*
X15160Y-26887D01*
X15179Y-26920D01*
X15192Y-26957D01*
X15196Y-26995D01*
X15197Y-27000D01*
X14803Y-26803D02*
X15197Y-27197D01*
X15197Y-26803D02*
X14803Y-27197D01*
X15197Y-28000D02*
X15193Y-28038D01*
X15182Y-28075D01*
X15164Y-28109D01*
X15139Y-28138D01*
X15110Y-28163D01*
X15076Y-28181D01*
X15039Y-28192D01*
X15001Y-28196D01*
X14964Y-28193D01*
X14927Y-28182D01*
X14893Y-28164D01*
X14863Y-28140D01*
X14838Y-28111D01*
X14819Y-28077D01*
X14808Y-28040D01*
X14804Y-28002D01*
X14807Y-27965D01*
X14817Y-27928D01*
X14835Y-27894D01*
X14859Y-27864D01*
X14888Y-27839D01*
X14922Y-27820D01*
X14958Y-27808D01*
X14996Y-27804D01*
X15034Y-27806D01*
X15071Y-27817D01*
X15105Y-27834D01*
X15135Y-27858D01*
X15160Y-27887D01*
X15179Y-27920D01*
X15192Y-27957D01*
X15196Y-27995D01*
X15197Y-28000D01*
X14803Y-27803D02*
X15197Y-28197D01*
X15197Y-27803D02*
X14803Y-28197D01*
X15197Y-29000D02*
X15193Y-29038D01*
X15182Y-29075D01*
X15164Y-29109D01*
X15139Y-29138D01*
X15110Y-29163D01*
X15076Y-29181D01*
X15039Y-29192D01*
X15001Y-29196D01*
X14964Y-29193D01*
X14927Y-29182D01*
X14893Y-29164D01*
X14863Y-29140D01*
X14838Y-29111D01*
X14819Y-29077D01*
X14808Y-29040D01*
X14804Y-29002D01*
X14807Y-28965D01*
X14817Y-28928D01*
X14835Y-28894D01*
X14859Y-28864D01*
X14888Y-28839D01*
X14922Y-28820D01*
X14958Y-28808D01*
X14996Y-28804D01*
X15034Y-28806D01*
X15071Y-28817D01*
X15105Y-28834D01*
X15135Y-28858D01*
X15160Y-28887D01*
X15179Y-28920D01*
X15192Y-28957D01*
X15196Y-28995D01*
X15197Y-29000D01*
X14803Y-28803D02*
X15197Y-29197D01*
X15197Y-28803D02*
X14803Y-29197D01*
X15197Y-30000D02*
X15193Y-30038D01*
X15182Y-30075D01*
X15164Y-30109D01*
X15139Y-30138D01*
X15110Y-30163D01*
X15076Y-30181D01*
X15039Y-30192D01*
X15001Y-30196D01*
X14964Y-30193D01*
X14927Y-30182D01*
X14893Y-30164D01*
X14863Y-30140D01*
X14838Y-30111D01*
X14819Y-30077D01*
X14808Y-30040D01*
X14804Y-30002D01*
X14807Y-29965D01*
X14817Y-29928D01*
X14835Y-29894D01*
X14859Y-29864D01*
X14888Y-29839D01*
X14922Y-29820D01*
X14958Y-29808D01*
X14996Y-29804D01*
X15034Y-29806D01*
X15071Y-29817D01*
X15105Y-29834D01*
X15135Y-29858D01*
X15160Y-29887D01*
X15179Y-29920D01*
X15192Y-29957D01*
X15196Y-29995D01*
X15197Y-30000D01*
X14803Y-29803D02*
X15197Y-30197D01*
X15197Y-29803D02*
X14803Y-30197D01*
X15197Y-31500D02*
X15193Y-31538D01*
X15182Y-31575D01*
X15164Y-31609D01*
X15139Y-31638D01*
X15110Y-31663D01*
X15076Y-31681D01*
X15039Y-31692D01*
X15001Y-31696D01*
X14964Y-31693D01*
X14927Y-31682D01*
X14893Y-31664D01*
X14863Y-31640D01*
X14838Y-31611D01*
X14819Y-31577D01*
X14808Y-31540D01*
X14804Y-31502D01*
X14807Y-31465D01*
X14817Y-31428D01*
X14835Y-31394D01*
X14859Y-31364D01*
X14888Y-31339D01*
X14922Y-31320D01*
X14958Y-31308D01*
X14996Y-31304D01*
X15034Y-31306D01*
X15071Y-31317D01*
X15105Y-31334D01*
X15135Y-31358D01*
X15160Y-31387D01*
X15179Y-31420D01*
X15192Y-31457D01*
X15196Y-31495D01*
X15197Y-31500D01*
X14803Y-31303D02*
X15197Y-31697D01*
X15197Y-31303D02*
X14803Y-31697D01*
X15197Y-32500D02*
X15193Y-32538D01*
X15182Y-32575D01*
X15164Y-32609D01*
X15139Y-32638D01*
X15110Y-32663D01*
X15076Y-32681D01*
X15039Y-32692D01*
X15001Y-32696D01*
X14964Y-32693D01*
X14927Y-32682D01*
X14893Y-32664D01*
X14863Y-32640D01*
X14838Y-32611D01*
X14819Y-32577D01*
X14808Y-32540D01*
X14804Y-32502D01*
X14807Y-32465D01*
X14817Y-32428D01*
X14835Y-32394D01*
X14859Y-32364D01*
X14888Y-32339D01*
X14922Y-32320D01*
X14958Y-32308D01*
X14996Y-32304D01*
X15034Y-32306D01*
X15071Y-32317D01*
X15105Y-32334D01*
X15135Y-32358D01*
X15160Y-32387D01*
X15179Y-32420D01*
X15192Y-32457D01*
X15196Y-32495D01*
X15197Y-32500D01*
X14803Y-32303D02*
X15197Y-32697D01*
X15197Y-32303D02*
X14803Y-32697D01*
X15197Y-33500D02*
X15193Y-33538D01*
X15182Y-33575D01*
X15164Y-33609D01*
X15139Y-33638D01*
X15110Y-33663D01*
X15076Y-33681D01*
X15039Y-33692D01*
X15001Y-33696D01*
X14964Y-33693D01*
X14927Y-33682D01*
X14893Y-33664D01*
X14863Y-33640D01*
X14838Y-33611D01*
X14819Y-33577D01*
X14808Y-33540D01*
X14804Y-33502D01*
X14807Y-33465D01*
X14817Y-33428D01*
X14835Y-33394D01*
X14859Y-33364D01*
X14888Y-33339D01*
X14922Y-33320D01*
X14958Y-33308D01*
X14996Y-33304D01*
X15034Y-33306D01*
X15071Y-33317D01*
X15105Y-33334D01*
X15135Y-33358D01*
X15160Y-33387D01*
X15179Y-33420D01*
X15192Y-33457D01*
X15196Y-33495D01*
X15197Y-33500D01*
X14803Y-33303D02*
X15197Y-33697D01*
X15197Y-33303D02*
X14803Y-33697D01*
X15197Y-34500D02*
X15193Y-34538D01*
X15182Y-34575D01*
X15164Y-34609D01*
X15139Y-34638D01*
X15110Y-34663D01*
X15076Y-34681D01*
X15039Y-34692D01*
X15001Y-34696D01*
X14964Y-34693D01*
X14927Y-34682D01*
X14893Y-34664D01*
X14863Y-34640D01*
X14838Y-34611D01*
X14819Y-34577D01*
X14808Y-34540D01*
X14804Y-34502D01*
X14807Y-34465D01*
X14817Y-34428D01*
X14835Y-34394D01*
X14859Y-34364D01*
X14888Y-34339D01*
X14922Y-34320D01*
X14958Y-34308D01*
X14996Y-34304D01*
X15034Y-34306D01*
X15071Y-34317D01*
X15105Y-34334D01*
X15135Y-34358D01*
X15160Y-34387D01*
X15179Y-34420D01*
X15192Y-34457D01*
X15196Y-34495D01*
X15197Y-34500D01*
X14803Y-34303D02*
X15197Y-34697D01*
X15197Y-34303D02*
X14803Y-34697D01*
X15197Y-35500D02*
X15193Y-35538D01*
X15182Y-35575D01*
X15164Y-35609D01*
X15139Y-35638D01*
X15110Y-35663D01*
X15076Y-35681D01*
X15039Y-35692D01*
X15001Y-35696D01*
X14964Y-35693D01*
X14927Y-35682D01*
X14893Y-35664D01*
X14863Y-35640D01*
X14838Y-35611D01*
X14819Y-35577D01*
X14808Y-35540D01*
X14804Y-35502D01*
X14807Y-35465D01*
X14817Y-35428D01*
X14835Y-35394D01*
X14859Y-35364D01*
X14888Y-35339D01*
X14922Y-35320D01*
X14958Y-35308D01*
X14996Y-35304D01*
X15034Y-35306D01*
X15071Y-35317D01*
X15105Y-35334D01*
X15135Y-35358D01*
X15160Y-35387D01*
X15179Y-35420D01*
X15192Y-35457D01*
X15196Y-35495D01*
X15197Y-35500D01*
X14803Y-35303D02*
X15197Y-35697D01*
X15197Y-35303D02*
X14803Y-35697D01*
X15197Y-37000D02*
X15193Y-37038D01*
X15182Y-37075D01*
X15164Y-37109D01*
X15139Y-37138D01*
X15110Y-37163D01*
X15076Y-37181D01*
X15039Y-37192D01*
X15001Y-37196D01*
X14964Y-37193D01*
X14927Y-37182D01*
X14893Y-37164D01*
X14863Y-37140D01*
X14838Y-37111D01*
X14819Y-37077D01*
X14808Y-37040D01*
X14804Y-37002D01*
X14807Y-36965D01*
X14817Y-36928D01*
X14835Y-36894D01*
X14859Y-36864D01*
X14888Y-36839D01*
X14922Y-36820D01*
X14958Y-36808D01*
X14996Y-36804D01*
X15034Y-36806D01*
X15071Y-36817D01*
X15105Y-36834D01*
X15135Y-36858D01*
X15160Y-36887D01*
X15179Y-36920D01*
X15192Y-36957D01*
X15196Y-36995D01*
X15197Y-37000D01*
X14803Y-36803D02*
X15197Y-37197D01*
X15197Y-36803D02*
X14803Y-37197D01*
X15197Y-38000D02*
X15193Y-38038D01*
X15182Y-38075D01*
X15164Y-38109D01*
X15139Y-38138D01*
X15110Y-38163D01*
X15076Y-38181D01*
X15039Y-38192D01*
X15001Y-38196D01*
X14964Y-38193D01*
X14927Y-38182D01*
X14893Y-38164D01*
X14863Y-38140D01*
X14838Y-38111D01*
X14819Y-38077D01*
X14808Y-38040D01*
X14804Y-38002D01*
X14807Y-37965D01*
X14817Y-37928D01*
X14835Y-37894D01*
X14859Y-37864D01*
X14888Y-37839D01*
X14922Y-37820D01*
X14958Y-37808D01*
X14996Y-37804D01*
X15034Y-37806D01*
X15071Y-37817D01*
X15105Y-37834D01*
X15135Y-37858D01*
X15160Y-37887D01*
X15179Y-37920D01*
X15192Y-37957D01*
X15196Y-37995D01*
X15197Y-38000D01*
X14803Y-37803D02*
X15197Y-38197D01*
X15197Y-37803D02*
X14803Y-38197D01*
X15197Y-39500D02*
X15193Y-39538D01*
X15182Y-39575D01*
X15164Y-39609D01*
X15139Y-39638D01*
X15110Y-39663D01*
X15076Y-39681D01*
X15039Y-39692D01*
X15001Y-39696D01*
X14964Y-39693D01*
X14927Y-39682D01*
X14893Y-39664D01*
X14863Y-39640D01*
X14838Y-39611D01*
X14819Y-39577D01*
X14808Y-39540D01*
X14804Y-39502D01*
X14807Y-39465D01*
X14817Y-39428D01*
X14835Y-39394D01*
X14859Y-39364D01*
X14888Y-39339D01*
X14922Y-39320D01*
X14958Y-39308D01*
X14996Y-39304D01*
X15034Y-39306D01*
X15071Y-39317D01*
X15105Y-39334D01*
X15135Y-39358D01*
X15160Y-39387D01*
X15179Y-39420D01*
X15192Y-39457D01*
X15196Y-39495D01*
X15197Y-39500D01*
X14803Y-39303D02*
X15197Y-39697D01*
X15197Y-39303D02*
X14803Y-39697D01*
X15197Y-40500D02*
X15193Y-40538D01*
X15182Y-40575D01*
X15164Y-40609D01*
X15139Y-40638D01*
X15110Y-40663D01*
X15076Y-40681D01*
X15039Y-40692D01*
X15001Y-40696D01*
X14964Y-40693D01*
X14927Y-40682D01*
X14893Y-40664D01*
X14863Y-40640D01*
X14838Y-40611D01*
X14819Y-40577D01*
X14808Y-40540D01*
X14804Y-40502D01*
X14807Y-40465D01*
X14817Y-40428D01*
X14835Y-40394D01*
X14859Y-40364D01*
X14888Y-40339D01*
X14922Y-40320D01*
X14958Y-40308D01*
X14996Y-40304D01*
X15034Y-40306D01*
X15071Y-40317D01*
X15105Y-40334D01*
X15135Y-40358D01*
X15160Y-40387D01*
X15179Y-40420D01*
X15192Y-40457D01*
X15196Y-40495D01*
X15197Y-40500D01*
X14803Y-40303D02*
X15197Y-40697D01*
X15197Y-40303D02*
X14803Y-40697D01*
X22197Y-38000D02*
X22193Y-38038D01*
X22182Y-38075D01*
X22164Y-38109D01*
X22139Y-38138D01*
X22110Y-38163D01*
X22076Y-38181D01*
X22039Y-38192D01*
X22001Y-38196D01*
X21964Y-38193D01*
X21927Y-38182D01*
X21893Y-38164D01*
X21863Y-38140D01*
X21838Y-38111D01*
X21819Y-38077D01*
X21808Y-38040D01*
X21804Y-38002D01*
X21807Y-37965D01*
X21817Y-37928D01*
X21835Y-37894D01*
X21859Y-37864D01*
X21888Y-37839D01*
X21922Y-37820D01*
X21958Y-37808D01*
X21996Y-37804D01*
X22034Y-37806D01*
X22071Y-37817D01*
X22105Y-37834D01*
X22135Y-37858D01*
X22160Y-37887D01*
X22179Y-37920D01*
X22192Y-37957D01*
X22196Y-37995D01*
X22197Y-38000D01*
X21803Y-37803D02*
X22197Y-38197D01*
X22197Y-37803D02*
X21803Y-38197D01*
X22697Y-36000D02*
X22693Y-36038D01*
X22682Y-36075D01*
X22664Y-36109D01*
X22639Y-36138D01*
X22610Y-36163D01*
X22576Y-36181D01*
X22539Y-36192D01*
X22501Y-36196D01*
X22464Y-36193D01*
X22427Y-36182D01*
X22393Y-36164D01*
X22363Y-36140D01*
X22338Y-36111D01*
X22319Y-36077D01*
X22308Y-36040D01*
X22304Y-36002D01*
X22307Y-35965D01*
X22317Y-35928D01*
X22335Y-35894D01*
X22359Y-35864D01*
X22388Y-35839D01*
X22422Y-35820D01*
X22458Y-35808D01*
X22496Y-35804D01*
X22534Y-35806D01*
X22571Y-35817D01*
X22605Y-35834D01*
X22635Y-35858D01*
X22660Y-35887D01*
X22679Y-35920D01*
X22692Y-35957D01*
X22696Y-35995D01*
X22697Y-36000D01*
X22303Y-35803D02*
X22697Y-36197D01*
X22697Y-35803D02*
X22303Y-36197D01*
X23197Y-38000D02*
X23193Y-38038D01*
X23182Y-38075D01*
X23164Y-38109D01*
X23139Y-38138D01*
X23110Y-38163D01*
X23076Y-38181D01*
X23039Y-38192D01*
X23001Y-38196D01*
X22964Y-38193D01*
X22927Y-38182D01*
X22893Y-38164D01*
X22863Y-38140D01*
X22838Y-38111D01*
X22819Y-38077D01*
X22808Y-38040D01*
X22804Y-38002D01*
X22807Y-37965D01*
X22817Y-37928D01*
X22835Y-37894D01*
X22859Y-37864D01*
X22888Y-37839D01*
X22922Y-37820D01*
X22958Y-37808D01*
X22996Y-37804D01*
X23034Y-37806D01*
X23071Y-37817D01*
X23105Y-37834D01*
X23135Y-37858D01*
X23160Y-37887D01*
X23179Y-37920D01*
X23192Y-37957D01*
X23196Y-37995D01*
X23197Y-38000D01*
X22803Y-37803D02*
X23197Y-38197D01*
X23197Y-37803D02*
X22803Y-38197D01*
X23697Y-36000D02*
X23693Y-36038D01*
X23682Y-36075D01*
X23664Y-36109D01*
X23639Y-36138D01*
X23610Y-36163D01*
X23576Y-36181D01*
X23539Y-36192D01*
X23501Y-36196D01*
X23464Y-36193D01*
X23427Y-36182D01*
X23393Y-36164D01*
X23363Y-36140D01*
X23338Y-36111D01*
X23319Y-36077D01*
X23308Y-36040D01*
X23304Y-36002D01*
X23307Y-35965D01*
X23317Y-35928D01*
X23335Y-35894D01*
X23359Y-35864D01*
X23388Y-35839D01*
X23422Y-35820D01*
X23458Y-35808D01*
X23496Y-35804D01*
X23534Y-35806D01*
X23571Y-35817D01*
X23605Y-35834D01*
X23635Y-35858D01*
X23660Y-35887D01*
X23679Y-35920D01*
X23692Y-35957D01*
X23696Y-35995D01*
X23697Y-36000D01*
X23303Y-35803D02*
X23697Y-36197D01*
X23697Y-35803D02*
X23303Y-36197D01*
X24197Y-38000D02*
X24193Y-38038D01*
X24182Y-38075D01*
X24164Y-38109D01*
X24139Y-38138D01*
X24110Y-38163D01*
X24076Y-38181D01*
X24039Y-38192D01*
X24001Y-38196D01*
X23964Y-38193D01*
X23927Y-38182D01*
X23893Y-38164D01*
X23863Y-38140D01*
X23838Y-38111D01*
X23819Y-38077D01*
X23808Y-38040D01*
X23804Y-38002D01*
X23807Y-37965D01*
X23817Y-37928D01*
X23835Y-37894D01*
X23859Y-37864D01*
X23888Y-37839D01*
X23922Y-37820D01*
X23958Y-37808D01*
X23996Y-37804D01*
X24034Y-37806D01*
X24071Y-37817D01*
X24105Y-37834D01*
X24135Y-37858D01*
X24160Y-37887D01*
X24179Y-37920D01*
X24192Y-37957D01*
X24196Y-37995D01*
X24197Y-38000D01*
X23803Y-37803D02*
X24197Y-38197D01*
X24197Y-37803D02*
X23803Y-38197D01*
X24697Y-36000D02*
X24693Y-36038D01*
X24682Y-36075D01*
X24664Y-36109D01*
X24639Y-36138D01*
X24610Y-36163D01*
X24576Y-36181D01*
X24539Y-36192D01*
X24501Y-36196D01*
X24464Y-36193D01*
X24427Y-36182D01*
X24393Y-36164D01*
X24363Y-36140D01*
X24338Y-36111D01*
X24319Y-36077D01*
X24308Y-36040D01*
X24304Y-36002D01*
X24307Y-35965D01*
X24317Y-35928D01*
X24335Y-35894D01*
X24359Y-35864D01*
X24388Y-35839D01*
X24422Y-35820D01*
X24458Y-35808D01*
X24496Y-35804D01*
X24534Y-35806D01*
X24571Y-35817D01*
X24605Y-35834D01*
X24635Y-35858D01*
X24660Y-35887D01*
X24679Y-35920D01*
X24692Y-35957D01*
X24696Y-35995D01*
X24697Y-36000D01*
X24303Y-35803D02*
X24697Y-36197D01*
X24697Y-35803D02*
X24303Y-36197D01*
X25197Y-38000D02*
X25193Y-38038D01*
X25182Y-38075D01*
X25164Y-38109D01*
X25139Y-38138D01*
X25110Y-38163D01*
X25076Y-38181D01*
X25039Y-38192D01*
X25001Y-38196D01*
X24964Y-38193D01*
X24927Y-38182D01*
X24893Y-38164D01*
X24863Y-38140D01*
X24838Y-38111D01*
X24819Y-38077D01*
X24808Y-38040D01*
X24804Y-38002D01*
X24807Y-37965D01*
X24817Y-37928D01*
X24835Y-37894D01*
X24859Y-37864D01*
X24888Y-37839D01*
X24922Y-37820D01*
X24958Y-37808D01*
X24996Y-37804D01*
X25034Y-37806D01*
X25071Y-37817D01*
X25105Y-37834D01*
X25135Y-37858D01*
X25160Y-37887D01*
X25179Y-37920D01*
X25192Y-37957D01*
X25196Y-37995D01*
X25197Y-38000D01*
X24803Y-37803D02*
X25197Y-38197D01*
X25197Y-37803D02*
X24803Y-38197D01*
X25697Y-36000D02*
X25693Y-36038D01*
X25682Y-36075D01*
X25664Y-36109D01*
X25639Y-36138D01*
X25610Y-36163D01*
X25576Y-36181D01*
X25539Y-36192D01*
X25501Y-36196D01*
X25464Y-36193D01*
X25427Y-36182D01*
X25393Y-36164D01*
X25363Y-36140D01*
X25338Y-36111D01*
X25319Y-36077D01*
X25308Y-36040D01*
X25304Y-36002D01*
X25307Y-35965D01*
X25317Y-35928D01*
X25335Y-35894D01*
X25359Y-35864D01*
X25388Y-35839D01*
X25422Y-35820D01*
X25458Y-35808D01*
X25496Y-35804D01*
X25534Y-35806D01*
X25571Y-35817D01*
X25605Y-35834D01*
X25635Y-35858D01*
X25660Y-35887D01*
X25679Y-35920D01*
X25692Y-35957D01*
X25696Y-35995D01*
X25697Y-36000D01*
X25303Y-35803D02*
X25697Y-36197D01*
X25697Y-35803D02*
X25303Y-36197D01*
X26197Y-38000D02*
X26193Y-38038D01*
X26182Y-38075D01*
X26164Y-38109D01*
X26139Y-38138D01*
X26110Y-38163D01*
X26076Y-38181D01*
X26039Y-38192D01*
X26001Y-38196D01*
X25964Y-38193D01*
X25927Y-38182D01*
X25893Y-38164D01*
X25863Y-38140D01*
X25838Y-38111D01*
X25819Y-38077D01*
X25808Y-38040D01*
X25804Y-38002D01*
X25807Y-37965D01*
X25817Y-37928D01*
X25835Y-37894D01*
X25859Y-37864D01*
X25888Y-37839D01*
X25922Y-37820D01*
X25958Y-37808D01*
X25996Y-37804D01*
X26034Y-37806D01*
X26071Y-37817D01*
X26105Y-37834D01*
X26135Y-37858D01*
X26160Y-37887D01*
X26179Y-37920D01*
X26192Y-37957D01*
X26196Y-37995D01*
X26197Y-38000D01*
X25803Y-37803D02*
X26197Y-38197D01*
X26197Y-37803D02*
X25803Y-38197D01*
X26697Y-36000D02*
X26693Y-36038D01*
X26682Y-36075D01*
X26664Y-36109D01*
X26639Y-36138D01*
X26610Y-36163D01*
X26576Y-36181D01*
X26539Y-36192D01*
X26501Y-36196D01*
X26464Y-36193D01*
X26427Y-36182D01*
X26393Y-36164D01*
X26363Y-36140D01*
X26338Y-36111D01*
X26319Y-36077D01*
X26308Y-36040D01*
X26304Y-36002D01*
X26307Y-35965D01*
X26317Y-35928D01*
X26335Y-35894D01*
X26359Y-35864D01*
X26388Y-35839D01*
X26422Y-35820D01*
X26458Y-35808D01*
X26496Y-35804D01*
X26534Y-35806D01*
X26571Y-35817D01*
X26605Y-35834D01*
X26635Y-35858D01*
X26660Y-35887D01*
X26679Y-35920D01*
X26692Y-35957D01*
X26696Y-35995D01*
X26697Y-36000D01*
X26303Y-35803D02*
X26697Y-36197D01*
X26697Y-35803D02*
X26303Y-36197D01*
X27197Y-38000D02*
X27193Y-38038D01*
X27182Y-38075D01*
X27164Y-38109D01*
X27139Y-38138D01*
X27110Y-38163D01*
X27076Y-38181D01*
X27039Y-38192D01*
X27001Y-38196D01*
X26964Y-38193D01*
X26927Y-38182D01*
X26893Y-38164D01*
X26863Y-38140D01*
X26838Y-38111D01*
X26819Y-38077D01*
X26808Y-38040D01*
X26804Y-38002D01*
X26807Y-37965D01*
X26817Y-37928D01*
X26835Y-37894D01*
X26859Y-37864D01*
X26888Y-37839D01*
X26922Y-37820D01*
X26958Y-37808D01*
X26996Y-37804D01*
X27034Y-37806D01*
X27071Y-37817D01*
X27105Y-37834D01*
X27135Y-37858D01*
X27160Y-37887D01*
X27179Y-37920D01*
X27192Y-37957D01*
X27196Y-37995D01*
X27197Y-38000D01*
X26803Y-37803D02*
X27197Y-38197D01*
X27197Y-37803D02*
X26803Y-38197D01*
X27697Y-36000D02*
X27693Y-36038D01*
X27682Y-36075D01*
X27664Y-36109D01*
X27639Y-36138D01*
X27610Y-36163D01*
X27576Y-36181D01*
X27539Y-36192D01*
X27501Y-36196D01*
X27464Y-36193D01*
X27427Y-36182D01*
X27393Y-36164D01*
X27363Y-36140D01*
X27338Y-36111D01*
X27319Y-36077D01*
X27308Y-36040D01*
X27304Y-36002D01*
X27307Y-35965D01*
X27317Y-35928D01*
X27335Y-35894D01*
X27359Y-35864D01*
X27388Y-35839D01*
X27422Y-35820D01*
X27458Y-35808D01*
X27496Y-35804D01*
X27534Y-35806D01*
X27571Y-35817D01*
X27605Y-35834D01*
X27635Y-35858D01*
X27660Y-35887D01*
X27679Y-35920D01*
X27692Y-35957D01*
X27696Y-35995D01*
X27697Y-36000D01*
X27303Y-35803D02*
X27697Y-36197D01*
X27697Y-35803D02*
X27303Y-36197D01*
X28197Y-38000D02*
X28193Y-38038D01*
X28182Y-38075D01*
X28164Y-38109D01*
X28139Y-38138D01*
X28110Y-38163D01*
X28076Y-38181D01*
X28039Y-38192D01*
X28001Y-38196D01*
X27964Y-38193D01*
X27927Y-38182D01*
X27893Y-38164D01*
X27863Y-38140D01*
X27838Y-38111D01*
X27819Y-38077D01*
X27808Y-38040D01*
X27804Y-38002D01*
X27807Y-37965D01*
X27817Y-37928D01*
X27835Y-37894D01*
X27859Y-37864D01*
X27888Y-37839D01*
X27922Y-37820D01*
X27958Y-37808D01*
X27996Y-37804D01*
X28034Y-37806D01*
X28071Y-37817D01*
X28105Y-37834D01*
X28135Y-37858D01*
X28160Y-37887D01*
X28179Y-37920D01*
X28192Y-37957D01*
X28196Y-37995D01*
X28197Y-38000D01*
X27803Y-37803D02*
X28197Y-38197D01*
X28197Y-37803D02*
X27803Y-38197D01*
X28697Y-17500D02*
X28693Y-17538D01*
X28682Y-17575D01*
X28664Y-17609D01*
X28639Y-17638D01*
X28610Y-17663D01*
X28576Y-17681D01*
X28539Y-17692D01*
X28501Y-17696D01*
X28464Y-17693D01*
X28427Y-17682D01*
X28393Y-17664D01*
X28363Y-17640D01*
X28338Y-17611D01*
X28319Y-17577D01*
X28308Y-17540D01*
X28304Y-17502D01*
X28307Y-17465D01*
X28317Y-17428D01*
X28335Y-17394D01*
X28359Y-17364D01*
X28388Y-17339D01*
X28422Y-17320D01*
X28458Y-17308D01*
X28496Y-17304D01*
X28534Y-17306D01*
X28571Y-17317D01*
X28605Y-17334D01*
X28635Y-17358D01*
X28660Y-17387D01*
X28679Y-17420D01*
X28692Y-17457D01*
X28696Y-17495D01*
X28697Y-17500D01*
X28303Y-17303D02*
X28697Y-17697D01*
X28697Y-17303D02*
X28303Y-17697D01*
X28697Y-18500D02*
X28693Y-18538D01*
X28682Y-18575D01*
X28664Y-18609D01*
X28639Y-18638D01*
X28610Y-18663D01*
X28576Y-18681D01*
X28539Y-18692D01*
X28501Y-18696D01*
X28464Y-18693D01*
X28427Y-18682D01*
X28393Y-18664D01*
X28363Y-18640D01*
X28338Y-18611D01*
X28319Y-18577D01*
X28308Y-18540D01*
X28304Y-18502D01*
X28307Y-18465D01*
X28317Y-18428D01*
X28335Y-18394D01*
X28359Y-18364D01*
X28388Y-18339D01*
X28422Y-18320D01*
X28458Y-18308D01*
X28496Y-18304D01*
X28534Y-18306D01*
X28571Y-18317D01*
X28605Y-18334D01*
X28635Y-18358D01*
X28660Y-18387D01*
X28679Y-18420D01*
X28692Y-18457D01*
X28696Y-18495D01*
X28697Y-18500D01*
X28303Y-18303D02*
X28697Y-18697D01*
X28697Y-18303D02*
X28303Y-18697D01*
X28697Y-19500D02*
X28693Y-19538D01*
X28682Y-19575D01*
X28664Y-19609D01*
X28639Y-19638D01*
X28610Y-19663D01*
X28576Y-19681D01*
X28539Y-19692D01*
X28501Y-19696D01*
X28464Y-19693D01*
X28427Y-19682D01*
X28393Y-19664D01*
X28363Y-19640D01*
X28338Y-19611D01*
X28319Y-19577D01*
X28308Y-19540D01*
X28304Y-19502D01*
X28307Y-19465D01*
X28317Y-19428D01*
X28335Y-19394D01*
X28359Y-19364D01*
X28388Y-19339D01*
X28422Y-19320D01*
X28458Y-19308D01*
X28496Y-19304D01*
X28534Y-19306D01*
X28571Y-19317D01*
X28605Y-19334D01*
X28635Y-19358D01*
X28660Y-19387D01*
X28679Y-19420D01*
X28692Y-19457D01*
X28696Y-19495D01*
X28697Y-19500D01*
X28303Y-19303D02*
X28697Y-19697D01*
X28697Y-19303D02*
X28303Y-19697D01*
X28697Y-20500D02*
X28693Y-20538D01*
X28682Y-20575D01*
X28664Y-20609D01*
X28639Y-20638D01*
X28610Y-20663D01*
X28576Y-20681D01*
X28539Y-20692D01*
X28501Y-20696D01*
X28464Y-20693D01*
X28427Y-20682D01*
X28393Y-20664D01*
X28363Y-20640D01*
X28338Y-20611D01*
X28319Y-20577D01*
X28308Y-20540D01*
X28304Y-20502D01*
X28307Y-20465D01*
X28317Y-20428D01*
X28335Y-20394D01*
X28359Y-20364D01*
X28388Y-20339D01*
X28422Y-20320D01*
X28458Y-20308D01*
X28496Y-20304D01*
X28534Y-20306D01*
X28571Y-20317D01*
X28605Y-20334D01*
X28635Y-20358D01*
X28660Y-20387D01*
X28679Y-20420D01*
X28692Y-20457D01*
X28696Y-20495D01*
X28697Y-20500D01*
X28303Y-20303D02*
X28697Y-20697D01*
X28697Y-20303D02*
X28303Y-20697D01*
X28697Y-21500D02*
X28693Y-21538D01*
X28682Y-21575D01*
X28664Y-21609D01*
X28639Y-21638D01*
X28610Y-21663D01*
X28576Y-21681D01*
X28539Y-21692D01*
X28501Y-21696D01*
X28464Y-21693D01*
X28427Y-21682D01*
X28393Y-21664D01*
X28363Y-21640D01*
X28338Y-21611D01*
X28319Y-21577D01*
X28308Y-21540D01*
X28304Y-21502D01*
X28307Y-21465D01*
X28317Y-21428D01*
X28335Y-21394D01*
X28359Y-21364D01*
X28388Y-21339D01*
X28422Y-21320D01*
X28458Y-21308D01*
X28496Y-21304D01*
X28534Y-21306D01*
X28571Y-21317D01*
X28605Y-21334D01*
X28635Y-21358D01*
X28660Y-21387D01*
X28679Y-21420D01*
X28692Y-21457D01*
X28696Y-21495D01*
X28697Y-21500D01*
X28303Y-21303D02*
X28697Y-21697D01*
X28697Y-21303D02*
X28303Y-21697D01*
X28697Y-22500D02*
X28693Y-22538D01*
X28682Y-22575D01*
X28664Y-22609D01*
X28639Y-22638D01*
X28610Y-22663D01*
X28576Y-22681D01*
X28539Y-22692D01*
X28501Y-22696D01*
X28464Y-22693D01*
X28427Y-22682D01*
X28393Y-22664D01*
X28363Y-22640D01*
X28338Y-22611D01*
X28319Y-22577D01*
X28308Y-22540D01*
X28304Y-22502D01*
X28307Y-22465D01*
X28317Y-22428D01*
X28335Y-22394D01*
X28359Y-22364D01*
X28388Y-22339D01*
X28422Y-22320D01*
X28458Y-22308D01*
X28496Y-22304D01*
X28534Y-22306D01*
X28571Y-22317D01*
X28605Y-22334D01*
X28635Y-22358D01*
X28660Y-22387D01*
X28679Y-22420D01*
X28692Y-22457D01*
X28696Y-22495D01*
X28697Y-22500D01*
X28303Y-22303D02*
X28697Y-22697D01*
X28697Y-22303D02*
X28303Y-22697D01*
X28697Y-23500D02*
X28693Y-23538D01*
X28682Y-23575D01*
X28664Y-23609D01*
X28639Y-23638D01*
X28610Y-23663D01*
X28576Y-23681D01*
X28539Y-23692D01*
X28501Y-23696D01*
X28464Y-23693D01*
X28427Y-23682D01*
X28393Y-23664D01*
X28363Y-23640D01*
X28338Y-23611D01*
X28319Y-23577D01*
X28308Y-23540D01*
X28304Y-23502D01*
X28307Y-23465D01*
X28317Y-23428D01*
X28335Y-23394D01*
X28359Y-23364D01*
X28388Y-23339D01*
X28422Y-23320D01*
X28458Y-23308D01*
X28496Y-23304D01*
X28534Y-23306D01*
X28571Y-23317D01*
X28605Y-23334D01*
X28635Y-23358D01*
X28660Y-23387D01*
X28679Y-23420D01*
X28692Y-23457D01*
X28696Y-23495D01*
X28697Y-23500D01*
X28303Y-23303D02*
X28697Y-23697D01*
X28697Y-23303D02*
X28303Y-23697D01*
X28697Y-36000D02*
X28693Y-36038D01*
X28682Y-36075D01*
X28664Y-36109D01*
X28639Y-36138D01*
X28610Y-36163D01*
X28576Y-36181D01*
X28539Y-36192D01*
X28501Y-36196D01*
X28464Y-36193D01*
X28427Y-36182D01*
X28393Y-36164D01*
X28363Y-36140D01*
X28338Y-36111D01*
X28319Y-36077D01*
X28308Y-36040D01*
X28304Y-36002D01*
X28307Y-35965D01*
X28317Y-35928D01*
X28335Y-35894D01*
X28359Y-35864D01*
X28388Y-35839D01*
X28422Y-35820D01*
X28458Y-35808D01*
X28496Y-35804D01*
X28534Y-35806D01*
X28571Y-35817D01*
X28605Y-35834D01*
X28635Y-35858D01*
X28660Y-35887D01*
X28679Y-35920D01*
X28692Y-35957D01*
X28696Y-35995D01*
X28697Y-36000D01*
X28303Y-35803D02*
X28697Y-36197D01*
X28697Y-35803D02*
X28303Y-36197D01*
X29197Y-38000D02*
X29193Y-38038D01*
X29182Y-38075D01*
X29164Y-38109D01*
X29139Y-38138D01*
X29110Y-38163D01*
X29076Y-38181D01*
X29039Y-38192D01*
X29001Y-38196D01*
X28964Y-38193D01*
X28927Y-38182D01*
X28893Y-38164D01*
X28863Y-38140D01*
X28838Y-38111D01*
X28819Y-38077D01*
X28808Y-38040D01*
X28804Y-38002D01*
X28807Y-37965D01*
X28817Y-37928D01*
X28835Y-37894D01*
X28859Y-37864D01*
X28888Y-37839D01*
X28922Y-37820D01*
X28958Y-37808D01*
X28996Y-37804D01*
X29034Y-37806D01*
X29071Y-37817D01*
X29105Y-37834D01*
X29135Y-37858D01*
X29160Y-37887D01*
X29179Y-37920D01*
X29192Y-37957D01*
X29196Y-37995D01*
X29197Y-38000D01*
X28803Y-37803D02*
X29197Y-38197D01*
X29197Y-37803D02*
X28803Y-38197D01*
X30697Y-17000D02*
X30693Y-17038D01*
X30682Y-17075D01*
X30664Y-17109D01*
X30639Y-17138D01*
X30610Y-17163D01*
X30576Y-17181D01*
X30539Y-17192D01*
X30501Y-17196D01*
X30464Y-17193D01*
X30427Y-17182D01*
X30393Y-17164D01*
X30363Y-17140D01*
X30338Y-17111D01*
X30319Y-17077D01*
X30308Y-17040D01*
X30304Y-17002D01*
X30307Y-16965D01*
X30317Y-16928D01*
X30335Y-16894D01*
X30359Y-16864D01*
X30388Y-16839D01*
X30422Y-16820D01*
X30458Y-16808D01*
X30496Y-16804D01*
X30534Y-16806D01*
X30571Y-16817D01*
X30605Y-16834D01*
X30635Y-16858D01*
X30660Y-16887D01*
X30679Y-16920D01*
X30692Y-16957D01*
X30696Y-16995D01*
X30697Y-17000D01*
X30303Y-16803D02*
X30697Y-17197D01*
X30697Y-16803D02*
X30303Y-17197D01*
X30697Y-18000D02*
X30693Y-18038D01*
X30682Y-18075D01*
X30664Y-18109D01*
X30639Y-18138D01*
X30610Y-18163D01*
X30576Y-18181D01*
X30539Y-18192D01*
X30501Y-18196D01*
X30464Y-18193D01*
X30427Y-18182D01*
X30393Y-18164D01*
X30363Y-18140D01*
X30338Y-18111D01*
X30319Y-18077D01*
X30308Y-18040D01*
X30304Y-18002D01*
X30307Y-17965D01*
X30317Y-17928D01*
X30335Y-17894D01*
X30359Y-17864D01*
X30388Y-17839D01*
X30422Y-17820D01*
X30458Y-17808D01*
X30496Y-17804D01*
X30534Y-17806D01*
X30571Y-17817D01*
X30605Y-17834D01*
X30635Y-17858D01*
X30660Y-17887D01*
X30679Y-17920D01*
X30692Y-17957D01*
X30696Y-17995D01*
X30697Y-18000D01*
X30303Y-17803D02*
X30697Y-18197D01*
X30697Y-17803D02*
X30303Y-18197D01*
X30697Y-19000D02*
X30693Y-19038D01*
X30682Y-19075D01*
X30664Y-19109D01*
X30639Y-19138D01*
X30610Y-19163D01*
X30576Y-19181D01*
X30539Y-19192D01*
X30501Y-19196D01*
X30464Y-19193D01*
X30427Y-19182D01*
X30393Y-19164D01*
X30363Y-19140D01*
X30338Y-19111D01*
X30319Y-19077D01*
X30308Y-19040D01*
X30304Y-19002D01*
X30307Y-18965D01*
X30317Y-18928D01*
X30335Y-18894D01*
X30359Y-18864D01*
X30388Y-18839D01*
X30422Y-18820D01*
X30458Y-18808D01*
X30496Y-18804D01*
X30534Y-18806D01*
X30571Y-18817D01*
X30605Y-18834D01*
X30635Y-18858D01*
X30660Y-18887D01*
X30679Y-18920D01*
X30692Y-18957D01*
X30696Y-18995D01*
X30697Y-19000D01*
X30303Y-18803D02*
X30697Y-19197D01*
X30697Y-18803D02*
X30303Y-19197D01*
X30697Y-20000D02*
X30693Y-20038D01*
X30682Y-20075D01*
X30664Y-20109D01*
X30639Y-20138D01*
X30610Y-20163D01*
X30576Y-20181D01*
X30539Y-20192D01*
X30501Y-20196D01*
X30464Y-20193D01*
X30427Y-20182D01*
X30393Y-20164D01*
X30363Y-20140D01*
X30338Y-20111D01*
X30319Y-20077D01*
X30308Y-20040D01*
X30304Y-20002D01*
X30307Y-19965D01*
X30317Y-19928D01*
X30335Y-19894D01*
X30359Y-19864D01*
X30388Y-19839D01*
X30422Y-19820D01*
X30458Y-19808D01*
X30496Y-19804D01*
X30534Y-19806D01*
X30571Y-19817D01*
X30605Y-19834D01*
X30635Y-19858D01*
X30660Y-19887D01*
X30679Y-19920D01*
X30692Y-19957D01*
X30696Y-19995D01*
X30697Y-20000D01*
X30303Y-19803D02*
X30697Y-20197D01*
X30697Y-19803D02*
X30303Y-20197D01*
X30697Y-21000D02*
X30693Y-21038D01*
X30682Y-21075D01*
X30664Y-21109D01*
X30639Y-21138D01*
X30610Y-21163D01*
X30576Y-21181D01*
X30539Y-21192D01*
X30501Y-21196D01*
X30464Y-21193D01*
X30427Y-21182D01*
X30393Y-21164D01*
X30363Y-21140D01*
X30338Y-21111D01*
X30319Y-21077D01*
X30308Y-21040D01*
X30304Y-21002D01*
X30307Y-20965D01*
X30317Y-20928D01*
X30335Y-20894D01*
X30359Y-20864D01*
X30388Y-20839D01*
X30422Y-20820D01*
X30458Y-20808D01*
X30496Y-20804D01*
X30534Y-20806D01*
X30571Y-20817D01*
X30605Y-20834D01*
X30635Y-20858D01*
X30660Y-20887D01*
X30679Y-20920D01*
X30692Y-20957D01*
X30696Y-20995D01*
X30697Y-21000D01*
X30303Y-20803D02*
X30697Y-21197D01*
X30697Y-20803D02*
X30303Y-21197D01*
X30697Y-22000D02*
X30693Y-22038D01*
X30682Y-22075D01*
X30664Y-22109D01*
X30639Y-22138D01*
X30610Y-22163D01*
X30576Y-22181D01*
X30539Y-22192D01*
X30501Y-22196D01*
X30464Y-22193D01*
X30427Y-22182D01*
X30393Y-22164D01*
X30363Y-22140D01*
X30338Y-22111D01*
X30319Y-22077D01*
X30308Y-22040D01*
X30304Y-22002D01*
X30307Y-21965D01*
X30317Y-21928D01*
X30335Y-21894D01*
X30359Y-21864D01*
X30388Y-21839D01*
X30422Y-21820D01*
X30458Y-21808D01*
X30496Y-21804D01*
X30534Y-21806D01*
X30571Y-21817D01*
X30605Y-21834D01*
X30635Y-21858D01*
X30660Y-21887D01*
X30679Y-21920D01*
X30692Y-21957D01*
X30696Y-21995D01*
X30697Y-22000D01*
X30303Y-21803D02*
X30697Y-22197D01*
X30697Y-21803D02*
X30303Y-22197D01*
X30697Y-23000D02*
X30693Y-23038D01*
X30682Y-23075D01*
X30664Y-23109D01*
X30639Y-23138D01*
X30610Y-23163D01*
X30576Y-23181D01*
X30539Y-23192D01*
X30501Y-23196D01*
X30464Y-23193D01*
X30427Y-23182D01*
X30393Y-23164D01*
X30363Y-23140D01*
X30338Y-23111D01*
X30319Y-23077D01*
X30308Y-23040D01*
X30304Y-23002D01*
X30307Y-22965D01*
X30317Y-22928D01*
X30335Y-22894D01*
X30359Y-22864D01*
X30388Y-22839D01*
X30422Y-22820D01*
X30458Y-22808D01*
X30496Y-22804D01*
X30534Y-22806D01*
X30571Y-22817D01*
X30605Y-22834D01*
X30635Y-22858D01*
X30660Y-22887D01*
X30679Y-22920D01*
X30692Y-22957D01*
X30696Y-22995D01*
X30697Y-23000D01*
X30303Y-22803D02*
X30697Y-23197D01*
X30697Y-22803D02*
X30303Y-23197D01*
X30697Y-24000D02*
X30693Y-24038D01*
X30682Y-24075D01*
X30664Y-24109D01*
X30639Y-24138D01*
X30610Y-24163D01*
X30576Y-24181D01*
X30539Y-24192D01*
X30501Y-24196D01*
X30464Y-24193D01*
X30427Y-24182D01*
X30393Y-24164D01*
X30363Y-24140D01*
X30338Y-24111D01*
X30319Y-24077D01*
X30308Y-24040D01*
X30304Y-24002D01*
X30307Y-23965D01*
X30317Y-23928D01*
X30335Y-23894D01*
X30359Y-23864D01*
X30388Y-23839D01*
X30422Y-23820D01*
X30458Y-23808D01*
X30496Y-23804D01*
X30534Y-23806D01*
X30571Y-23817D01*
X30605Y-23834D01*
X30635Y-23858D01*
X30660Y-23887D01*
X30679Y-23920D01*
X30692Y-23957D01*
X30696Y-23995D01*
X30697Y-24000D01*
X30303Y-23803D02*
X30697Y-24197D01*
X30697Y-23803D02*
X30303Y-24197D01*
X33197Y-17500D02*
X33193Y-17538D01*
X33182Y-17575D01*
X33164Y-17609D01*
X33139Y-17638D01*
X33110Y-17663D01*
X33076Y-17681D01*
X33039Y-17692D01*
X33001Y-17696D01*
X32964Y-17693D01*
X32927Y-17682D01*
X32893Y-17664D01*
X32863Y-17640D01*
X32838Y-17611D01*
X32819Y-17577D01*
X32808Y-17540D01*
X32804Y-17502D01*
X32807Y-17465D01*
X32817Y-17428D01*
X32835Y-17394D01*
X32859Y-17364D01*
X32888Y-17339D01*
X32922Y-17320D01*
X32958Y-17308D01*
X32996Y-17304D01*
X33034Y-17306D01*
X33071Y-17317D01*
X33105Y-17334D01*
X33135Y-17358D01*
X33160Y-17387D01*
X33179Y-17420D01*
X33192Y-17457D01*
X33196Y-17495D01*
X33197Y-17500D01*
X32803Y-17303D02*
X33197Y-17697D01*
X33197Y-17303D02*
X32803Y-17697D01*
X33197Y-18500D02*
X33193Y-18538D01*
X33182Y-18575D01*
X33164Y-18609D01*
X33139Y-18638D01*
X33110Y-18663D01*
X33076Y-18681D01*
X33039Y-18692D01*
X33001Y-18696D01*
X32964Y-18693D01*
X32927Y-18682D01*
X32893Y-18664D01*
X32863Y-18640D01*
X32838Y-18611D01*
X32819Y-18577D01*
X32808Y-18540D01*
X32804Y-18502D01*
X32807Y-18465D01*
X32817Y-18428D01*
X32835Y-18394D01*
X32859Y-18364D01*
X32888Y-18339D01*
X32922Y-18320D01*
X32958Y-18308D01*
X32996Y-18304D01*
X33034Y-18306D01*
X33071Y-18317D01*
X33105Y-18334D01*
X33135Y-18358D01*
X33160Y-18387D01*
X33179Y-18420D01*
X33192Y-18457D01*
X33196Y-18495D01*
X33197Y-18500D01*
X32803Y-18303D02*
X33197Y-18697D01*
X33197Y-18303D02*
X32803Y-18697D01*
X50197Y-24500D02*
X50193Y-24538D01*
X50182Y-24575D01*
X50164Y-24609D01*
X50139Y-24638D01*
X50110Y-24663D01*
X50076Y-24681D01*
X50039Y-24692D01*
X50001Y-24696D01*
X49964Y-24693D01*
X49927Y-24682D01*
X49893Y-24664D01*
X49863Y-24640D01*
X49838Y-24611D01*
X49819Y-24577D01*
X49808Y-24540D01*
X49804Y-24502D01*
X49807Y-24465D01*
X49817Y-24428D01*
X49835Y-24394D01*
X49859Y-24364D01*
X49888Y-24339D01*
X49922Y-24320D01*
X49958Y-24308D01*
X49996Y-24304D01*
X50034Y-24306D01*
X50071Y-24317D01*
X50105Y-24334D01*
X50135Y-24358D01*
X50160Y-24387D01*
X50179Y-24420D01*
X50192Y-24457D01*
X50196Y-24495D01*
X50197Y-24500D01*
X49803Y-24303D02*
X50197Y-24697D01*
X50197Y-24303D02*
X49803Y-24697D01*
X50197Y-25500D02*
X50193Y-25538D01*
X50182Y-25575D01*
X50164Y-25609D01*
X50139Y-25638D01*
X50110Y-25663D01*
X50076Y-25681D01*
X50039Y-25692D01*
X50001Y-25696D01*
X49964Y-25693D01*
X49927Y-25682D01*
X49893Y-25664D01*
X49863Y-25640D01*
X49838Y-25611D01*
X49819Y-25577D01*
X49808Y-25540D01*
X49804Y-25502D01*
X49807Y-25465D01*
X49817Y-25428D01*
X49835Y-25394D01*
X49859Y-25364D01*
X49888Y-25339D01*
X49922Y-25320D01*
X49958Y-25308D01*
X49996Y-25304D01*
X50034Y-25306D01*
X50071Y-25317D01*
X50105Y-25334D01*
X50135Y-25358D01*
X50160Y-25387D01*
X50179Y-25420D01*
X50192Y-25457D01*
X50196Y-25495D01*
X50197Y-25500D01*
X49803Y-25303D02*
X50197Y-25697D01*
X50197Y-25303D02*
X49803Y-25697D01*
X42716Y-25000D02*
X42711Y-25041D01*
X42699Y-25082D01*
X42679Y-25119D01*
X42653Y-25152D01*
X42620Y-25179D01*
X42583Y-25199D01*
X42543Y-25211D01*
X42501Y-25215D01*
X42460Y-25212D01*
X42420Y-25200D01*
X42382Y-25180D01*
X42349Y-25154D01*
X42322Y-25122D01*
X42302Y-25085D01*
X42289Y-25044D01*
X42285Y-25003D01*
X42288Y-24962D01*
X42300Y-24921D01*
X42319Y-24883D01*
X42345Y-24850D01*
X42377Y-24823D01*
X42414Y-24803D01*
X42454Y-24790D01*
X42496Y-24785D01*
X42537Y-24788D01*
X42578Y-24799D01*
X42615Y-24818D01*
X42648Y-24844D01*
X42676Y-24876D01*
X42697Y-24913D01*
X42710Y-24953D01*
X42715Y-24994D01*
X42716Y-25000D01*
X42284Y-25000D02*
X42716Y-25000D01*
X43716Y-25000D02*
X43711Y-25041D01*
X43699Y-25082D01*
X43679Y-25119D01*
X43653Y-25152D01*
X43620Y-25179D01*
X43583Y-25199D01*
X43543Y-25211D01*
X43501Y-25215D01*
X43460Y-25212D01*
X43420Y-25200D01*
X43382Y-25180D01*
X43349Y-25154D01*
X43322Y-25122D01*
X43302Y-25085D01*
X43289Y-25044D01*
X43285Y-25003D01*
X43288Y-24962D01*
X43300Y-24921D01*
X43319Y-24883D01*
X43345Y-24850D01*
X43377Y-24823D01*
X43414Y-24803D01*
X43454Y-24790D01*
X43496Y-24785D01*
X43537Y-24788D01*
X43578Y-24799D01*
X43615Y-24818D01*
X43648Y-24844D01*
X43676Y-24876D01*
X43697Y-24913D01*
X43710Y-24953D01*
X43715Y-24994D01*
X43716Y-25000D01*
X43284Y-25000D02*
X43716Y-25000D01*
X44716Y-25000D02*
X44711Y-25041D01*
X44699Y-25082D01*
X44679Y-25119D01*
X44653Y-25152D01*
X44620Y-25179D01*
X44583Y-25199D01*
X44543Y-25211D01*
X44501Y-25215D01*
X44460Y-25212D01*
X44420Y-25200D01*
X44382Y-25180D01*
X44349Y-25154D01*
X44322Y-25122D01*
X44302Y-25085D01*
X44289Y-25044D01*
X44285Y-25003D01*
X44288Y-24962D01*
X44300Y-24921D01*
X44319Y-24883D01*
X44345Y-24850D01*
X44377Y-24823D01*
X44414Y-24803D01*
X44454Y-24790D01*
X44496Y-24785D01*
X44537Y-24788D01*
X44578Y-24799D01*
X44615Y-24818D01*
X44648Y-24844D01*
X44676Y-24876D01*
X44697Y-24913D01*
X44710Y-24953D01*
X44715Y-24994D01*
X44716Y-25000D01*
X44284Y-25000D02*
X44716Y-25000D01*
X14140Y-18000D02*
X14127Y-18124D01*
X14091Y-18243D01*
X14033Y-18354D01*
X13954Y-18450D01*
X13857Y-18530D01*
X13748Y-18589D01*
X13628Y-18626D01*
X13504Y-18639D01*
X13381Y-18628D01*
X13261Y-18593D01*
X13150Y-18535D01*
X13053Y-18457D01*
X12972Y-18361D01*
X12912Y-18252D01*
X12874Y-18133D01*
X12861Y-18008D01*
X12871Y-17885D01*
X12905Y-17765D01*
X12963Y-17654D01*
X13040Y-17556D01*
X13135Y-17475D01*
X13244Y-17414D01*
X13363Y-17375D01*
X13487Y-17361D01*
X13611Y-17370D01*
X13731Y-17404D01*
X13842Y-17460D01*
X13941Y-17537D01*
X14022Y-17632D01*
X14084Y-17740D01*
X14124Y-17859D01*
X14139Y-17983D01*
X14140Y-18000D01*
X13500Y-17360D02*
X13500Y-18640D01*
X25140Y-42000D02*
X25127Y-42124D01*
X25091Y-42243D01*
X25033Y-42354D01*
X24954Y-42450D01*
X24857Y-42530D01*
X24748Y-42589D01*
X24628Y-42626D01*
X24504Y-42639D01*
X24381Y-42628D01*
X24261Y-42593D01*
X24150Y-42535D01*
X24053Y-42457D01*
X23972Y-42361D01*
X23912Y-42252D01*
X23874Y-42133D01*
X23861Y-42008D01*
X23871Y-41885D01*
X23905Y-41765D01*
X23963Y-41654D01*
X24040Y-41556D01*
X24135Y-41475D01*
X24244Y-41414D01*
X24363Y-41375D01*
X24487Y-41361D01*
X24611Y-41370D01*
X24731Y-41404D01*
X24842Y-41460D01*
X24941Y-41537D01*
X25022Y-41632D01*
X25084Y-41740D01*
X25124Y-41859D01*
X25139Y-41983D01*
X25140Y-42000D01*
X24500Y-41360D02*
X24500Y-42640D01*
X48140Y-32500D02*
X48127Y-32624D01*
X48091Y-32743D01*
X48033Y-32854D01*
X47954Y-32950D01*
X47857Y-33030D01*
X47748Y-33089D01*
X47628Y-33126D01*
X47504Y-33139D01*
X47381Y-33128D01*
X47261Y-33093D01*
X47150Y-33035D01*
X47053Y-32957D01*
X46972Y-32861D01*
X46912Y-32752D01*
X46874Y-32633D01*
X46861Y-32508D01*
X46871Y-32385D01*
X46905Y-32265D01*
X46963Y-32154D01*
X47040Y-32056D01*
X47135Y-31975D01*
X47244Y-31914D01*
X47363Y-31875D01*
X47487Y-31861D01*
X47611Y-31870D01*
X47731Y-31904D01*
X47842Y-31960D01*
X47941Y-32037D01*
X48022Y-32132D01*
X48084Y-32240D01*
X48124Y-32359D01*
X48139Y-32483D01*
X48140Y-32500D01*
X47500Y-31860D02*
X47500Y-33140D01*
X48140Y-36500D02*
X48127Y-36624D01*
X48091Y-36743D01*
X48033Y-36854D01*
X47954Y-36950D01*
X47857Y-37030D01*
X47748Y-37089D01*
X47628Y-37126D01*
X47504Y-37139D01*
X47381Y-37128D01*
X47261Y-37093D01*
X47150Y-37035D01*
X47053Y-36957D01*
X46972Y-36861D01*
X46912Y-36752D01*
X46874Y-36633D01*
X46861Y-36508D01*
X46871Y-36385D01*
X46905Y-36265D01*
X46963Y-36154D01*
X47040Y-36056D01*
X47135Y-35975D01*
X47244Y-35914D01*
X47363Y-35875D01*
X47487Y-35861D01*
X47611Y-35870D01*
X47731Y-35904D01*
X47842Y-35960D01*
X47941Y-36037D01*
X48022Y-36132D01*
X48084Y-36240D01*
X48124Y-36359D01*
X48139Y-36483D01*
X48140Y-36500D01*
X47500Y-35860D02*
X47500Y-37140D01*
X51140Y-43000D02*
X51127Y-43124D01*
X51091Y-43243D01*
X51033Y-43354D01*
X50954Y-43450D01*
X50857Y-43530D01*
X50748Y-43589D01*
X50628Y-43626D01*
X50504Y-43639D01*
X50381Y-43628D01*
X50261Y-43593D01*
X50150Y-43535D01*
X50053Y-43457D01*
X49972Y-43361D01*
X49912Y-43252D01*
X49874Y-43133D01*
X49861Y-43008D01*
X49871Y-42885D01*
X49905Y-42765D01*
X49963Y-42654D01*
X50040Y-42556D01*
X50135Y-42475D01*
X50244Y-42414D01*
X50363Y-42375D01*
X50487Y-42361D01*
X50611Y-42370D01*
X50731Y-42404D01*
X50842Y-42460D01*
X50941Y-42537D01*
X51022Y-42632D01*
X51084Y-42740D01*
X51124Y-42859D01*
X51139Y-42983D01*
X51140Y-43000D01*
X50500Y-42360D02*
X50500Y-43640D01*
G54D12*
X11314Y-46780D02*
X11314Y-45980D01*
X11505Y-45980D01*
X11619Y-46018D01*
X11695Y-46094D01*
X11734Y-46170D01*
X11772Y-46323D01*
X11772Y-46437D01*
X11734Y-46589D01*
X11695Y-46666D01*
X11619Y-46742D01*
X11505Y-46780D01*
X11314Y-46780D01*
X12114Y-46780D02*
X12114Y-46246D01*
X12114Y-46399D02*
X12153Y-46323D01*
X12191Y-46285D01*
X12267Y-46246D01*
X12343Y-46246D01*
X12609Y-46780D02*
X12609Y-46246D01*
X12609Y-45980D02*
X12571Y-46018D01*
X12609Y-46056D01*
X12648Y-46018D01*
X12609Y-45980D01*
X12609Y-46056D01*
X13105Y-46780D02*
X13029Y-46742D01*
X12990Y-46666D01*
X12990Y-45980D01*
X13524Y-46780D02*
X13448Y-46742D01*
X13409Y-46666D01*
X13409Y-45980D01*
X14438Y-46780D02*
X14438Y-45980D01*
X14705Y-46551D01*
X14972Y-45980D01*
X14972Y-46780D01*
X15695Y-46780D02*
X15695Y-46361D01*
X15657Y-46285D01*
X15581Y-46246D01*
X15429Y-46246D01*
X15352Y-46285D01*
X15695Y-46742D02*
X15619Y-46780D01*
X15429Y-46780D01*
X15352Y-46742D01*
X15314Y-46666D01*
X15314Y-46589D01*
X15352Y-46513D01*
X15429Y-46475D01*
X15619Y-46475D01*
X15695Y-46437D01*
X16076Y-46246D02*
X16076Y-47046D01*
X16076Y-46285D02*
X16153Y-46246D01*
X16305Y-46246D01*
X16381Y-46285D01*
X16419Y-46323D01*
X16457Y-46399D01*
X16457Y-46627D01*
X16419Y-46704D01*
X16381Y-46742D01*
X16305Y-46780D01*
X16153Y-46780D01*
X16076Y-46742D01*
X16800Y-46704D02*
X16839Y-46742D01*
X16800Y-46780D01*
X16762Y-46742D01*
X16800Y-46704D01*
X16800Y-46780D01*
X16800Y-46285D02*
X16839Y-46323D01*
X16800Y-46361D01*
X16762Y-46323D01*
X16800Y-46285D01*
X16800Y-46361D01*
X10688Y-48018D02*
X10924Y-48254D01*
X10924Y-48018D02*
X10688Y-48254D01*
X11467Y-47660D02*
X11543Y-47660D01*
X11619Y-47698D01*
X11657Y-47736D01*
X11695Y-47812D01*
X11734Y-47965D01*
X11734Y-48155D01*
X11695Y-48307D01*
X11657Y-48384D01*
X11619Y-48422D01*
X11543Y-48460D01*
X11467Y-48460D01*
X11391Y-48422D01*
X11353Y-48384D01*
X11314Y-48307D01*
X11276Y-48155D01*
X11276Y-47965D01*
X11314Y-47812D01*
X11353Y-47736D01*
X11391Y-47698D01*
X11467Y-47660D01*
X12076Y-48384D02*
X12115Y-48422D01*
X12076Y-48460D01*
X12038Y-48422D01*
X12076Y-48384D01*
X12076Y-48460D01*
X12800Y-47660D02*
X12648Y-47660D01*
X12572Y-47698D01*
X12534Y-47736D01*
X12457Y-47850D01*
X12419Y-48003D01*
X12419Y-48307D01*
X12457Y-48384D01*
X12496Y-48422D01*
X12572Y-48460D01*
X12724Y-48460D01*
X12800Y-48422D01*
X12838Y-48384D01*
X12877Y-48307D01*
X12877Y-48117D01*
X12838Y-48041D01*
X12800Y-48003D01*
X12724Y-47965D01*
X12572Y-47965D01*
X12496Y-48003D01*
X12457Y-48041D01*
X12419Y-48117D01*
X13372Y-47660D02*
X13448Y-47660D01*
X13524Y-47698D01*
X13562Y-47736D01*
X13600Y-47812D01*
X13639Y-47965D01*
X13639Y-48155D01*
X13600Y-48307D01*
X13562Y-48384D01*
X13524Y-48422D01*
X13448Y-48460D01*
X13372Y-48460D01*
X13296Y-48422D01*
X13258Y-48384D01*
X13219Y-48307D01*
X13181Y-48155D01*
X13181Y-47965D01*
X13219Y-47812D01*
X13258Y-47736D01*
X13296Y-47698D01*
X13372Y-47660D01*
X13981Y-48460D02*
X13981Y-47926D01*
X13981Y-48003D02*
X14020Y-47965D01*
X14096Y-47926D01*
X14210Y-47926D01*
X14286Y-47965D01*
X14324Y-48041D01*
X14324Y-48460D01*
X14324Y-48041D02*
X14362Y-47965D01*
X14439Y-47926D01*
X14553Y-47926D01*
X14629Y-47965D01*
X14667Y-48041D01*
X14667Y-48460D01*
X15048Y-48460D02*
X15048Y-47926D01*
X15048Y-48003D02*
X15087Y-47965D01*
X15163Y-47926D01*
X15277Y-47926D01*
X15353Y-47965D01*
X15391Y-48041D01*
X15391Y-48460D01*
X15391Y-48041D02*
X15429Y-47965D01*
X15506Y-47926D01*
X15620Y-47926D01*
X15696Y-47965D01*
X15734Y-48041D01*
X15734Y-48460D01*
X17297Y-47622D02*
X16611Y-48650D01*
X18326Y-47660D02*
X18402Y-47660D01*
X18478Y-47698D01*
X18516Y-47736D01*
X18554Y-47812D01*
X18593Y-47965D01*
X18593Y-48155D01*
X18554Y-48307D01*
X18516Y-48384D01*
X18478Y-48422D01*
X18402Y-48460D01*
X18326Y-48460D01*
X18250Y-48422D01*
X18212Y-48384D01*
X18173Y-48307D01*
X18135Y-48155D01*
X18135Y-47965D01*
X18173Y-47812D01*
X18212Y-47736D01*
X18250Y-47698D01*
X18326Y-47660D01*
X18935Y-48384D02*
X18974Y-48422D01*
X18935Y-48460D01*
X18897Y-48422D01*
X18935Y-48384D01*
X18935Y-48460D01*
X19469Y-47660D02*
X19545Y-47660D01*
X19621Y-47698D01*
X19659Y-47736D01*
X19697Y-47812D01*
X19736Y-47965D01*
X19736Y-48155D01*
X19697Y-48307D01*
X19659Y-48384D01*
X19621Y-48422D01*
X19545Y-48460D01*
X19469Y-48460D01*
X19393Y-48422D01*
X19355Y-48384D01*
X19316Y-48307D01*
X19278Y-48155D01*
X19278Y-47965D01*
X19316Y-47812D01*
X19355Y-47736D01*
X19393Y-47698D01*
X19469Y-47660D01*
X20040Y-47736D02*
X20078Y-47698D01*
X20155Y-47660D01*
X20345Y-47660D01*
X20421Y-47698D01*
X20459Y-47736D01*
X20498Y-47812D01*
X20498Y-47888D01*
X20459Y-48003D01*
X20002Y-48460D01*
X20498Y-48460D01*
X21183Y-47926D02*
X21183Y-48460D01*
X20993Y-47622D02*
X20802Y-48193D01*
X21298Y-48193D01*
X21564Y-47660D02*
X21564Y-47812D01*
X21869Y-47660D02*
X21869Y-47812D01*
X23051Y-48765D02*
X23013Y-48726D01*
X22937Y-48612D01*
X22899Y-48536D01*
X22861Y-48422D01*
X22822Y-48231D01*
X22822Y-48079D01*
X22861Y-47888D01*
X22899Y-47774D01*
X22937Y-47698D01*
X23013Y-47584D01*
X23051Y-47546D01*
X23279Y-47660D02*
X23775Y-47660D01*
X23508Y-47965D01*
X23622Y-47965D01*
X23698Y-48003D01*
X23736Y-48041D01*
X23775Y-48117D01*
X23775Y-48307D01*
X23736Y-48384D01*
X23698Y-48422D01*
X23622Y-48460D01*
X23394Y-48460D01*
X23317Y-48422D01*
X23279Y-48384D01*
X24460Y-47926D02*
X24460Y-48460D01*
X24270Y-47622D02*
X24079Y-48193D01*
X24575Y-48193D01*
X25489Y-48460D02*
X25489Y-47660D01*
X25832Y-48460D02*
X25832Y-48041D01*
X25794Y-47965D01*
X25718Y-47926D01*
X25604Y-47926D01*
X25528Y-47965D01*
X25489Y-48003D01*
X26328Y-48460D02*
X26252Y-48422D01*
X26213Y-48384D01*
X26175Y-48307D01*
X26175Y-48079D01*
X26213Y-48003D01*
X26252Y-47965D01*
X26328Y-47926D01*
X26442Y-47926D01*
X26518Y-47965D01*
X26556Y-48003D01*
X26594Y-48079D01*
X26594Y-48307D01*
X26556Y-48384D01*
X26518Y-48422D01*
X26442Y-48460D01*
X26328Y-48460D01*
X27052Y-48460D02*
X26976Y-48422D01*
X26937Y-48346D01*
X26937Y-47660D01*
X27661Y-48422D02*
X27585Y-48460D01*
X27433Y-48460D01*
X27356Y-48422D01*
X27318Y-48346D01*
X27318Y-48041D01*
X27356Y-47965D01*
X27433Y-47926D01*
X27585Y-47926D01*
X27661Y-47965D01*
X27699Y-48041D01*
X27699Y-48117D01*
X27318Y-48193D01*
X28004Y-48422D02*
X28081Y-48460D01*
X28233Y-48460D01*
X28309Y-48422D01*
X28347Y-48346D01*
X28347Y-48307D01*
X28309Y-48231D01*
X28233Y-48193D01*
X28119Y-48193D01*
X28042Y-48155D01*
X28004Y-48079D01*
X28004Y-48041D01*
X28042Y-47965D01*
X28119Y-47926D01*
X28233Y-47926D01*
X28309Y-47965D01*
X29300Y-48155D02*
X29910Y-48155D01*
X29605Y-48460D02*
X29605Y-47850D01*
X30824Y-47660D02*
X31320Y-47660D01*
X31053Y-47965D01*
X31167Y-47965D01*
X31243Y-48003D01*
X31281Y-48041D01*
X31320Y-48117D01*
X31320Y-48307D01*
X31281Y-48384D01*
X31243Y-48422D01*
X31167Y-48460D01*
X30939Y-48460D01*
X30862Y-48422D01*
X30824Y-48384D01*
X32234Y-48422D02*
X32311Y-48460D01*
X32463Y-48460D01*
X32539Y-48422D01*
X32577Y-48346D01*
X32577Y-48307D01*
X32539Y-48231D01*
X32463Y-48193D01*
X32349Y-48193D01*
X32272Y-48155D01*
X32234Y-48079D01*
X32234Y-48041D01*
X32272Y-47965D01*
X32349Y-47926D01*
X32463Y-47926D01*
X32539Y-47965D01*
X33035Y-48460D02*
X32959Y-48422D01*
X32920Y-48346D01*
X32920Y-47660D01*
X33454Y-48460D02*
X33378Y-48422D01*
X33339Y-48384D01*
X33301Y-48307D01*
X33301Y-48079D01*
X33339Y-48003D01*
X33378Y-47965D01*
X33454Y-47926D01*
X33568Y-47926D01*
X33644Y-47965D01*
X33682Y-48003D01*
X33720Y-48079D01*
X33720Y-48307D01*
X33682Y-48384D01*
X33644Y-48422D01*
X33568Y-48460D01*
X33454Y-48460D01*
X33949Y-47926D02*
X34254Y-47926D01*
X34063Y-47660D02*
X34063Y-48346D01*
X34102Y-48422D01*
X34178Y-48460D01*
X34254Y-48460D01*
X34482Y-48422D02*
X34559Y-48460D01*
X34711Y-48460D01*
X34787Y-48422D01*
X34825Y-48346D01*
X34825Y-48307D01*
X34787Y-48231D01*
X34711Y-48193D01*
X34597Y-48193D01*
X34520Y-48155D01*
X34482Y-48079D01*
X34482Y-48041D01*
X34520Y-47965D01*
X34597Y-47926D01*
X34711Y-47926D01*
X34787Y-47965D01*
X35092Y-48765D02*
X35130Y-48726D01*
X35207Y-48612D01*
X35245Y-48536D01*
X35283Y-48422D01*
X35321Y-48231D01*
X35321Y-48079D01*
X35283Y-47888D01*
X35245Y-47774D01*
X35207Y-47698D01*
X35130Y-47584D01*
X35092Y-47546D01*
G54D10*
X10923Y-49191D02*
X10920Y-49221D01*
X10911Y-49250D01*
X10896Y-49277D01*
X10877Y-49301D01*
X10853Y-49321D01*
X10826Y-49335D01*
X10797Y-49344D01*
X10767Y-49347D01*
X10737Y-49345D01*
X10708Y-49336D01*
X10681Y-49322D01*
X10657Y-49303D01*
X10637Y-49279D01*
X10622Y-49252D01*
X10613Y-49223D01*
X10610Y-49193D01*
X10612Y-49163D01*
X10621Y-49134D01*
X10635Y-49106D01*
X10654Y-49082D01*
X10677Y-49063D01*
X10704Y-49048D01*
X10733Y-49038D01*
X10763Y-49035D01*
X10793Y-49037D01*
X10822Y-49045D01*
X10850Y-49059D01*
X10874Y-49078D01*
X10894Y-49101D01*
X10909Y-49128D01*
X10919Y-49157D01*
X10922Y-49187D01*
X10923Y-49191D01*
G54D12*
X11467Y-48715D02*
X11543Y-48715D01*
X11619Y-48753D01*
X11657Y-48791D01*
X11695Y-48867D01*
X11734Y-49020D01*
X11734Y-49210D01*
X11695Y-49362D01*
X11657Y-49439D01*
X11619Y-49477D01*
X11543Y-49515D01*
X11467Y-49515D01*
X11391Y-49477D01*
X11353Y-49439D01*
X11314Y-49362D01*
X11276Y-49210D01*
X11276Y-49020D01*
X11314Y-48867D01*
X11353Y-48791D01*
X11391Y-48753D01*
X11467Y-48715D01*
X12076Y-49439D02*
X12115Y-49477D01*
X12076Y-49515D01*
X12038Y-49477D01*
X12076Y-49439D01*
X12076Y-49515D01*
X12572Y-49058D02*
X12496Y-49020D01*
X12457Y-48981D01*
X12419Y-48905D01*
X12419Y-48867D01*
X12457Y-48791D01*
X12496Y-48753D01*
X12572Y-48715D01*
X12724Y-48715D01*
X12800Y-48753D01*
X12838Y-48791D01*
X12877Y-48867D01*
X12877Y-48905D01*
X12838Y-48981D01*
X12800Y-49020D01*
X12724Y-49058D01*
X12572Y-49058D01*
X12496Y-49096D01*
X12457Y-49134D01*
X12419Y-49210D01*
X12419Y-49362D01*
X12457Y-49439D01*
X12496Y-49477D01*
X12572Y-49515D01*
X12724Y-49515D01*
X12800Y-49477D01*
X12838Y-49439D01*
X12877Y-49362D01*
X12877Y-49210D01*
X12838Y-49134D01*
X12800Y-49096D01*
X12724Y-49058D01*
X13372Y-48715D02*
X13448Y-48715D01*
X13524Y-48753D01*
X13562Y-48791D01*
X13600Y-48867D01*
X13639Y-49020D01*
X13639Y-49210D01*
X13600Y-49362D01*
X13562Y-49439D01*
X13524Y-49477D01*
X13448Y-49515D01*
X13372Y-49515D01*
X13296Y-49477D01*
X13258Y-49439D01*
X13219Y-49362D01*
X13181Y-49210D01*
X13181Y-49020D01*
X13219Y-48867D01*
X13258Y-48791D01*
X13296Y-48753D01*
X13372Y-48715D01*
X13981Y-49515D02*
X13981Y-48981D01*
X13981Y-49058D02*
X14020Y-49020D01*
X14096Y-48981D01*
X14210Y-48981D01*
X14286Y-49020D01*
X14324Y-49096D01*
X14324Y-49515D01*
X14324Y-49096D02*
X14362Y-49020D01*
X14439Y-48981D01*
X14553Y-48981D01*
X14629Y-49020D01*
X14667Y-49096D01*
X14667Y-49515D01*
X15048Y-49515D02*
X15048Y-48981D01*
X15048Y-49058D02*
X15087Y-49020D01*
X15163Y-48981D01*
X15277Y-48981D01*
X15353Y-49020D01*
X15391Y-49096D01*
X15391Y-49515D01*
X15391Y-49096D02*
X15429Y-49020D01*
X15506Y-48981D01*
X15620Y-48981D01*
X15696Y-49020D01*
X15734Y-49096D01*
X15734Y-49515D01*
X17297Y-48677D02*
X16611Y-49705D01*
X18326Y-48715D02*
X18402Y-48715D01*
X18478Y-48753D01*
X18516Y-48791D01*
X18554Y-48867D01*
X18593Y-49020D01*
X18593Y-49210D01*
X18554Y-49362D01*
X18516Y-49439D01*
X18478Y-49477D01*
X18402Y-49515D01*
X18326Y-49515D01*
X18250Y-49477D01*
X18212Y-49439D01*
X18173Y-49362D01*
X18135Y-49210D01*
X18135Y-49020D01*
X18173Y-48867D01*
X18212Y-48791D01*
X18250Y-48753D01*
X18326Y-48715D01*
X18935Y-49439D02*
X18974Y-49477D01*
X18935Y-49515D01*
X18897Y-49477D01*
X18935Y-49439D01*
X18935Y-49515D01*
X19469Y-48715D02*
X19545Y-48715D01*
X19621Y-48753D01*
X19659Y-48791D01*
X19697Y-48867D01*
X19736Y-49020D01*
X19736Y-49210D01*
X19697Y-49362D01*
X19659Y-49439D01*
X19621Y-49477D01*
X19545Y-49515D01*
X19469Y-49515D01*
X19393Y-49477D01*
X19355Y-49439D01*
X19316Y-49362D01*
X19278Y-49210D01*
X19278Y-49020D01*
X19316Y-48867D01*
X19355Y-48791D01*
X19393Y-48753D01*
X19469Y-48715D01*
X20002Y-48715D02*
X20498Y-48715D01*
X20231Y-49020D01*
X20345Y-49020D01*
X20421Y-49058D01*
X20459Y-49096D01*
X20498Y-49172D01*
X20498Y-49362D01*
X20459Y-49439D01*
X20421Y-49477D01*
X20345Y-49515D01*
X20117Y-49515D01*
X20040Y-49477D01*
X20002Y-49439D01*
X20802Y-48791D02*
X20840Y-48753D01*
X20917Y-48715D01*
X21107Y-48715D01*
X21183Y-48753D01*
X21221Y-48791D01*
X21260Y-48867D01*
X21260Y-48943D01*
X21221Y-49058D01*
X20764Y-49515D01*
X21260Y-49515D01*
X21564Y-48715D02*
X21564Y-48867D01*
X21869Y-48715D02*
X21869Y-48867D01*
X23051Y-49820D02*
X23013Y-49781D01*
X22937Y-49667D01*
X22899Y-49591D01*
X22861Y-49477D01*
X22822Y-49286D01*
X22822Y-49134D01*
X22861Y-48943D01*
X22899Y-48829D01*
X22937Y-48753D01*
X23013Y-48639D01*
X23051Y-48601D01*
X23736Y-48715D02*
X23355Y-48715D01*
X23317Y-49096D01*
X23355Y-49058D01*
X23432Y-49020D01*
X23622Y-49020D01*
X23698Y-49058D01*
X23736Y-49096D01*
X23775Y-49172D01*
X23775Y-49362D01*
X23736Y-49439D01*
X23698Y-49477D01*
X23622Y-49515D01*
X23432Y-49515D01*
X23355Y-49477D01*
X23317Y-49439D01*
X24460Y-48715D02*
X24308Y-48715D01*
X24232Y-48753D01*
X24194Y-48791D01*
X24117Y-48905D01*
X24079Y-49058D01*
X24079Y-49362D01*
X24117Y-49439D01*
X24156Y-49477D01*
X24232Y-49515D01*
X24384Y-49515D01*
X24460Y-49477D01*
X24498Y-49439D01*
X24537Y-49362D01*
X24537Y-49172D01*
X24498Y-49096D01*
X24460Y-49058D01*
X24384Y-49020D01*
X24232Y-49020D01*
X24156Y-49058D01*
X24117Y-49096D01*
X24079Y-49172D01*
X25489Y-49515D02*
X25489Y-48715D01*
X25832Y-49515D02*
X25832Y-49096D01*
X25794Y-49020D01*
X25718Y-48981D01*
X25604Y-48981D01*
X25528Y-49020D01*
X25489Y-49058D01*
X26328Y-49515D02*
X26252Y-49477D01*
X26213Y-49439D01*
X26175Y-49362D01*
X26175Y-49134D01*
X26213Y-49058D01*
X26252Y-49020D01*
X26328Y-48981D01*
X26442Y-48981D01*
X26518Y-49020D01*
X26556Y-49058D01*
X26594Y-49134D01*
X26594Y-49362D01*
X26556Y-49439D01*
X26518Y-49477D01*
X26442Y-49515D01*
X26328Y-49515D01*
X27052Y-49515D02*
X26976Y-49477D01*
X26937Y-49401D01*
X26937Y-48715D01*
X27661Y-49477D02*
X27585Y-49515D01*
X27433Y-49515D01*
X27356Y-49477D01*
X27318Y-49401D01*
X27318Y-49096D01*
X27356Y-49020D01*
X27433Y-48981D01*
X27585Y-48981D01*
X27661Y-49020D01*
X27699Y-49096D01*
X27699Y-49172D01*
X27318Y-49248D01*
X28004Y-49477D02*
X28081Y-49515D01*
X28233Y-49515D01*
X28309Y-49477D01*
X28347Y-49401D01*
X28347Y-49362D01*
X28309Y-49286D01*
X28233Y-49248D01*
X28119Y-49248D01*
X28042Y-49210D01*
X28004Y-49134D01*
X28004Y-49096D01*
X28042Y-49020D01*
X28119Y-48981D01*
X28233Y-48981D01*
X28309Y-49020D01*
X28614Y-49820D02*
X28652Y-49781D01*
X28729Y-49667D01*
X28767Y-49591D01*
X28805Y-49477D01*
X28843Y-49286D01*
X28843Y-49134D01*
X28805Y-48943D01*
X28767Y-48829D01*
X28729Y-48753D01*
X28652Y-48639D01*
X28614Y-48601D01*
X10747Y-50069D02*
X10747Y-50423D01*
X10924Y-50246D02*
X10570Y-50246D01*
X11467Y-49770D02*
X11543Y-49770D01*
X11619Y-49808D01*
X11657Y-49846D01*
X11695Y-49922D01*
X11734Y-50075D01*
X11734Y-50265D01*
X11695Y-50417D01*
X11657Y-50494D01*
X11619Y-50532D01*
X11543Y-50570D01*
X11467Y-50570D01*
X11391Y-50532D01*
X11353Y-50494D01*
X11314Y-50417D01*
X11276Y-50265D01*
X11276Y-50075D01*
X11314Y-49922D01*
X11353Y-49846D01*
X11391Y-49808D01*
X11467Y-49770D01*
X12076Y-50494D02*
X12115Y-50532D01*
X12076Y-50570D01*
X12038Y-50532D01*
X12076Y-50494D01*
X12076Y-50570D01*
X12496Y-50570D02*
X12648Y-50570D01*
X12724Y-50532D01*
X12762Y-50494D01*
X12838Y-50379D01*
X12877Y-50227D01*
X12877Y-49922D01*
X12838Y-49846D01*
X12800Y-49808D01*
X12724Y-49770D01*
X12572Y-49770D01*
X12496Y-49808D01*
X12457Y-49846D01*
X12419Y-49922D01*
X12419Y-50113D01*
X12457Y-50189D01*
X12496Y-50227D01*
X12572Y-50265D01*
X12724Y-50265D01*
X12800Y-50227D01*
X12838Y-50189D01*
X12877Y-50113D01*
X13372Y-49770D02*
X13448Y-49770D01*
X13524Y-49808D01*
X13562Y-49846D01*
X13600Y-49922D01*
X13639Y-50075D01*
X13639Y-50265D01*
X13600Y-50417D01*
X13562Y-50494D01*
X13524Y-50532D01*
X13448Y-50570D01*
X13372Y-50570D01*
X13296Y-50532D01*
X13258Y-50494D01*
X13219Y-50417D01*
X13181Y-50265D01*
X13181Y-50075D01*
X13219Y-49922D01*
X13258Y-49846D01*
X13296Y-49808D01*
X13372Y-49770D01*
X13981Y-50570D02*
X13981Y-50036D01*
X13981Y-50113D02*
X14020Y-50075D01*
X14096Y-50036D01*
X14210Y-50036D01*
X14286Y-50075D01*
X14324Y-50151D01*
X14324Y-50570D01*
X14324Y-50151D02*
X14362Y-50075D01*
X14439Y-50036D01*
X14553Y-50036D01*
X14629Y-50075D01*
X14667Y-50151D01*
X14667Y-50570D01*
X15048Y-50570D02*
X15048Y-50036D01*
X15048Y-50113D02*
X15087Y-50075D01*
X15163Y-50036D01*
X15277Y-50036D01*
X15353Y-50075D01*
X15391Y-50151D01*
X15391Y-50570D01*
X15391Y-50151D02*
X15429Y-50075D01*
X15506Y-50036D01*
X15620Y-50036D01*
X15696Y-50075D01*
X15734Y-50151D01*
X15734Y-50570D01*
X17297Y-49732D02*
X16611Y-50760D01*
X18326Y-49770D02*
X18402Y-49770D01*
X18478Y-49808D01*
X18516Y-49846D01*
X18554Y-49922D01*
X18593Y-50075D01*
X18593Y-50265D01*
X18554Y-50417D01*
X18516Y-50494D01*
X18478Y-50532D01*
X18402Y-50570D01*
X18326Y-50570D01*
X18250Y-50532D01*
X18212Y-50494D01*
X18173Y-50417D01*
X18135Y-50265D01*
X18135Y-50075D01*
X18173Y-49922D01*
X18212Y-49846D01*
X18250Y-49808D01*
X18326Y-49770D01*
X18935Y-50494D02*
X18974Y-50532D01*
X18935Y-50570D01*
X18897Y-50532D01*
X18935Y-50494D01*
X18935Y-50570D01*
X19469Y-49770D02*
X19545Y-49770D01*
X19621Y-49808D01*
X19659Y-49846D01*
X19697Y-49922D01*
X19736Y-50075D01*
X19736Y-50265D01*
X19697Y-50417D01*
X19659Y-50494D01*
X19621Y-50532D01*
X19545Y-50570D01*
X19469Y-50570D01*
X19393Y-50532D01*
X19355Y-50494D01*
X19316Y-50417D01*
X19278Y-50265D01*
X19278Y-50075D01*
X19316Y-49922D01*
X19355Y-49846D01*
X19393Y-49808D01*
X19469Y-49770D01*
X20002Y-49770D02*
X20498Y-49770D01*
X20231Y-50075D01*
X20345Y-50075D01*
X20421Y-50113D01*
X20459Y-50151D01*
X20498Y-50227D01*
X20498Y-50417D01*
X20459Y-50494D01*
X20421Y-50532D01*
X20345Y-50570D01*
X20117Y-50570D01*
X20040Y-50532D01*
X20002Y-50494D01*
X21221Y-49770D02*
X20840Y-49770D01*
X20802Y-50151D01*
X20840Y-50113D01*
X20917Y-50075D01*
X21107Y-50075D01*
X21183Y-50113D01*
X21221Y-50151D01*
X21260Y-50227D01*
X21260Y-50417D01*
X21221Y-50494D01*
X21183Y-50532D01*
X21107Y-50570D01*
X20917Y-50570D01*
X20840Y-50532D01*
X20802Y-50494D01*
X21564Y-49770D02*
X21564Y-49922D01*
X21869Y-49770D02*
X21869Y-49922D01*
X23051Y-50875D02*
X23013Y-50836D01*
X22937Y-50722D01*
X22899Y-50646D01*
X22861Y-50532D01*
X22822Y-50341D01*
X22822Y-50189D01*
X22861Y-49998D01*
X22899Y-49884D01*
X22937Y-49808D01*
X23013Y-49694D01*
X23051Y-49656D01*
X23698Y-49770D02*
X23546Y-49770D01*
X23470Y-49808D01*
X23432Y-49846D01*
X23355Y-49960D01*
X23317Y-50113D01*
X23317Y-50417D01*
X23355Y-50494D01*
X23394Y-50532D01*
X23470Y-50570D01*
X23622Y-50570D01*
X23698Y-50532D01*
X23736Y-50494D01*
X23775Y-50417D01*
X23775Y-50227D01*
X23736Y-50151D01*
X23698Y-50113D01*
X23622Y-50075D01*
X23470Y-50075D01*
X23394Y-50113D01*
X23355Y-50151D01*
X23317Y-50227D01*
X24727Y-50570D02*
X24727Y-49770D01*
X25070Y-50570D02*
X25070Y-50151D01*
X25032Y-50075D01*
X24956Y-50036D01*
X24842Y-50036D01*
X24766Y-50075D01*
X24727Y-50113D01*
X25566Y-50570D02*
X25490Y-50532D01*
X25451Y-50494D01*
X25413Y-50417D01*
X25413Y-50189D01*
X25451Y-50113D01*
X25490Y-50075D01*
X25566Y-50036D01*
X25680Y-50036D01*
X25756Y-50075D01*
X25794Y-50113D01*
X25832Y-50189D01*
X25832Y-50417D01*
X25794Y-50494D01*
X25756Y-50532D01*
X25680Y-50570D01*
X25566Y-50570D01*
X26290Y-50570D02*
X26214Y-50532D01*
X26175Y-50456D01*
X26175Y-49770D01*
X26899Y-50532D02*
X26823Y-50570D01*
X26671Y-50570D01*
X26594Y-50532D01*
X26556Y-50456D01*
X26556Y-50151D01*
X26594Y-50075D01*
X26671Y-50036D01*
X26823Y-50036D01*
X26899Y-50075D01*
X26937Y-50151D01*
X26937Y-50227D01*
X26556Y-50303D01*
X27242Y-50532D02*
X27319Y-50570D01*
X27471Y-50570D01*
X27547Y-50532D01*
X27585Y-50456D01*
X27585Y-50417D01*
X27547Y-50341D01*
X27471Y-50303D01*
X27357Y-50303D01*
X27280Y-50265D01*
X27242Y-50189D01*
X27242Y-50151D01*
X27280Y-50075D01*
X27357Y-50036D01*
X27471Y-50036D01*
X27547Y-50075D01*
X27852Y-50875D02*
X27890Y-50836D01*
X27967Y-50722D01*
X28005Y-50646D01*
X28043Y-50532D01*
X28081Y-50341D01*
X28081Y-50189D01*
X28043Y-49998D01*
X28005Y-49884D01*
X27967Y-49808D01*
X27890Y-49694D01*
X27852Y-49656D01*
G54D10*
X10924Y-51301D02*
X10920Y-51339D01*
X10909Y-51376D01*
X10891Y-51410D01*
X10866Y-51439D01*
X10837Y-51464D01*
X10803Y-51482D01*
X10766Y-51493D01*
X10728Y-51497D01*
X10691Y-51494D01*
X10654Y-51483D01*
X10620Y-51465D01*
X10590Y-51441D01*
X10565Y-51412D01*
X10546Y-51378D01*
X10535Y-51341D01*
X10531Y-51303D01*
X10534Y-51266D01*
X10544Y-51229D01*
X10562Y-51195D01*
X10586Y-51165D01*
X10615Y-51140D01*
X10649Y-51121D01*
X10685Y-51109D01*
X10723Y-51105D01*
X10761Y-51107D01*
X10798Y-51118D01*
X10832Y-51135D01*
X10862Y-51159D01*
X10887Y-51188D01*
X10906Y-51221D01*
X10919Y-51258D01*
X10923Y-51296D01*
X10924Y-51301D01*
X10530Y-51104D02*
X10924Y-51498D01*
X10924Y-51104D02*
X10530Y-51498D01*
G54D12*
X11734Y-51625D02*
X11276Y-51625D01*
X11505Y-51625D02*
X11505Y-50825D01*
X11429Y-50939D01*
X11353Y-51015D01*
X11276Y-51053D01*
X12076Y-51549D02*
X12115Y-51587D01*
X12076Y-51625D01*
X12038Y-51587D01*
X12076Y-51549D01*
X12076Y-51625D01*
X12610Y-50825D02*
X12686Y-50825D01*
X12762Y-50863D01*
X12800Y-50901D01*
X12838Y-50977D01*
X12877Y-51130D01*
X12877Y-51320D01*
X12838Y-51472D01*
X12800Y-51549D01*
X12762Y-51587D01*
X12686Y-51625D01*
X12610Y-51625D01*
X12534Y-51587D01*
X12496Y-51549D01*
X12457Y-51472D01*
X12419Y-51320D01*
X12419Y-51130D01*
X12457Y-50977D01*
X12496Y-50901D01*
X12534Y-50863D01*
X12610Y-50825D01*
X13372Y-50825D02*
X13448Y-50825D01*
X13524Y-50863D01*
X13562Y-50901D01*
X13600Y-50977D01*
X13639Y-51130D01*
X13639Y-51320D01*
X13600Y-51472D01*
X13562Y-51549D01*
X13524Y-51587D01*
X13448Y-51625D01*
X13372Y-51625D01*
X13296Y-51587D01*
X13258Y-51549D01*
X13219Y-51472D01*
X13181Y-51320D01*
X13181Y-51130D01*
X13219Y-50977D01*
X13258Y-50901D01*
X13296Y-50863D01*
X13372Y-50825D01*
X13981Y-51625D02*
X13981Y-51091D01*
X13981Y-51168D02*
X14020Y-51130D01*
X14096Y-51091D01*
X14210Y-51091D01*
X14286Y-51130D01*
X14324Y-51206D01*
X14324Y-51625D01*
X14324Y-51206D02*
X14362Y-51130D01*
X14439Y-51091D01*
X14553Y-51091D01*
X14629Y-51130D01*
X14667Y-51206D01*
X14667Y-51625D01*
X15048Y-51625D02*
X15048Y-51091D01*
X15048Y-51168D02*
X15087Y-51130D01*
X15163Y-51091D01*
X15277Y-51091D01*
X15353Y-51130D01*
X15391Y-51206D01*
X15391Y-51625D01*
X15391Y-51206D02*
X15429Y-51130D01*
X15506Y-51091D01*
X15620Y-51091D01*
X15696Y-51130D01*
X15734Y-51206D01*
X15734Y-51625D01*
X17297Y-50787D02*
X16611Y-51815D01*
X18326Y-50825D02*
X18402Y-50825D01*
X18478Y-50863D01*
X18516Y-50901D01*
X18554Y-50977D01*
X18593Y-51130D01*
X18593Y-51320D01*
X18554Y-51472D01*
X18516Y-51549D01*
X18478Y-51587D01*
X18402Y-51625D01*
X18326Y-51625D01*
X18250Y-51587D01*
X18212Y-51549D01*
X18173Y-51472D01*
X18135Y-51320D01*
X18135Y-51130D01*
X18173Y-50977D01*
X18212Y-50901D01*
X18250Y-50863D01*
X18326Y-50825D01*
X18935Y-51549D02*
X18974Y-51587D01*
X18935Y-51625D01*
X18897Y-51587D01*
X18935Y-51549D01*
X18935Y-51625D01*
X19469Y-50825D02*
X19545Y-50825D01*
X19621Y-50863D01*
X19659Y-50901D01*
X19697Y-50977D01*
X19736Y-51130D01*
X19736Y-51320D01*
X19697Y-51472D01*
X19659Y-51549D01*
X19621Y-51587D01*
X19545Y-51625D01*
X19469Y-51625D01*
X19393Y-51587D01*
X19355Y-51549D01*
X19316Y-51472D01*
X19278Y-51320D01*
X19278Y-51130D01*
X19316Y-50977D01*
X19355Y-50901D01*
X19393Y-50863D01*
X19469Y-50825D01*
X20002Y-50825D02*
X20498Y-50825D01*
X20231Y-51130D01*
X20345Y-51130D01*
X20421Y-51168D01*
X20459Y-51206D01*
X20498Y-51282D01*
X20498Y-51472D01*
X20459Y-51549D01*
X20421Y-51587D01*
X20345Y-51625D01*
X20117Y-51625D01*
X20040Y-51587D01*
X20002Y-51549D01*
X20879Y-51625D02*
X21031Y-51625D01*
X21107Y-51587D01*
X21145Y-51549D01*
X21221Y-51434D01*
X21260Y-51282D01*
X21260Y-50977D01*
X21221Y-50901D01*
X21183Y-50863D01*
X21107Y-50825D01*
X20955Y-50825D01*
X20879Y-50863D01*
X20840Y-50901D01*
X20802Y-50977D01*
X20802Y-51168D01*
X20840Y-51244D01*
X20879Y-51282D01*
X20955Y-51320D01*
X21107Y-51320D01*
X21183Y-51282D01*
X21221Y-51244D01*
X21260Y-51168D01*
X21564Y-50825D02*
X21564Y-50977D01*
X21869Y-50825D02*
X21869Y-50977D01*
X23051Y-51930D02*
X23013Y-51891D01*
X22937Y-51777D01*
X22899Y-51701D01*
X22861Y-51587D01*
X22822Y-51396D01*
X22822Y-51244D01*
X22861Y-51053D01*
X22899Y-50939D01*
X22937Y-50863D01*
X23013Y-50749D01*
X23051Y-50711D01*
X23736Y-50825D02*
X23355Y-50825D01*
X23317Y-51206D01*
X23355Y-51168D01*
X23432Y-51130D01*
X23622Y-51130D01*
X23698Y-51168D01*
X23736Y-51206D01*
X23775Y-51282D01*
X23775Y-51472D01*
X23736Y-51549D01*
X23698Y-51587D01*
X23622Y-51625D01*
X23432Y-51625D01*
X23355Y-51587D01*
X23317Y-51549D01*
X24079Y-50901D02*
X24117Y-50863D01*
X24194Y-50825D01*
X24384Y-50825D01*
X24460Y-50863D01*
X24498Y-50901D01*
X24537Y-50977D01*
X24537Y-51053D01*
X24498Y-51168D01*
X24041Y-51625D01*
X24537Y-51625D01*
X25489Y-51625D02*
X25489Y-50825D01*
X25832Y-51625D02*
X25832Y-51206D01*
X25794Y-51130D01*
X25718Y-51091D01*
X25604Y-51091D01*
X25528Y-51130D01*
X25489Y-51168D01*
X26328Y-51625D02*
X26252Y-51587D01*
X26213Y-51549D01*
X26175Y-51472D01*
X26175Y-51244D01*
X26213Y-51168D01*
X26252Y-51130D01*
X26328Y-51091D01*
X26442Y-51091D01*
X26518Y-51130D01*
X26556Y-51168D01*
X26594Y-51244D01*
X26594Y-51472D01*
X26556Y-51549D01*
X26518Y-51587D01*
X26442Y-51625D01*
X26328Y-51625D01*
X27052Y-51625D02*
X26976Y-51587D01*
X26937Y-51511D01*
X26937Y-50825D01*
X27661Y-51587D02*
X27585Y-51625D01*
X27433Y-51625D01*
X27356Y-51587D01*
X27318Y-51511D01*
X27318Y-51206D01*
X27356Y-51130D01*
X27433Y-51091D01*
X27585Y-51091D01*
X27661Y-51130D01*
X27699Y-51206D01*
X27699Y-51282D01*
X27318Y-51358D01*
X28004Y-51587D02*
X28081Y-51625D01*
X28233Y-51625D01*
X28309Y-51587D01*
X28347Y-51511D01*
X28347Y-51472D01*
X28309Y-51396D01*
X28233Y-51358D01*
X28119Y-51358D01*
X28042Y-51320D01*
X28004Y-51244D01*
X28004Y-51206D01*
X28042Y-51130D01*
X28119Y-51091D01*
X28233Y-51091D01*
X28309Y-51130D01*
X28614Y-51930D02*
X28652Y-51891D01*
X28729Y-51777D01*
X28767Y-51701D01*
X28805Y-51587D01*
X28843Y-51396D01*
X28843Y-51244D01*
X28805Y-51053D01*
X28767Y-50939D01*
X28729Y-50863D01*
X28652Y-50749D01*
X28614Y-50711D01*
G54D10*
X10923Y-52356D02*
X10918Y-52397D01*
X10906Y-52438D01*
X10886Y-52475D01*
X10860Y-52508D01*
X10827Y-52535D01*
X10790Y-52555D01*
X10750Y-52567D01*
X10708Y-52571D01*
X10667Y-52568D01*
X10627Y-52556D01*
X10589Y-52536D01*
X10556Y-52510D01*
X10529Y-52478D01*
X10509Y-52441D01*
X10496Y-52400D01*
X10492Y-52359D01*
X10495Y-52318D01*
X10507Y-52277D01*
X10526Y-52239D01*
X10552Y-52206D01*
X10584Y-52179D01*
X10621Y-52159D01*
X10661Y-52146D01*
X10703Y-52141D01*
X10744Y-52144D01*
X10785Y-52155D01*
X10822Y-52174D01*
X10855Y-52200D01*
X10883Y-52232D01*
X10904Y-52269D01*
X10917Y-52309D01*
X10922Y-52350D01*
X10923Y-52356D01*
X10491Y-52356D02*
X10923Y-52356D01*
G54D12*
X11734Y-52680D02*
X11276Y-52680D01*
X11505Y-52680D02*
X11505Y-51880D01*
X11429Y-51994D01*
X11353Y-52070D01*
X11276Y-52108D01*
X12076Y-52604D02*
X12115Y-52642D01*
X12076Y-52680D01*
X12038Y-52642D01*
X12076Y-52604D01*
X12076Y-52680D01*
X12877Y-52680D02*
X12419Y-52680D01*
X12648Y-52680D02*
X12648Y-51880D01*
X12572Y-51994D01*
X12496Y-52070D01*
X12419Y-52108D01*
X13372Y-51880D02*
X13448Y-51880D01*
X13524Y-51918D01*
X13562Y-51956D01*
X13600Y-52032D01*
X13639Y-52185D01*
X13639Y-52375D01*
X13600Y-52527D01*
X13562Y-52604D01*
X13524Y-52642D01*
X13448Y-52680D01*
X13372Y-52680D01*
X13296Y-52642D01*
X13258Y-52604D01*
X13219Y-52527D01*
X13181Y-52375D01*
X13181Y-52185D01*
X13219Y-52032D01*
X13258Y-51956D01*
X13296Y-51918D01*
X13372Y-51880D01*
X13981Y-52680D02*
X13981Y-52146D01*
X13981Y-52223D02*
X14020Y-52185D01*
X14096Y-52146D01*
X14210Y-52146D01*
X14286Y-52185D01*
X14324Y-52261D01*
X14324Y-52680D01*
X14324Y-52261D02*
X14362Y-52185D01*
X14439Y-52146D01*
X14553Y-52146D01*
X14629Y-52185D01*
X14667Y-52261D01*
X14667Y-52680D01*
X15048Y-52680D02*
X15048Y-52146D01*
X15048Y-52223D02*
X15087Y-52185D01*
X15163Y-52146D01*
X15277Y-52146D01*
X15353Y-52185D01*
X15391Y-52261D01*
X15391Y-52680D01*
X15391Y-52261D02*
X15429Y-52185D01*
X15506Y-52146D01*
X15620Y-52146D01*
X15696Y-52185D01*
X15734Y-52261D01*
X15734Y-52680D01*
X17297Y-51842D02*
X16611Y-52870D01*
X18326Y-51880D02*
X18402Y-51880D01*
X18478Y-51918D01*
X18516Y-51956D01*
X18554Y-52032D01*
X18593Y-52185D01*
X18593Y-52375D01*
X18554Y-52527D01*
X18516Y-52604D01*
X18478Y-52642D01*
X18402Y-52680D01*
X18326Y-52680D01*
X18250Y-52642D01*
X18212Y-52604D01*
X18173Y-52527D01*
X18135Y-52375D01*
X18135Y-52185D01*
X18173Y-52032D01*
X18212Y-51956D01*
X18250Y-51918D01*
X18326Y-51880D01*
X18935Y-52604D02*
X18974Y-52642D01*
X18935Y-52680D01*
X18897Y-52642D01*
X18935Y-52604D01*
X18935Y-52680D01*
X19469Y-51880D02*
X19545Y-51880D01*
X19621Y-51918D01*
X19659Y-51956D01*
X19697Y-52032D01*
X19736Y-52185D01*
X19736Y-52375D01*
X19697Y-52527D01*
X19659Y-52604D01*
X19621Y-52642D01*
X19545Y-52680D01*
X19469Y-52680D01*
X19393Y-52642D01*
X19355Y-52604D01*
X19316Y-52527D01*
X19278Y-52375D01*
X19278Y-52185D01*
X19316Y-52032D01*
X19355Y-51956D01*
X19393Y-51918D01*
X19469Y-51880D01*
X20421Y-52146D02*
X20421Y-52680D01*
X20231Y-51842D02*
X20040Y-52413D01*
X20536Y-52413D01*
X20764Y-51880D02*
X21260Y-51880D01*
X20993Y-52185D01*
X21107Y-52185D01*
X21183Y-52223D01*
X21221Y-52261D01*
X21260Y-52337D01*
X21260Y-52527D01*
X21221Y-52604D01*
X21183Y-52642D01*
X21107Y-52680D01*
X20879Y-52680D01*
X20802Y-52642D01*
X20764Y-52604D01*
X21564Y-51880D02*
X21564Y-52032D01*
X21869Y-51880D02*
X21869Y-52032D01*
X23051Y-52985D02*
X23013Y-52946D01*
X22937Y-52832D01*
X22899Y-52756D01*
X22861Y-52642D01*
X22822Y-52451D01*
X22822Y-52299D01*
X22861Y-52108D01*
X22899Y-51994D01*
X22937Y-51918D01*
X23013Y-51804D01*
X23051Y-51766D01*
X23279Y-51880D02*
X23775Y-51880D01*
X23508Y-52185D01*
X23622Y-52185D01*
X23698Y-52223D01*
X23736Y-52261D01*
X23775Y-52337D01*
X23775Y-52527D01*
X23736Y-52604D01*
X23698Y-52642D01*
X23622Y-52680D01*
X23394Y-52680D01*
X23317Y-52642D01*
X23279Y-52604D01*
X24727Y-52680D02*
X24727Y-51880D01*
X25070Y-52680D02*
X25070Y-52261D01*
X25032Y-52185D01*
X24956Y-52146D01*
X24842Y-52146D01*
X24766Y-52185D01*
X24727Y-52223D01*
X25566Y-52680D02*
X25490Y-52642D01*
X25451Y-52604D01*
X25413Y-52527D01*
X25413Y-52299D01*
X25451Y-52223D01*
X25490Y-52185D01*
X25566Y-52146D01*
X25680Y-52146D01*
X25756Y-52185D01*
X25794Y-52223D01*
X25832Y-52299D01*
X25832Y-52527D01*
X25794Y-52604D01*
X25756Y-52642D01*
X25680Y-52680D01*
X25566Y-52680D01*
X26290Y-52680D02*
X26214Y-52642D01*
X26175Y-52566D01*
X26175Y-51880D01*
X26899Y-52642D02*
X26823Y-52680D01*
X26671Y-52680D01*
X26594Y-52642D01*
X26556Y-52566D01*
X26556Y-52261D01*
X26594Y-52185D01*
X26671Y-52146D01*
X26823Y-52146D01*
X26899Y-52185D01*
X26937Y-52261D01*
X26937Y-52337D01*
X26556Y-52413D01*
X27242Y-52642D02*
X27319Y-52680D01*
X27471Y-52680D01*
X27547Y-52642D01*
X27585Y-52566D01*
X27585Y-52527D01*
X27547Y-52451D01*
X27471Y-52413D01*
X27357Y-52413D01*
X27280Y-52375D01*
X27242Y-52299D01*
X27242Y-52261D01*
X27280Y-52185D01*
X27357Y-52146D01*
X27471Y-52146D01*
X27547Y-52185D01*
X27852Y-52985D02*
X27890Y-52946D01*
X27967Y-52832D01*
X28005Y-52756D01*
X28043Y-52642D01*
X28081Y-52451D01*
X28081Y-52299D01*
X28043Y-52108D01*
X28005Y-51994D01*
X27967Y-51918D01*
X27890Y-51804D01*
X27852Y-51766D01*
G54D10*
X10924Y-53411D02*
X10911Y-53535D01*
X10875Y-53654D01*
X10817Y-53765D01*
X10738Y-53861D01*
X10641Y-53941D01*
X10532Y-54000D01*
X10412Y-54037D01*
X10288Y-54050D01*
X10165Y-54039D01*
X10045Y-54004D01*
X09934Y-53946D01*
X09837Y-53868D01*
X09756Y-53772D01*
X09696Y-53663D01*
X09658Y-53544D01*
X09645Y-53419D01*
X09655Y-53296D01*
X09689Y-53176D01*
X09747Y-53065D01*
X09824Y-52967D01*
X09919Y-52886D01*
X10028Y-52825D01*
X10147Y-52786D01*
X10271Y-52772D01*
X10395Y-52781D01*
X10515Y-52815D01*
X10626Y-52871D01*
X10725Y-52948D01*
X10806Y-53043D01*
X10868Y-53151D01*
X10908Y-53270D01*
X10923Y-53394D01*
X10924Y-53411D01*
X10284Y-52771D02*
X10284Y-54051D01*
G54D12*
X11238Y-52935D02*
X11734Y-52935D01*
X11467Y-53240D01*
X11581Y-53240D01*
X11657Y-53278D01*
X11695Y-53316D01*
X11734Y-53392D01*
X11734Y-53582D01*
X11695Y-53659D01*
X11657Y-53697D01*
X11581Y-53735D01*
X11353Y-53735D01*
X11276Y-53697D01*
X11238Y-53659D01*
X12076Y-53659D02*
X12115Y-53697D01*
X12076Y-53735D01*
X12038Y-53697D01*
X12076Y-53659D01*
X12076Y-53735D01*
X12419Y-53011D02*
X12457Y-52973D01*
X12534Y-52935D01*
X12724Y-52935D01*
X12800Y-52973D01*
X12838Y-53011D01*
X12877Y-53087D01*
X12877Y-53163D01*
X12838Y-53278D01*
X12381Y-53735D01*
X12877Y-53735D01*
X13600Y-52935D02*
X13219Y-52935D01*
X13181Y-53316D01*
X13219Y-53278D01*
X13296Y-53240D01*
X13486Y-53240D01*
X13562Y-53278D01*
X13600Y-53316D01*
X13639Y-53392D01*
X13639Y-53582D01*
X13600Y-53659D01*
X13562Y-53697D01*
X13486Y-53735D01*
X13296Y-53735D01*
X13219Y-53697D01*
X13181Y-53659D01*
X13981Y-53735D02*
X13981Y-53201D01*
X13981Y-53278D02*
X14020Y-53240D01*
X14096Y-53201D01*
X14210Y-53201D01*
X14286Y-53240D01*
X14324Y-53316D01*
X14324Y-53735D01*
X14324Y-53316D02*
X14362Y-53240D01*
X14439Y-53201D01*
X14553Y-53201D01*
X14629Y-53240D01*
X14667Y-53316D01*
X14667Y-53735D01*
X15048Y-53735D02*
X15048Y-53201D01*
X15048Y-53278D02*
X15087Y-53240D01*
X15163Y-53201D01*
X15277Y-53201D01*
X15353Y-53240D01*
X15391Y-53316D01*
X15391Y-53735D01*
X15391Y-53316D02*
X15429Y-53240D01*
X15506Y-53201D01*
X15620Y-53201D01*
X15696Y-53240D01*
X15734Y-53316D01*
X15734Y-53735D01*
X17297Y-52897D02*
X16611Y-53925D01*
X18326Y-52935D02*
X18402Y-52935D01*
X18478Y-52973D01*
X18516Y-53011D01*
X18554Y-53087D01*
X18593Y-53240D01*
X18593Y-53430D01*
X18554Y-53582D01*
X18516Y-53659D01*
X18478Y-53697D01*
X18402Y-53735D01*
X18326Y-53735D01*
X18250Y-53697D01*
X18212Y-53659D01*
X18173Y-53582D01*
X18135Y-53430D01*
X18135Y-53240D01*
X18173Y-53087D01*
X18212Y-53011D01*
X18250Y-52973D01*
X18326Y-52935D01*
X18935Y-53659D02*
X18974Y-53697D01*
X18935Y-53735D01*
X18897Y-53697D01*
X18935Y-53659D01*
X18935Y-53735D01*
X19736Y-53735D02*
X19278Y-53735D01*
X19507Y-53735D02*
X19507Y-52935D01*
X19431Y-53049D01*
X19355Y-53125D01*
X19278Y-53163D01*
X20040Y-53011D02*
X20078Y-52973D01*
X20155Y-52935D01*
X20345Y-52935D01*
X20421Y-52973D01*
X20459Y-53011D01*
X20498Y-53087D01*
X20498Y-53163D01*
X20459Y-53278D01*
X20002Y-53735D01*
X20498Y-53735D01*
X20955Y-53278D02*
X20879Y-53240D01*
X20840Y-53201D01*
X20802Y-53125D01*
X20802Y-53087D01*
X20840Y-53011D01*
X20879Y-52973D01*
X20955Y-52935D01*
X21107Y-52935D01*
X21183Y-52973D01*
X21221Y-53011D01*
X21260Y-53087D01*
X21260Y-53125D01*
X21221Y-53201D01*
X21183Y-53240D01*
X21107Y-53278D01*
X20955Y-53278D01*
X20879Y-53316D01*
X20840Y-53354D01*
X20802Y-53430D01*
X20802Y-53582D01*
X20840Y-53659D01*
X20879Y-53697D01*
X20955Y-53735D01*
X21107Y-53735D01*
X21183Y-53697D01*
X21221Y-53659D01*
X21260Y-53582D01*
X21260Y-53430D01*
X21221Y-53354D01*
X21183Y-53316D01*
X21107Y-53278D01*
X21564Y-52935D02*
X21564Y-53087D01*
X21869Y-52935D02*
X21869Y-53087D01*
X23051Y-54040D02*
X23013Y-54001D01*
X22937Y-53887D01*
X22899Y-53811D01*
X22861Y-53697D01*
X22822Y-53506D01*
X22822Y-53354D01*
X22861Y-53163D01*
X22899Y-53049D01*
X22937Y-52973D01*
X23013Y-52859D01*
X23051Y-52821D01*
X23736Y-52935D02*
X23355Y-52935D01*
X23317Y-53316D01*
X23355Y-53278D01*
X23432Y-53240D01*
X23622Y-53240D01*
X23698Y-53278D01*
X23736Y-53316D01*
X23775Y-53392D01*
X23775Y-53582D01*
X23736Y-53659D01*
X23698Y-53697D01*
X23622Y-53735D01*
X23432Y-53735D01*
X23355Y-53697D01*
X23317Y-53659D01*
X24727Y-53735D02*
X24727Y-52935D01*
X25070Y-53735D02*
X25070Y-53316D01*
X25032Y-53240D01*
X24956Y-53201D01*
X24842Y-53201D01*
X24766Y-53240D01*
X24727Y-53278D01*
X25566Y-53735D02*
X25490Y-53697D01*
X25451Y-53659D01*
X25413Y-53582D01*
X25413Y-53354D01*
X25451Y-53278D01*
X25490Y-53240D01*
X25566Y-53201D01*
X25680Y-53201D01*
X25756Y-53240D01*
X25794Y-53278D01*
X25832Y-53354D01*
X25832Y-53582D01*
X25794Y-53659D01*
X25756Y-53697D01*
X25680Y-53735D01*
X25566Y-53735D01*
X26290Y-53735D02*
X26214Y-53697D01*
X26175Y-53621D01*
X26175Y-52935D01*
X26899Y-53697D02*
X26823Y-53735D01*
X26671Y-53735D01*
X26594Y-53697D01*
X26556Y-53621D01*
X26556Y-53316D01*
X26594Y-53240D01*
X26671Y-53201D01*
X26823Y-53201D01*
X26899Y-53240D01*
X26937Y-53316D01*
X26937Y-53392D01*
X26556Y-53468D01*
X27242Y-53697D02*
X27319Y-53735D01*
X27471Y-53735D01*
X27547Y-53697D01*
X27585Y-53621D01*
X27585Y-53582D01*
X27547Y-53506D01*
X27471Y-53468D01*
X27357Y-53468D01*
X27280Y-53430D01*
X27242Y-53354D01*
X27242Y-53316D01*
X27280Y-53240D01*
X27357Y-53201D01*
X27471Y-53201D01*
X27547Y-53240D01*
X27852Y-54040D02*
X27890Y-54001D01*
X27967Y-53887D01*
X28005Y-53811D01*
X28043Y-53697D01*
X28081Y-53506D01*
X28081Y-53354D01*
X28043Y-53163D01*
X28005Y-53049D01*
X27967Y-52973D01*
X27890Y-52859D01*
X27852Y-52821D01*
M02*
