M48
;DRILL file {PCBnew (20100406 SVN-R2508)-final} date 07/03/2016 07:58:34
;FORMAT={-.-/ absolute / metric / decimal}
R,T
VER,1
FMAT,2
METRIC,TZ
TCST,OFF
ICI,OFF
ATC,ON
T1C0.599
T2C0.800
T3C0.899
T4C1.001
T5C1.100
T6C3.251
%
M47
G05
M71
T1
X82.550Y105.410
X82.550Y110.490
X86.360Y72.390
X86.360Y77.470
X95.250Y43.180
X95.250Y53.340
X95.250Y106.680
X100.330Y43.180
X100.330Y53.340
X100.330Y106.680
X105.410Y82.550
X106.680Y69.215
X106.680Y78.105
X107.315Y96.520
X107.950Y43.180
X107.950Y53.340
X107.950Y82.550
X111.125Y71.755
X111.125Y76.835
X112.395Y67.310
X113.030Y43.180
X113.030Y53.340
X114.935Y71.755
X114.935Y76.835
X116.205Y96.520
X120.015Y71.755
X120.015Y76.835
X120.650Y60.960
X120.650Y63.500
X121.285Y67.310
X127.000Y99.060
X128.270Y69.850
X128.270Y73.660
X128.270Y77.470
T2
X35.560Y107.950
X43.180Y45.085
X43.180Y48.260
X43.180Y53.975
X43.180Y57.785
X43.180Y66.675
X43.180Y90.805
X43.180Y99.695
X43.180Y102.235
X43.180Y111.125
X48.260Y45.085
X48.260Y53.975
X48.260Y57.785
X48.260Y66.675
X48.260Y90.805
X48.260Y99.695
X48.260Y102.235
X48.260Y111.125
X49.530Y48.260
X52.070Y107.950
X77.470Y68.580
X78.740Y96.520
X82.550Y50.800
X82.550Y74.930
X83.820Y58.420
X86.360Y55.880
X92.710Y100.330
X93.980Y63.500
X93.980Y66.040
X93.980Y68.580
X93.980Y71.120
X93.980Y73.660
X93.980Y76.200
X93.980Y78.740
X93.980Y81.280
X93.980Y83.820
X93.980Y86.360
X93.980Y88.900
X93.980Y91.440
X93.980Y93.980
X93.980Y96.520
X101.600Y63.500
X101.600Y66.040
X101.600Y68.580
X101.600Y71.120
X101.600Y73.660
X101.600Y76.200
X101.600Y78.740
X101.600Y81.280
X101.600Y83.820
X101.600Y86.360
X101.600Y88.900
X101.600Y91.440
X101.600Y93.980
X101.600Y96.520
X116.840Y85.090
T3
X111.760Y85.725
X111.760Y88.265
X111.760Y90.805
X114.300Y84.455
X114.300Y86.995
X114.300Y89.535
T4
X38.100Y53.340
X38.100Y55.880
X38.100Y59.690
X38.100Y62.230
X38.100Y66.040
X38.100Y68.580
X38.100Y71.120
X38.100Y73.660
X38.100Y76.200
X38.100Y80.010
X38.100Y82.550
X38.100Y85.090
X38.100Y87.630
X38.100Y90.170
X38.100Y93.980
X38.100Y96.520
X38.100Y100.330
X38.100Y102.870
X55.880Y96.520
X57.150Y91.440
X58.420Y96.520
X59.690Y91.440
X60.960Y96.520
X62.230Y91.440
X63.500Y96.520
X64.770Y91.440
X66.040Y96.520
X67.310Y91.440
X68.580Y96.520
X69.850Y91.440
X71.120Y96.520
X72.390Y44.450
X72.390Y46.990
X72.390Y49.530
X72.390Y52.070
X72.390Y54.610
X72.390Y57.150
X72.390Y59.690
X72.390Y91.440
X73.660Y96.520
X77.470Y43.180
X77.470Y45.720
X77.470Y48.260
X77.470Y50.800
X77.470Y53.340
X77.470Y55.880
X77.470Y58.420
X77.470Y60.960
X83.820Y44.450
X83.820Y46.990
X127.000Y62.230
X127.000Y64.770
T5
X107.950Y63.500
X110.490Y63.500
X113.030Y63.500
T6
X34.290Y45.720
X62.230Y106.680
X120.650Y82.550
X120.650Y92.710
X128.270Y109.220
T1
X118.110Y51.846G85X118.110Y49.246
G05
X122.585Y45.720G85X119.985Y45.720
G05
X125.222Y51.846G85X125.222Y49.246
G05
T0
M30
